<svg width="254" height="268" viewBox="0 0 254 268" fill="none" xmlns="http://www.w3.org/2000/svg">
<path d="M49.2175 199.98C47.0927 200.643 44.913 200.953 42.6994 200.627C39.9702 200.226 37.0237 198.152 37.3638 195.414C37.6247 193.316 39.6295 191.973 41.1818 190.538C46.0192 186.064 41.4885 182.645 36.4464 183.845C34.0801 184.409 31.7811 185.431 29.3482 185.44C26.9153 185.449 24.2055 183.991 23.9203 181.575C23.5795 178.693 26.6328 176.676 29.2989 175.53C31.9435 174.394 36.1418 171.403 35.1238 168.054C33.1551 161.579 19.3146 168.536 16.9789 168.954C14.1358 169.464 10.5767 169.27 9.20062 166.731C8.23605 164.952 8.83492 162.651 10.1111 161.08C11.3872 159.509 27.2699 152.4 27.5571 147.458C27.6703 145.516 26.009 143.953 24.6676 142.543C20.9093 138.594 17.4417 133.699 17.7845 128.257C18.5735 115.719 31.7242 126.819 37.8398 109.377C40.6384 101.394 48.9309 101.593 62.8435 106.928C66.1001 108.177 69.7599 108.02 73.2469 107.937C83.3512 107.699 92.144 101.334 100.205 95.2354C109.452 88.2399 118.699 81.2444 127.946 74.2482C134.878 69.0035 141.893 63.7102 149.857 60.2287C157.362 56.9485 154.03 65.9897 162.093 64.5485C166.492 63.7622 176.604 51.1799 186.855 53.2707C191.234 54.1638 195.506 57.0207 196.737 61.3161C197.863 65.2452 196.29 69.4185 194.419 73.0526C192.549 76.6867 190.303 80.3118 189.983 84.3872C189.663 88.462 192.127 93.1335 196.194 93.5443C197.558 93.6817 198.968 93.3348 200.292 93.6928C203.446 94.5457 204.26 98.9514 202.81 101.88C201.36 104.808 198.518 106.734 196.163 108.997C193.807 111.261 191.761 114.478 192.633 117.626C193.674 121.383 198.434 123.399 198.94 127.264C199.215 129.37 198.886 132.168 197.041 133.22C187.65 138.569 180.665 139.733 185.509 153.044C185.842 153.959 184.466 154.784 183.562 155.147C181.881 155.822 180.194 154.338 178.51 153.673C175.661 152.548 172.357 153.885 170.108 155.964C167.859 158.043 166.346 160.778 164.477 163.204C155.205 175.244 138.492 178.399 123.308 179.013C114.813 179.356 106.276 179.182 97.8245 180.237C90.5244 182.062 83.5622 183.433 76.534 186.349C69.8043 189.142 63.6714 192.507 57.3025 196.143C54.7363 197.607 52.0244 199.103 49.2175 199.98Z" fill="#F46E0D"/>
<path d="M165.719 120.747C165.462 120.798 165.192 120.673 165.072 120.425C164.931 120.132 165.054 119.779 165.347 119.637C167.111 118.784 168.983 118.159 170.795 117.553C171.92 117.177 173.084 116.788 174.198 116.351C187.52 111.127 195.529 98.7569 199.899 89.2986C200.038 89.0023 200.388 88.8753 200.683 89.0106C200.978 89.148 201.107 89.4978 200.971 89.7941C196.507 99.448 188.316 112.082 174.629 117.449C173.486 117.898 172.307 118.291 171.168 118.672C169.391 119.265 167.556 119.879 165.859 120.7C165.814 120.722 165.767 120.738 165.719 120.747Z" fill="white"/>
<path d="M210.82 78.7737C210.958 78.0597 211.049 77.3172 210.878 76.6107C210.421 74.7198 208.131 73.7191 206.228 74.1244C204.325 74.5289 202.809 75.973 201.658 77.5413C199.677 80.2379 199.661 91.2332 199.661 91.2332C199.661 91.2332 209.984 83.108 210.82 78.7737Z" fill="white"/>
<path d="M211.006 96.8996C211.529 96.6137 212.045 96.2841 212.401 95.8074C213.355 94.5312 212.792 92.5653 211.543 91.5758C210.294 90.5862 208.592 90.3843 207.001 90.4759C204.266 90.6341 197.321 96.3639 197.321 96.3639C197.321 96.3639 207.835 98.6351 211.006 96.8996Z" fill="white"/>
<path d="M205.61 111.551C206.325 111.47 207.052 111.336 207.669 110.965C209.317 109.974 209.583 107.517 208.638 105.841C207.692 104.165 205.881 103.163 204.06 102.541C200.929 101.471 190.551 104.713 190.551 104.713C190.551 104.713 201.273 112.046 205.61 111.551Z" fill="white"/>
<path d="M193.641 124.711C194.401 124.793 195.188 124.824 195.914 124.582C197.857 123.936 198.705 121.449 198.114 119.488C197.522 117.528 195.875 116.066 194.129 114.996C191.127 113.155 179.596 114.105 179.596 114.105C179.596 114.105 189.022 124.215 193.641 124.711Z" fill="white"/>
<path d="M179.309 131.149C179.955 131.436 180.637 131.685 181.343 131.679C183.233 131.66 184.681 129.714 184.715 127.825C184.749 125.935 183.715 124.185 182.484 122.752C180.366 120.287 169.968 117.863 169.968 117.863C169.968 117.863 175.392 129.408 179.309 131.149Z" fill="white"/>
<path d="M196.32 85.4286C196.055 84.863 195.743 84.3016 195.267 83.8978C193.993 82.8159 191.898 83.2788 190.781 84.5223C189.665 85.7658 189.343 87.5347 189.336 89.2056C189.325 92.0799 194.874 99.7214 194.874 99.7214C194.874 99.7214 197.932 88.8607 196.32 85.4286Z" fill="white"/>
<path d="M177.288 102.139C177.023 101.574 176.711 101.012 176.235 100.608C174.961 99.5259 172.866 99.9887 171.749 101.232C170.633 102.476 170.311 104.245 170.304 105.916C170.292 108.789 175.842 116.431 175.842 116.431C175.842 116.431 178.9 105.571 177.288 102.139Z" fill="white"/>
<path d="M187.491 95.2329C187.228 94.6313 186.916 94.0317 186.427 93.5931C185.117 92.4204 182.902 92.8479 181.693 94.124C180.484 95.4001 180.095 97.2509 180.042 99.0079C179.95 102.029 185.569 110.22 185.569 110.22C185.569 110.22 189.089 98.8871 187.491 95.2329Z" fill="white"/>
<path d="M69.025 173.399C69.1915 173.657 69.1707 174.005 68.9528 174.242C68.6961 174.522 68.2582 174.54 67.9771 174.282C66.2895 172.728 64.8031 170.96 63.3632 169.249C62.4694 168.186 61.5451 167.086 60.5903 166.061C49.1689 153.809 32.2564 150.416 20.08 149.729C19.6976 149.706 19.409 149.38 19.4291 149C19.4513 148.62 19.7774 148.329 20.1577 148.349C32.5874 149.052 49.8656 152.531 61.5999 165.119C62.5791 166.17 63.5152 167.282 64.4201 168.36C65.8308 170.038 67.2895 171.771 68.9133 173.265C68.9577 173.306 68.9944 173.351 69.025 173.399Z" fill="white"/>
<path d="M3.92261 142.373C3.08642 142.531 2.23844 142.751 1.54312 143.241C-0.318691 144.553 -0.422088 147.475 0.837395 149.372C2.09757 151.269 4.32162 152.298 6.52415 152.877C10.3123 153.872 22.2875 149.156 22.2875 149.156C22.2875 149.156 9.00079 141.418 3.92261 142.373Z" fill="white"/>
<path d="M23.5059 134.973C22.9702 134.528 22.3887 134.108 21.7163 133.926C19.9169 133.436 18.019 134.896 17.4798 136.681C16.9406 138.466 17.4528 140.406 18.2376 142.098C19.5873 145.007 28.8131 150.1 28.8131 150.1C28.8131 150.1 26.7597 137.678 23.5059 134.973Z" fill="white"/>
<path d="M16.3924 156.164C15.8386 156.752 15.3105 157.395 15.051 158.16C14.3557 160.208 15.9101 162.509 17.9377 163.261C19.9654 164.014 22.2477 163.559 24.2615 162.772C27.7256 161.418 34.2805 151.104 34.2805 151.104C34.2805 151.104 19.7558 152.592 16.3924 156.164Z" fill="white"/>
<path d="M41.8438 133.935C41.4476 133.192 40.9889 132.458 40.3199 131.947C38.5303 130.579 35.7428 131.346 34.3258 133.097C32.9087 134.848 32.5972 137.251 32.704 139.501C32.8872 143.37 40.8834 153.272 40.8834 153.272C40.8834 153.272 44.2496 138.444 41.8438 133.935Z" fill="white"/>
<path d="M29.8873 160.689C29.294 161.286 28.7271 161.941 28.4356 162.73C27.6549 164.842 29.2087 167.281 31.2988 168.12C33.3889 168.959 35.7774 168.55 37.896 167.786C41.5398 166.472 48.6512 155.917 48.6512 155.917C48.6512 155.917 33.4881 157.063 29.8873 160.689Z" fill="white"/>
<path d="M40.2415 170.946C39.5725 171.619 38.9327 172.358 38.6038 173.248C37.7232 175.632 39.4761 178.382 41.8341 179.33C44.192 180.276 46.8866 179.815 49.2772 178.953C53.388 177.471 61.4098 165.563 61.4098 165.563C61.4098 165.563 44.3045 166.855 40.2415 170.946Z" fill="white"/>
<path d="M59.0276 139.623C58.7889 138.76 58.4835 137.89 57.9083 137.204C56.3691 135.367 53.2957 135.515 51.4166 137.003C49.5374 138.49 48.6547 140.913 48.2411 143.274C47.5305 147.334 53.5268 159.476 53.5268 159.476C53.5268 159.476 60.4751 144.864 59.0276 139.623Z" fill="white"/>
<path opacity="0.1" d="M56.3746 217.682C55.9534 217.925 55.7417 218.248 55.7396 218.57C55.7382 218.892 55.9464 219.214 56.3649 219.457L138.401 267.165C138.82 267.408 139.375 267.53 139.931 267.53C140.487 267.53 141.044 267.409 141.466 267.165L252.483 203.07C252.912 202.822 253.123 202.5 253.123 202.179C253.123 201.858 252.912 201.538 252.493 201.295L170.457 153.588C170.038 153.345 169.487 153.22 168.932 153.22C168.378 153.219 167.821 153.34 167.392 153.588L56.3746 217.682Z" fill="#3F72DF"/>
<path d="M60.0767 214.158C59.6555 214.401 59.4439 214.723 59.4418 215.045C59.4404 215.367 59.6479 215.689 60.067 215.933L139.143 261.887C139.562 262.13 140.117 262.252 140.673 262.252C141.229 262.252 141.786 262.13 142.208 261.887L253.224 197.791C253.653 197.544 253.864 197.222 253.864 196.9C253.864 196.579 253.653 196.259 253.234 196.016L174.158 150.062C173.74 149.819 173.188 149.695 172.634 149.694C172.079 149.694 171.523 149.815 171.094 150.062L60.0767 214.158Z" fill="#CDC4FD"/>
<path d="M172.317 53.1594C172.228 53.115 172.096 53.0928 171.985 53.0928C171.763 53.0706 171.519 53.1372 171.275 53.2927L60.271 114.328C59.761 114.616 59.3175 115.459 59.0511 116.28C58.8519 116.857 58.7409 117.411 58.7409 117.81L59.0067 213.023C59.0067 213.201 59.0289 213.355 59.0733 213.489C59.0955 213.622 59.1621 213.733 59.2287 213.821C59.2953 213.91 59.3619 213.976 59.4501 214.021L56.1678 212.113C55.9013 211.958 55.7244 211.625 55.7244 211.115L55.4801 115.925C55.4801 115.526 55.5911 114.949 55.791 114.372C56.0568 113.551 56.5002 112.731 57.0109 112.42L168.015 51.3851C168.436 51.1408 168.836 51.1186 169.124 51.2962L172.317 53.1594Z" fill="#CDC4FD"/>
<path d="M173.094 147.153C173.094 148.128 172.406 149.326 171.564 149.814L60.7151 213.8L60.5375 213.911C60.1162 214.154 59.7165 214.177 59.4508 214.022C59.3619 213.955 59.2953 213.911 59.2294 213.822C59.1628 213.733 59.0962 213.623 59.074 213.49C59.0296 213.356 59.0073 213.202 59.0073 213.024L58.7416 117.811C58.7416 117.412 58.8526 116.858 59.0518 116.281C59.3182 115.46 59.7617 114.618 60.2717 114.329L171.276 53.2937C171.52 53.1382 171.763 53.0723 171.985 53.0938C172.096 53.0938 172.207 53.116 172.318 53.1604C172.629 53.3159 172.828 53.6705 172.828 54.1583L173.094 147.153Z" fill="#DAD3FD"/>
<path d="M60.2689 117.382C78.69 106.558 97.2138 95.9113 115.682 85.1692C134.218 74.5452 152.7 63.8267 171.286 53.2866C152.866 64.1119 134.342 74.7589 115.873 85.4996C97.3359 96.1229 78.8538 106.841 60.2689 117.382Z" fill="white"/>
<path d="M61.7948 120.027C61.8274 120.056 61.8691 116.932 61.901 116.9L169.782 57.6846L170.03 141.048C170.028 141.027 62.0432 203.388 62.0432 203.388L61.7948 120.027Z" fill="#291E40"/>
<path d="M253.868 196.899V200.67C253.868 201.002 253.668 201.313 253.225 201.557L142.221 265.653C141.8 265.898 141.223 266.031 140.669 266.009C140.092 266.009 139.582 265.898 139.161 265.653L60.0724 219.699C59.6733 219.456 59.4513 219.145 59.4513 218.835V215.042C59.4513 215.375 59.6511 215.685 60.0724 215.93L139.139 261.884C139.56 262.128 140.114 262.239 140.669 262.239C141.223 262.239 141.778 262.128 142.199 261.884L253.225 197.788C253.646 197.543 253.868 197.21 253.868 196.899Z" fill="#DAD3FD"/>
<path d="M75.2522 215.942L174.083 158.885L220.342 186.037L121.512 243.097L75.2522 215.942Z" fill="#BDB3F5"/>
<path d="M194.443 206.855V207.482L176.009 218.044L158.125 228.3L157.574 227.98L176.009 217.417L194.443 206.855Z" fill="white"/>
<path d="M211.288 217.294L209.821 218.135L193.388 227.551L174.954 238.114L166.272 233.039L158.125 228.3L176.009 218.044L194.443 207.481L203.141 212.541L211.288 217.294Z" fill="#DAD3FD"/>
<path d="M211.823 216.989L211.288 217.294L203.141 212.541L194.443 207.482V206.855L203.141 211.914L211.823 216.989Z" fill="#1E2139"/>
<path d="M176.485 162.737L176.481 163.295L171.42 166.236L171.423 165.679L176.485 162.737Z" fill="white"/>
<path d="M171.424 165.679L171.42 166.236L167.839 164.169L167.842 163.611L171.424 165.679Z" fill="#1E2139"/>
<path d="M176.485 162.737L171.424 165.679L167.842 163.611L172.904 160.669L176.485 162.737Z" fill="#CDC4FD"/>
<path d="M169.63 166.721L169.627 167.278L164.565 170.22L164.569 169.662L169.63 166.721Z" fill="white"/>
<path d="M164.569 169.663L164.565 170.221L160.984 168.153L160.987 167.595L164.569 169.663Z" fill="#1E2139"/>
<path d="M169.631 166.722L164.569 169.663L160.988 167.595L166.049 164.654L169.631 166.722Z" fill="#CDC4FD"/>
<path d="M184.165 167.171L184.162 167.729L172.246 174.654L172.249 174.096L184.165 167.171Z" fill="white"/>
<path d="M172.249 174.097L172.246 174.655L166.147 171.134L166.15 170.576L172.249 174.097Z" fill="#1E2139"/>
<path d="M184.165 167.172L172.249 174.096L166.15 170.575L178.066 163.65L184.165 167.172Z" fill="#CDC4FD"/>
<path d="M186.049 176.818L186.045 177.376L178.365 172.942L178.368 172.384L186.049 176.818Z" fill="#1E2139"/>
<path d="M182.79 176.869L177.729 179.81L171.639 176.294L176.701 173.353L182.79 176.869Z" fill="#CDC4FD"/>
<path d="M182.79 176.869L182.786 177.427L177.726 180.369L177.729 179.811L182.79 176.869Z" fill="white"/>
<path d="M177.729 179.81L177.726 180.368L171.636 176.852L171.639 176.294L177.729 179.81Z" fill="#1E2139"/>
<path d="M199.527 176.041L199.524 176.598L192.668 180.582L192.672 180.024L199.527 176.041Z" fill="white"/>
<path d="M192.671 180.024L192.668 180.582L191.175 181.45L191.179 180.892L192.671 180.024Z" fill="white"/>
<path d="M187.611 182.966L187.607 183.524L181.517 180.008L181.521 179.45L187.611 182.966Z" fill="#1E2139"/>
<path d="M191.179 180.892L191.176 181.45L187.607 183.523L187.611 182.966L191.179 180.892Z" fill="white"/>
<path d="M199.527 176.041L192.671 180.024L191.179 180.892L187.611 182.966L181.521 179.45L186.049 176.818L178.368 172.384L185.756 168.091L199.527 176.041Z" fill="#CDC4FD"/>
<path d="M207.207 180.475L207.204 181.033L193.086 189.237L193.09 188.679L207.207 180.475Z" fill="white"/>
<path d="M193.09 188.679L193.087 189.236L186.997 185.72L187 185.163L193.09 188.679Z" fill="#1E2139"/>
<path d="M207.207 180.476L193.09 188.679L187 185.164L201.117 176.959L207.207 180.476Z" fill="#CDC4FD"/>
<path d="M162.775 170.705L162.772 171.262L157.7 174.209L157.705 173.652L162.775 170.705Z" fill="white"/>
<path d="M157.704 173.652L157.7 174.21L154.119 172.142L154.122 171.584L157.704 173.652Z" fill="#1E2139"/>
<path d="M162.775 170.706L157.705 173.652L154.123 171.584L159.194 168.638L162.775 170.706Z" fill="#CDC4FD"/>
<path d="M155.911 174.694L155.907 175.252L150.846 178.193L150.849 177.635L155.911 174.694Z" fill="white"/>
<path d="M150.849 177.635L150.846 178.193L147.264 176.125L147.268 175.567L150.849 177.635Z" fill="#1E2139"/>
<path d="M155.911 174.694L150.849 177.635L147.268 175.568L152.329 172.626L155.911 174.694Z" fill="#CDC4FD"/>
<path d="M149.055 178.678L149.052 179.236L143.991 182.177L143.994 181.619L149.055 178.678Z" fill="white"/>
<path d="M143.994 181.619L143.991 182.176L140.409 180.109L140.412 179.551L143.994 181.619Z" fill="#1E2139"/>
<path d="M149.055 178.678L143.994 181.62L140.412 179.552L145.474 176.61L149.055 178.678Z" fill="#CDC4FD"/>
<path d="M142.2 182.662L142.197 183.22L137.126 186.166L137.129 185.609L142.2 182.662Z" fill="white"/>
<path d="M137.13 185.609L137.126 186.166L133.545 184.098L133.548 183.541L137.13 185.609Z" fill="#1E2139"/>
<path d="M142.201 182.662L137.129 185.609L133.548 183.541L138.619 180.594L142.201 182.662Z" fill="#CDC4FD"/>
<path d="M135.336 186.651L135.332 187.209L130.271 190.15L130.275 189.592L135.336 186.651Z" fill="white"/>
<path d="M130.275 189.592L130.271 190.15L126.689 188.082L126.693 187.524L130.275 189.592Z" fill="#1E2139"/>
<path d="M135.336 186.65L130.275 189.591L126.693 187.523L131.754 184.583L135.336 186.65Z" fill="#CDC4FD"/>
<path d="M128.481 190.634L128.478 191.192L123.416 194.134L123.419 193.576L128.481 190.634Z" fill="white"/>
<path d="M123.419 193.576L123.416 194.134L119.834 192.066L119.838 191.508L123.419 193.576Z" fill="#1E2139"/>
<path d="M128.481 190.634L123.42 193.576L119.838 191.508L124.9 188.567L128.481 190.634Z" fill="#CDC4FD"/>
<path d="M121.626 194.618L121.622 195.176L116.552 198.123L116.555 197.565L121.626 194.618Z" fill="white"/>
<path d="M116.555 197.565L116.552 198.123L112.969 196.055L112.974 195.498L116.555 197.565Z" fill="#1E2139"/>
<path d="M121.625 194.618L116.555 197.565L112.973 195.497L118.044 192.55L121.625 194.618Z" fill="#CDC4FD"/>
<path d="M114.761 198.607L114.758 199.165L109.696 202.106L109.7 201.549L114.761 198.607Z" fill="white"/>
<path d="M109.7 201.549L109.696 202.106L106.115 200.039L106.118 199.481L109.7 201.549Z" fill="#1E2139"/>
<path d="M114.761 198.607L109.7 201.549L106.118 199.481L111.18 196.539L114.761 198.607Z" fill="#CDC4FD"/>
<path d="M107.906 202.591L107.902 203.149L102.842 206.09L102.845 205.532L107.906 202.591Z" fill="white"/>
<path d="M102.845 205.532L102.842 206.09L99.2595 204.022L99.263 203.464L102.845 205.532Z" fill="#1E2139"/>
<path d="M107.906 202.591L102.845 205.532L99.2629 203.464L104.324 200.523L107.906 202.591Z" fill="#CDC4FD"/>
<path d="M101.052 206.574L101.048 207.132L95.9768 210.079L95.9803 209.521L101.052 206.574Z" fill="white"/>
<path d="M95.9801 209.522L95.9766 210.08L92.3953 208.012L92.3987 207.454L95.9801 209.522Z" fill="#1E2139"/>
<path d="M101.052 206.575L95.9803 209.522L92.3989 207.454L97.4702 204.507L101.052 206.575Z" fill="#CDC4FD"/>
<path d="M94.1961 210.559L94.1926 211.117L89.1221 214.064L89.1255 213.506L94.1961 210.559Z" fill="white"/>
<path d="M89.1256 213.505L89.1221 214.063L85.54 211.995L85.5442 211.438L89.1256 213.505Z" fill="#1E2139"/>
<path d="M94.1959 210.558L89.1253 213.505L85.5439 211.437L90.6145 208.49L94.1959 210.558Z" fill="#CDC4FD"/>
<path d="M87.3318 214.548L87.3283 215.106L82.2675 218.047L82.2702 217.489L87.3318 214.548Z" fill="white"/>
<path d="M82.2701 217.49L82.2674 218.048L78.6853 215.98L78.6888 215.422L82.2701 217.49Z" fill="#1E2139"/>
<path d="M87.3314 214.548L82.2698 217.489L78.6885 215.422L83.75 212.48L87.3314 214.548Z" fill="#CDC4FD"/>
<path d="M170.455 175.139L170.452 175.698L165.381 178.644L165.385 178.086L170.455 175.139Z" fill="white"/>
<path d="M165.385 178.086L165.381 178.644L159.282 175.122L159.285 174.564L165.385 178.086Z" fill="#1E2139"/>
<path d="M170.456 175.139L165.385 178.086L159.285 174.564L164.356 171.618L170.456 175.139Z" fill="#CDC4FD"/>
<path d="M163.591 179.128L163.588 179.686L158.526 182.627L158.53 182.069L163.591 179.128Z" fill="white"/>
<path d="M158.53 182.07L158.526 182.627L152.427 179.106L152.43 178.548L158.53 182.07Z" fill="#1E2139"/>
<path d="M163.591 179.128L158.53 182.07L152.43 178.548L157.491 175.607L163.591 179.128Z" fill="#CDC4FD"/>
<path d="M156.736 183.112L156.732 183.67L151.671 186.612L151.675 186.054L156.736 183.112Z" fill="white"/>
<path d="M151.675 186.054L151.672 186.612L145.572 183.09L145.575 182.532L151.675 186.054Z" fill="#1E2139"/>
<path d="M156.737 183.112L151.675 186.054L145.575 182.532L150.637 179.59L156.737 183.112Z" fill="#CDC4FD"/>
<path d="M149.881 187.096L149.878 187.654L144.806 190.601L144.81 190.043L149.881 187.096Z" fill="white"/>
<path d="M144.81 190.043L144.806 190.601L138.707 187.079L138.711 186.521L144.81 190.043Z" fill="#1E2139"/>
<path d="M149.881 187.096L144.81 190.043L138.711 186.521L143.781 183.574L149.881 187.096Z" fill="#CDC4FD"/>
<path d="M143.017 191.085L143.013 191.643L137.952 194.584L137.955 194.026L143.017 191.085Z" fill="white"/>
<path d="M137.955 194.026L137.952 194.584L131.852 191.063L131.856 190.505L137.955 194.026Z" fill="#1E2139"/>
<path d="M143.017 191.085L137.955 194.026L131.855 190.505L136.917 187.563L143.017 191.085Z" fill="#CDC4FD"/>
<path d="M135.502 195.452L135.498 196.01L130.427 198.957L130.431 198.399L135.502 195.452Z" fill="white"/>
<path d="M130.431 198.4L130.427 198.957L124.328 195.435L124.331 194.878L130.431 198.4Z" fill="#1E2139"/>
<path d="M135.502 195.452L130.432 198.399L124.331 194.878L129.403 191.931L135.502 195.452Z" fill="#CDC4FD"/>
<path d="M128.637 199.442L128.634 200L123.573 202.941L123.576 202.383L128.637 199.442Z" fill="white"/>
<path d="M123.576 202.383L123.573 202.94L117.473 199.419L117.477 198.861L123.576 202.383Z" fill="#1E2139"/>
<path d="M128.637 199.442L123.576 202.382L117.477 198.861L122.538 195.92L128.637 199.442Z" fill="#CDC4FD"/>
<path d="M121.782 203.425L121.779 203.983L116.717 206.924L116.721 206.366L121.782 203.425Z" fill="white"/>
<path d="M116.721 206.366L116.717 206.924L110.618 203.403L110.622 202.845L116.721 206.366Z" fill="#1E2139"/>
<path d="M121.783 203.424L116.721 206.366L110.622 202.844L115.683 199.903L121.783 203.424Z" fill="#CDC4FD"/>
<path d="M114.928 207.409L114.924 207.967L109.853 210.914L109.857 210.356L114.928 207.409Z" fill="white"/>
<path d="M109.857 210.356L109.853 210.914L103.753 207.392L103.757 206.834L109.857 210.356Z" fill="#1E2139"/>
<path d="M114.928 207.408L109.856 210.356L103.757 206.834L108.828 203.887L114.928 207.408Z" fill="#CDC4FD"/>
<path d="M108.063 211.398L108.06 211.956L102.998 214.898L103.002 214.339L108.063 211.398Z" fill="white"/>
<path d="M103.002 214.339L102.998 214.897L96.8982 211.376L96.9017 210.818L103.002 214.339Z" fill="#1E2139"/>
<path d="M108.063 211.398L103.002 214.339L96.9016 210.818L101.963 207.876L108.063 211.398Z" fill="#CDC4FD"/>
<path d="M101.208 215.382L101.204 215.94L96.1428 218.881L96.1463 218.323L101.208 215.382Z" fill="white"/>
<path d="M96.1466 218.322L96.1431 218.88L90.0435 215.359L90.0469 214.801L96.1466 218.322Z" fill="#1E2139"/>
<path d="M101.208 215.382L96.1468 218.322L90.0471 214.801L95.1086 211.86L101.208 215.382Z" fill="#CDC4FD"/>
<path d="M95.0121 218.982L95.0086 219.54L89.9478 222.481L89.9512 221.923L95.0121 218.982Z" fill="white"/>
<path d="M89.9511 221.924L89.9477 222.481L83.848 218.96L83.8515 218.402L89.9511 221.924Z" fill="#1E2139"/>
<path d="M95.0119 218.982L89.9511 221.924L83.8514 218.402L88.9123 215.461L95.0119 218.982Z" fill="#CDC4FD"/>
<path d="M175.935 180.853L175.932 181.41L170.861 184.357L170.864 183.8L175.935 180.853Z" fill="white"/>
<path d="M170.864 183.8L170.861 184.357L164.771 180.842L164.774 180.284L170.864 183.8Z" fill="#1E2139"/>
<path d="M175.936 180.853L170.864 183.8L164.774 180.284L169.846 177.336L175.936 180.853Z" fill="#CDC4FD"/>
<path d="M169.071 184.842L169.067 185.4L164.006 188.341L164.01 187.784L169.071 184.842Z" fill="white"/>
<path d="M164.009 187.784L164.006 188.341L157.916 184.825L157.919 184.268L164.009 187.784Z" fill="#1E2139"/>
<path d="M169.071 184.842L164.009 187.783L157.919 184.267L162.981 181.326L169.071 184.842Z" fill="#CDC4FD"/>
<path d="M162.216 188.826L162.212 189.384L157.151 192.325L157.154 191.767L162.216 188.826Z" fill="white"/>
<path d="M157.154 191.766L157.151 192.324L151.062 188.808L151.065 188.251L157.154 191.766Z" fill="#1E2139"/>
<path d="M162.216 188.826L157.154 191.767L151.065 188.251L156.126 185.31L162.216 188.826Z" fill="#CDC4FD"/>
<path d="M155.361 192.809L155.357 193.367L150.286 196.314L150.29 195.756L155.361 192.809Z" fill="white"/>
<path d="M150.29 195.756L150.286 196.314L144.196 192.798L144.2 192.24L150.29 195.756Z" fill="#1E2139"/>
<path d="M155.361 192.809L150.29 195.756L144.2 192.24L149.271 189.293L155.361 192.809Z" fill="#CDC4FD"/>
<path d="M147.837 197.181L147.833 197.739L142.772 200.681L142.775 200.123L147.837 197.181Z" fill="white"/>
<path d="M142.775 200.123L142.772 200.681L136.683 197.164L136.685 196.606L142.775 200.123Z" fill="#1E2139"/>
<path d="M147.837 197.182L142.775 200.124L136.686 196.607L141.747 193.667L147.837 197.182Z" fill="#CDC4FD"/>
<path d="M140.981 201.165L140.978 201.722L135.907 204.67L135.911 204.112L140.981 201.165Z" fill="white"/>
<path d="M135.911 204.112L135.907 204.67L129.817 201.154L129.821 200.596L135.911 204.112Z" fill="#1E2139"/>
<path d="M140.981 201.166L135.911 204.113L129.821 200.597L134.892 197.649L140.981 201.166Z" fill="#CDC4FD"/>
<path d="M134.117 205.155L134.114 205.713L129.052 208.654L129.055 208.096L134.117 205.155Z" fill="white"/>
<path d="M129.056 208.096L129.052 208.653L122.962 205.138L122.966 204.58L129.056 208.096Z" fill="#1E2139"/>
<path d="M134.117 205.155L129.056 208.096L122.966 204.58L128.027 201.639L134.117 205.155Z" fill="#CDC4FD"/>
<path d="M127.262 209.139L127.258 209.697L122.197 212.637L122.201 212.08L127.262 209.139Z" fill="white"/>
<path d="M122.201 212.079L122.198 212.637L116.108 209.122L116.111 208.564L122.201 212.079Z" fill="#1E2139"/>
<path d="M127.262 209.139L122.201 212.08L116.111 208.564L121.172 205.623L127.262 209.139Z" fill="#CDC4FD"/>
<path d="M120.407 213.122L120.404 213.679L115.332 216.626L115.336 216.068L120.407 213.122Z" fill="white"/>
<path d="M115.336 216.069L115.332 216.627L109.242 213.111L109.246 212.554L115.336 216.069Z" fill="#1E2139"/>
<path d="M120.407 213.123L115.336 216.069L109.247 212.554L114.317 209.606L120.407 213.123Z" fill="#CDC4FD"/>
<path d="M113.543 217.112L113.539 217.669L108.478 220.611L108.481 220.053L113.543 217.112Z" fill="white"/>
<path d="M108.481 220.053L108.478 220.611L102.388 217.095L102.391 216.537L108.481 220.053Z" fill="#1E2139"/>
<path d="M113.543 217.111L108.481 220.052L102.391 216.536L107.453 213.595L113.543 217.111Z" fill="#CDC4FD"/>
<path d="M107.017 220.903L107.014 221.461L97.6282 226.916L97.6316 226.358L107.017 220.903Z" fill="white"/>
<path d="M97.6315 226.358L97.628 226.916L91.5381 223.4L91.5415 222.842L97.6315 226.358Z" fill="#1E2139"/>
<path d="M107.017 220.903L97.6317 226.358L91.5417 222.841L100.927 217.387L107.017 220.903Z" fill="#CDC4FD"/>
<path d="M185.817 184.008L185.813 184.566L180.742 187.513L180.746 186.955L185.817 184.008Z" fill="white"/>
<path d="M180.746 186.955L180.742 187.513L174.653 183.997L174.656 183.439L180.746 186.955Z" fill="#1E2139"/>
<path d="M185.817 184.007L180.745 186.954L174.656 183.438L179.727 180.491L185.817 184.007Z" fill="#CDC4FD"/>
<path d="M178.952 187.997L178.949 188.554L173.888 191.495L173.891 190.938L178.952 187.997Z" fill="white"/>
<path d="M173.891 190.939L173.888 191.496L167.798 187.981L167.801 187.423L173.891 190.939Z" fill="#1E2139"/>
<path d="M178.952 187.997L173.891 190.939L167.802 187.423L172.862 184.481L178.952 187.997Z" fill="#CDC4FD"/>
<path d="M172.097 191.981L172.094 192.539L167.032 195.48L167.036 194.922L172.097 191.981Z" fill="white"/>
<path d="M167.036 194.922L167.032 195.48L160.942 191.963L160.946 191.406L167.036 194.922Z" fill="#1E2139"/>
<path d="M172.097 191.981L167.036 194.922L160.946 191.406L166.007 188.465L172.097 191.981Z" fill="#CDC4FD"/>
<path d="M165.242 195.965L165.238 196.522L160.168 199.469L160.171 198.911L165.242 195.965Z" fill="white"/>
<path d="M160.171 198.911L160.168 199.469L154.078 195.953L154.081 195.395L160.171 198.911Z" fill="#1E2139"/>
<path d="M165.243 195.965L160.171 198.911L154.082 195.395L159.153 192.449L165.243 195.965Z" fill="#CDC4FD"/>
<path d="M158.378 199.955L158.374 200.512L153.312 203.453L153.316 202.895L158.378 199.955Z" fill="white"/>
<path d="M153.316 202.896L153.312 203.453L147.223 199.937L147.227 199.379L153.316 202.896Z" fill="#1E2139"/>
<path d="M158.378 199.954L153.316 202.895L147.227 199.379L152.288 196.438L158.378 199.954Z" fill="#CDC4FD"/>
<path d="M150.863 204.32L150.859 204.878L145.789 207.825L145.792 207.267L150.863 204.32Z" fill="white"/>
<path d="M145.792 207.268L145.789 207.826L139.699 204.309L139.702 203.751L145.792 207.268Z" fill="#1E2139"/>
<path d="M150.863 204.321L145.792 207.268L139.702 203.752L144.773 200.805L150.863 204.321Z" fill="#CDC4FD"/>
<path d="M143.999 208.31L143.995 208.867L138.934 211.809L138.937 211.251L143.999 208.31Z" fill="white"/>
<path d="M138.937 211.251L138.934 211.809L132.844 208.293L132.848 207.735L138.937 211.251Z" fill="#1E2139"/>
<path d="M143.998 208.309L138.937 211.251L132.848 207.735L137.908 204.794L143.998 208.309Z" fill="#CDC4FD"/>
<path d="M137.143 212.294L137.14 212.852L132.079 215.793L132.082 215.235L137.143 212.294Z" fill="white"/>
<path d="M132.082 215.235L132.079 215.793L125.989 212.277L125.992 211.719L132.082 215.235Z" fill="#1E2139"/>
<path d="M137.144 212.294L132.083 215.235L125.993 211.719L131.054 208.778L137.144 212.294Z" fill="#CDC4FD"/>
<path d="M130.289 216.277L130.285 216.836L125.214 219.782L125.217 219.224L130.289 216.277Z" fill="white"/>
<path d="M125.217 219.224L125.214 219.782L119.125 216.266L119.128 215.708L125.217 219.224Z" fill="#1E2139"/>
<path d="M130.289 216.277L125.218 219.224L119.128 215.709L124.199 212.762L130.289 216.277Z" fill="#CDC4FD"/>
<path d="M123.423 220.266L123.42 220.824L118.359 223.766L118.363 223.208L123.423 220.266Z" fill="white"/>
<path d="M118.363 223.208L118.359 223.766L112.269 220.25L112.273 219.692L118.363 223.208Z" fill="#1E2139"/>
<path d="M123.424 220.266L118.363 223.208L112.273 219.691L117.334 216.75L123.424 220.266Z" fill="#CDC4FD"/>
<path d="M116.569 224.25L116.566 224.808L105.309 231.35L105.312 230.792L116.569 224.25Z" fill="white"/>
<path d="M105.312 230.792L105.309 231.35L99.2188 227.834L99.2222 227.277L105.312 230.792Z" fill="#1E2139"/>
<path d="M116.569 224.25L105.312 230.792L99.2222 227.276L110.479 220.734L116.569 224.25Z" fill="#CDC4FD"/>
<path d="M191.296 189.721L191.293 190.278L186.222 193.226L186.226 192.668L191.296 189.721Z" fill="white"/>
<path d="M186.226 192.668L186.222 193.226L180.132 189.71L180.136 189.152L186.226 192.668Z" fill="#1E2139"/>
<path d="M191.296 189.722L186.226 192.669L180.136 189.152L185.207 186.206L191.296 189.722Z" fill="#CDC4FD"/>
<path d="M184.432 193.71L184.428 194.268L179.367 197.209L179.37 196.652L184.432 193.71Z" fill="white"/>
<path d="M179.37 196.652L179.367 197.21L173.277 193.694L173.281 193.136L179.37 196.652Z" fill="#1E2139"/>
<path d="M184.432 193.71L179.37 196.652L173.281 193.136L178.342 190.195L184.432 193.71Z" fill="#CDC4FD"/>
<path d="M177.576 197.694L177.573 198.252L172.512 201.194L172.515 200.636L177.576 197.694Z" fill="white"/>
<path d="M172.516 200.636L172.512 201.194L166.422 197.678L166.426 197.12L172.516 200.636Z" fill="#1E2139"/>
<path d="M177.577 197.694L172.516 200.636L166.426 197.12L171.487 194.179L177.577 197.694Z" fill="#CDC4FD"/>
<path d="M170.722 201.678L170.718 202.236L165.647 205.183L165.651 204.625L170.722 201.678Z" fill="white"/>
<path d="M165.651 204.626L165.647 205.183L159.558 201.667L159.561 201.109L165.651 204.626Z" fill="#1E2139"/>
<path d="M170.722 201.678L165.651 204.625L159.561 201.109L164.632 198.162L170.722 201.678Z" fill="#CDC4FD"/>
<path d="M163.198 206.051L163.194 206.609L158.133 209.55L158.137 208.992L163.198 206.051Z" fill="white"/>
<path d="M158.137 208.992L158.133 209.549L152.043 206.034L152.047 205.476L158.137 208.992Z" fill="#1E2139"/>
<path d="M163.198 206.051L158.137 208.992L152.047 205.476L157.108 202.535L163.198 206.051Z" fill="#CDC4FD"/>
<path d="M156.343 210.034L156.34 210.591L151.268 213.539L151.272 212.981L156.343 210.034Z" fill="white"/>
<path d="M151.272 212.981L151.268 213.539L145.179 210.024L145.183 209.466L151.272 212.981Z" fill="#1E2139"/>
<path d="M156.343 210.035L151.272 212.981L145.182 209.466L150.253 206.519L156.343 210.035Z" fill="#CDC4FD"/>
<path d="M149.478 214.024L149.474 214.581L144.414 217.523L144.417 216.965L149.478 214.024Z" fill="white"/>
<path d="M144.417 216.964L144.414 217.522L138.324 214.006L138.327 213.448L144.417 216.964Z" fill="#1E2139"/>
<path d="M149.478 214.023L144.417 216.964L138.327 213.448L143.389 210.507L149.478 214.023Z" fill="#CDC4FD"/>
<path d="M142.623 218.007L142.62 218.565L137.558 221.507L137.562 220.949L142.623 218.007Z" fill="white"/>
<path d="M137.562 220.948L137.558 221.506L131.468 217.99L131.472 217.432L137.562 220.948Z" fill="#1E2139"/>
<path d="M142.623 218.007L137.561 220.949L131.472 217.433L136.533 214.492L142.623 218.007Z" fill="#CDC4FD"/>
<path d="M214.888 184.909L214.884 185.467L207.293 189.879L207.296 189.321L214.888 184.909Z" fill="white"/>
<path d="M207.296 189.321L207.293 189.879L201.203 186.363L201.206 185.805L207.296 189.321Z" fill="#1E2139"/>
<path d="M214.888 184.909L207.296 189.321L201.206 185.805L208.798 181.393L214.888 184.909Z" fill="#CDC4FD"/>
<path d="M205.832 190.172L205.828 190.73L200.767 193.671L200.771 193.113L205.832 190.172Z" fill="white"/>
<path d="M200.771 193.114L200.767 193.671L194.677 190.156L194.681 189.598L200.771 193.114Z" fill="#1E2139"/>
<path d="M205.832 190.172L200.771 193.114L194.681 189.598L199.742 186.656L205.832 190.172Z" fill="#CDC4FD"/>
<path d="M198.977 194.156L198.974 194.714L193.903 197.66L193.906 197.102L198.977 194.156Z" fill="white"/>
<path d="M193.906 197.102L193.903 197.66L187.813 194.145L187.816 193.587L193.906 197.102Z" fill="#1E2139"/>
<path d="M198.978 194.156L193.906 197.102L187.816 193.587L192.888 190.64L198.978 194.156Z" fill="#CDC4FD"/>
<path d="M192.112 198.145L192.109 198.702L187.048 201.644L187.051 201.086L192.112 198.145Z" fill="white"/>
<path d="M187.051 201.086L187.048 201.644L180.958 198.128L180.961 197.571L187.051 201.086Z" fill="#1E2139"/>
<path d="M192.112 198.146L187.051 201.086L180.961 197.571L186.022 194.629L192.112 198.146Z" fill="#CDC4FD"/>
<path d="M184.928 202.321L184.924 202.878L147.44 224.662L147.443 224.104L184.928 202.321Z" fill="white"/>
<path d="M147.443 224.104L147.44 224.662L141.351 221.146L141.354 220.588L147.443 224.104Z" fill="#1E2139"/>
<path d="M184.928 202.321L147.443 224.104L141.354 220.588L178.838 198.805L184.928 202.321Z" fill="#CDC4FD"/>
<path d="M135.768 221.991L135.765 222.549L130.694 225.496L130.698 224.938L135.768 221.991Z" fill="white"/>
<path d="M130.698 224.938L130.694 225.496L124.604 221.98L124.608 221.422L130.698 224.938Z" fill="#1E2139"/>
<path d="M135.768 221.991L130.698 224.938L124.608 221.422L129.679 218.475L135.768 221.991Z" fill="#CDC4FD"/>
<path d="M145.649 225.146L145.646 225.704L140.575 228.651L140.579 228.093L145.649 225.146Z" fill="white"/>
<path d="M140.579 228.093L140.576 228.651L134.486 225.135L134.489 224.577L140.579 228.093Z" fill="#1E2139"/>
<path d="M145.649 225.146L140.579 228.093L134.489 224.577L139.56 221.63L145.649 225.146Z" fill="#CDC4FD"/>
<path d="M128.904 225.98L128.9 226.538L123.839 229.479L123.842 228.922L128.904 225.98Z" fill="white"/>
<path d="M123.842 228.922L123.839 229.479L117.749 225.964L117.753 225.406L123.842 228.922Z" fill="#1E2139"/>
<path d="M128.903 225.98L123.842 228.922L117.752 225.405L122.813 222.464L128.903 225.98Z" fill="#CDC4FD"/>
<path d="M138.785 229.136L138.781 229.694L133.72 232.635L133.723 232.077L138.785 229.136Z" fill="white"/>
<path d="M133.724 232.076L133.72 232.634L127.63 229.118L127.634 228.561L133.724 232.076Z" fill="#1E2139"/>
<path d="M138.785 229.135L133.724 232.076L127.634 228.561L132.695 225.619L138.785 229.135Z" fill="#CDC4FD"/>
<path d="M122.379 229.773L122.375 230.33L112.989 235.784L112.992 235.227L122.379 229.773Z" fill="white"/>
<path d="M112.992 235.227L112.989 235.784L106.899 232.269L106.902 231.711L112.992 235.227Z" fill="#1E2139"/>
<path d="M122.379 229.773L112.993 235.227L106.903 231.711L116.289 226.257L122.379 229.773Z" fill="#CDC4FD"/>
<path d="M131.93 233.119L131.926 233.676L126.865 236.618L126.869 236.06L131.93 233.119Z" fill="white"/>
<path d="M126.869 236.06L126.866 236.618L120.776 233.102L120.779 232.544L126.869 236.06Z" fill="#1E2139"/>
<path d="M131.93 233.12L126.869 236.061L120.779 232.545L125.841 229.604L131.93 233.12Z" fill="#CDC4FD"/>
<path d="M125.734 236.72L125.731 237.278L120.67 240.219L120.674 239.661L125.734 236.72Z" fill="white"/>
<path d="M120.673 239.661L120.67 240.219L114.58 236.703L114.584 236.145L120.673 239.661Z" fill="#1E2139"/>
<path d="M125.734 236.72L120.673 239.661L114.583 236.145L119.644 233.204L125.734 236.72Z" fill="#CDC4FD"/>
<path d="M140.672 262.252C141.359 262.261 142.029 262.04 142.592 261.651L144.358 260.618L147.89 258.552L154.953 254.42L169.11 246.207L197.426 229.786L225.806 213.474L239.997 205.32L247.107 201.268L250.662 199.243L252.44 198.23C252.972 197.875 253.811 197.658 253.863 196.901C253.82 197.661 252.978 197.891 252.451 198.251L250.685 199.284L247.153 201.35L240.09 205.482L225.933 213.695L197.616 230.117L169.237 246.428L155.046 254.582L147.936 258.634L144.381 260.66L142.603 261.673C142.037 262.053 141.358 262.27 140.672 262.252Z" fill="white"/>
<path d="M162.937 156.98L79.7427 205.012C78.6941 205.617 76.9947 205.617 75.9462 205.012L162.937 154.789C163.985 155.393 163.985 156.375 162.937 156.98Z" fill="#1E2139"/>
<path d="M140.668 262.237V266.007C140.092 266.007 139.582 265.896 139.16 265.652L60.0719 219.698C59.6729 219.454 59.4508 219.144 59.4508 218.833V215.041C59.4508 215.374 59.6507 215.684 60.0719 215.929L139.138 261.883C139.559 262.127 140.114 262.237 140.668 262.237Z" fill="#1E2139"/>
<path d="M59.45 214.02L56.1677 212.113C55.9012 211.957 55.7242 211.625 55.7242 211.115L55.48 115.924C55.48 115.525 55.591 114.949 55.7909 114.372L59.0509 116.169V116.28C58.8518 116.856 58.7408 117.411 58.7408 117.81L59.0065 213.023C59.0065 213.2 59.0287 213.355 59.0732 213.488C59.0954 213.621 59.162 213.732 59.2286 213.821C59.2952 213.91 59.3618 213.954 59.45 214.02Z" fill="#1E2139"/>
<path d="M60.071 215.928C73.3612 223.394 86.5105 231.102 99.7347 238.681C112.866 246.42 126.072 254.029 139.137 261.882C125.847 254.417 112.697 246.71 99.4738 239.13C86.3432 231.39 73.1371 223.78 60.071 215.928Z" fill="#1E2139"/>
<path d="M59.0004 117.9C59.2238 133.769 59.1669 149.637 59.2599 165.506C59.1683 181.375 59.2245 197.244 59.0004 213.113C58.7762 197.244 58.8324 181.375 58.7408 165.506C58.8338 149.637 58.7769 133.769 59.0004 117.9Z" fill="#1E2139"/>
<path d="M118.22 113.671L52.8668 151.403C51.8155 152.01 50.9626 151.65 50.9626 150.598V58.1204C50.9626 57.0691 51.8155 55.7243 52.8668 55.1171L118.22 17.3853C119.272 16.7781 120.125 17.1383 120.125 18.1903V110.668C120.125 111.719 119.272 113.064 118.22 113.671Z" fill="#C3B9FD"/>
<path d="M53.0445 66.4487C53.0514 66.2364 53.3942 65.5431 53.9098 65.2447L118.129 28.1694L118.042 110.667C118.035 110.873 117.685 111.576 117.18 111.868L52.9446 148.954L53.0445 66.4487Z" fill="white"/>
<path d="M118.153 22.3662C118.153 23.2413 117.444 24.3606 116.568 24.8658C115.693 25.3709 114.984 25.0712 114.984 24.1961C114.984 23.3211 115.693 22.2018 116.568 21.6966C117.443 21.1914 118.153 21.4912 118.153 22.3662Z" fill="#886CC3"/>
<path d="M114.115 24.7163C114.115 25.5914 113.406 26.7107 112.53 27.2159C111.655 27.721 110.945 27.4213 110.945 26.5462C110.945 25.6712 111.654 24.5519 112.53 24.0467C113.406 23.5415 114.115 23.8413 114.115 24.7163Z" fill="#886CC3"/>
<path d="M109.451 28.7128C110.15 27.7831 110.291 26.7084 109.765 26.3126C109.239 25.9167 108.245 26.3496 107.546 27.2794C106.846 28.2092 106.706 29.2838 107.232 29.6796C107.758 30.0755 108.751 29.6426 109.451 28.7128Z" fill="#886CC3"/>
<path d="M102.72 67.6161C102.72 69.0886 101.516 71.0205 99.9768 71.9094C98.4716 72.7782 97.3003 72.2182 97.3003 70.7457C97.3003 69.2405 98.4716 67.3586 99.9768 66.4898C101.515 65.6009 102.72 66.1109 102.72 67.6161Z" fill="#B8ACFD"/>
<path d="M110.754 62.9779C110.754 64.4504 109.55 66.3823 108.01 67.2712C106.505 68.14 105.334 67.58 105.334 66.1075C105.334 64.6024 106.505 62.7204 108.01 61.8516C109.55 60.9627 110.754 61.4727 110.754 62.9779Z" fill="#B8ACFD"/>
<path d="M110.754 53.0365C110.754 54.509 109.55 56.4409 108.01 57.3298C106.505 58.1986 105.334 57.6386 105.334 56.1661C105.334 54.661 106.505 52.779 108.01 51.9102C109.55 51.0213 110.754 51.5313 110.754 53.0365Z" fill="#B8ACFD"/>
<path d="M99.8458 56.1842L62.9967 77.4594C61.4915 78.3282 60.3202 80.2101 60.3202 81.7153C60.3202 83.1878 61.4915 83.7485 62.9967 82.879L99.8458 61.6038C101.385 60.7155 102.589 58.7829 102.589 57.3104C102.59 55.806 101.386 55.2959 99.8458 56.1842Z" fill="#B8ACFD"/>
<path d="M110.754 73.7987C110.754 75.2712 109.55 77.2031 108.01 78.092C106.505 78.9608 105.334 78.4008 105.334 76.9283C105.334 75.4232 106.505 73.5412 108.01 72.6724C109.55 71.7835 110.754 72.2935 110.754 73.7987Z" fill="#B8ACFD"/>
<path d="M99.8458 76.9459L62.9967 98.2211C61.4915 99.0899 60.3202 100.972 60.3202 102.477C60.3202 103.949 61.4915 104.509 62.9967 103.641L99.8458 82.3655C101.385 81.4765 102.589 79.5446 102.589 78.0721C102.59 76.567 101.386 76.0569 99.8458 76.9459Z" fill="#B8ACFD"/>
<path d="M110.754 62.9779C110.754 64.4504 109.55 66.3823 108.01 67.2712C106.505 68.14 105.334 67.58 105.334 66.1075C105.334 64.6024 106.505 62.7204 108.01 61.8516C109.55 60.9627 110.754 61.4727 110.754 62.9779Z" fill="#B8ACFD"/>
<path d="M91.7164 71.2584L63.1244 87.7656C61.5478 88.6761 60.3202 90.5906 60.3202 92.0957C60.3202 93.5683 61.5478 94.0963 63.1244 93.1859L91.7164 76.6787C93.3291 75.7474 94.5906 73.7822 94.5906 72.3097C94.5906 70.8039 93.3291 70.3271 91.7164 71.2584Z" fill="#B8ACFD"/>
<path d="M102.72 99.6898C102.72 101.162 101.516 103.094 99.9768 103.983C98.4716 104.852 97.3003 104.292 97.3003 102.819C97.3003 101.314 98.4716 99.4323 99.9768 98.5635C101.515 97.6746 102.72 98.1847 102.72 99.6898Z" fill="#B8ACFD"/>
<path d="M110.754 95.0521C110.754 96.5246 109.55 98.4565 108.01 99.3454C106.505 100.215 105.334 99.6542 105.334 98.1817C105.334 96.6766 106.505 94.7946 108.01 93.9258C109.55 93.0369 110.754 93.547 110.754 95.0521Z" fill="#B8ACFD"/>
<path d="M110.754 85.1107C110.754 86.5832 109.55 88.5151 108.01 89.404C106.505 90.2728 105.334 89.7128 105.334 88.2403C105.334 86.7352 106.505 84.8532 108.01 83.9844C109.55 83.0955 110.754 83.6056 110.754 85.1107Z" fill="#B8ACFD"/>
<path d="M99.8456 88.2579L62.9966 109.532C61.4914 110.402 60.3201 112.283 60.3201 113.788C60.3201 115.261 61.4914 115.821 62.9966 114.952L99.8456 93.6768C101.385 92.7879 102.589 90.856 102.589 89.3835C102.589 87.8797 101.385 87.3697 99.8456 88.2579Z" fill="#B8ACFD"/>
<path d="M110.754 105.873C110.754 107.345 109.55 109.277 108.01 110.166C106.505 111.035 105.334 110.474 105.334 109.003C105.334 107.497 106.505 105.615 108.01 104.747C109.55 103.858 110.754 104.368 110.754 105.873Z" fill="#B8ACFD"/>
<path d="M99.8456 109.02L62.9966 130.295C61.4914 131.164 60.3201 133.046 60.3201 134.551C60.3201 136.023 61.4914 136.584 62.9966 135.714L99.8456 114.439C101.385 113.55 102.589 111.618 102.589 110.146C102.589 108.641 101.385 108.131 99.8456 109.02Z" fill="#B8ACFD"/>
<path d="M110.754 95.0521C110.754 96.5246 109.55 98.4565 108.01 99.3454C106.505 100.215 105.334 99.6542 105.334 98.1817C105.334 96.6766 106.505 94.7946 108.01 93.9258C109.55 93.0369 110.754 93.547 110.754 95.0521Z" fill="#B8ACFD"/>
<path d="M91.7162 103.333L63.1242 119.84C61.5476 120.75 60.3201 122.664 60.3201 124.169C60.3201 125.642 61.5476 126.17 63.1242 125.259L91.7162 108.752C93.3289 107.821 94.5905 105.856 94.5905 104.383C94.5905 102.878 93.3289 102.401 91.7162 103.333Z" fill="#B8ACFD"/>
<path d="M175.79 96.5806L110.436 134.312C109.385 134.92 108.532 134.559 108.532 133.507V41.0301C108.532 39.9781 109.385 38.6339 110.436 38.0267L175.79 0.294989C176.842 -0.3122 177.694 0.0479498 177.694 1.09995V93.5772C177.693 94.6285 176.841 95.9734 175.79 96.5806Z" fill="#B8ACFD"/>
<path d="M110.614 49.3589C110.621 49.1465 110.963 48.4533 111.479 48.1556L175.698 11.0796L175.611 93.5768C175.604 93.7829 175.254 94.4865 174.749 94.7787L110.514 131.864L110.614 49.3589Z" fill="white"/>
<path d="M175.722 5.27638C175.722 6.15142 175.012 7.27073 174.137 7.77591C173.262 8.28109 172.552 7.98132 172.552 7.10627C172.552 6.23122 173.262 5.11191 174.137 4.60673C175.012 4.10155 175.722 4.40133 175.722 5.27638Z" fill="#886CC3"/>
<path d="M171.684 7.62742C171.684 8.50247 170.975 9.62177 170.099 10.127C169.224 10.6321 168.515 10.3324 168.515 9.45731C168.515 8.58227 169.224 7.46296 170.099 6.95778C170.974 6.4519 171.684 6.75168 171.684 7.62742Z" fill="#886CC3"/>
<path d="M167.647 9.9839C167.647 10.8589 166.938 11.9783 166.062 12.4834C165.186 12.9886 164.477 12.6888 164.477 11.8138C164.477 10.9387 165.186 9.81943 166.062 9.31425C166.938 8.80907 167.647 9.10885 167.647 9.9839Z" fill="#886CC3"/>
<path d="M162.065 35.1589L163.438 34.3657V36.2761L165.286 35.2095V36.4704L163.438 37.537V39.4467L162.065 40.2398V38.3301L160.205 39.4043V38.1435L162.065 37.0693V35.1589Z" fill="#B8ACFD"/>
<path d="M162.745 43.8308C159.148 45.9077 156.221 44.6711 156.221 41.0738C156.221 37.4764 159.148 32.859 162.745 30.7821C166.343 28.7052 169.27 29.9424 169.27 33.5405C169.27 37.1378 166.343 41.7538 162.745 43.8308ZM162.745 31.5628C159.578 33.3913 157.002 37.4556 157.002 40.6234C157.002 43.7898 159.578 44.8793 162.745 43.0508C165.912 41.2223 168.489 37.1579 168.489 33.9915C168.489 30.8237 165.912 29.7343 162.745 31.5628Z" fill="#B8ACFD"/>
<path d="M147.604 132.986L82.2507 170.718C81.1994 171.325 80.3466 170.964 80.3466 169.913V77.4358C80.3466 76.3838 81.1994 75.0397 82.2507 74.4325L147.604 36.7008C148.656 36.0936 149.508 36.4537 149.508 37.5057V129.983C149.508 131.034 148.656 132.379 147.604 132.986Z" fill="#CDC4FD"/>
<path d="M82.4282 85.7641C82.4352 85.5518 82.778 84.8585 83.2935 84.5609L147.513 47.4849L147.426 129.982C147.419 130.188 147.068 130.892 146.563 131.184L82.329 168.27L82.4282 85.7641Z" fill="#FFFCFB"/>
<path d="M147.537 41.6824C147.537 42.5575 146.828 43.6768 145.952 44.182C145.077 44.6872 144.367 44.3874 144.367 43.5123C144.367 42.6373 145.076 41.518 145.952 41.0128C146.827 40.5069 147.537 40.8074 147.537 41.6824Z" fill="#886CC3"/>
<path d="M142.873 45.6728C143.573 44.743 143.713 43.6684 143.187 43.2725C142.661 42.8767 141.668 43.3095 140.968 44.2393C140.268 45.1691 140.128 46.2437 140.654 46.6396C141.18 47.0354 142.174 46.6026 142.873 45.6728Z" fill="#886CC3"/>
<path d="M139.462 46.3901C139.462 47.2652 138.753 48.3845 137.877 48.8897C137.002 49.3948 136.292 49.0951 136.292 48.22C136.292 47.345 137.001 46.2257 137.877 45.7205C138.753 45.2146 139.462 45.5144 139.462 46.3901Z" fill="#886CC3"/>
<path d="M104.081 110.46C104.081 110.46 102.247 108.818 101.88 110.863C101.513 112.909 103.059 121.374 104.945 118.724C106.831 116.074 104.081 110.46 104.081 110.46Z" fill="#FEC9C9"/>
<path d="M125.921 97.8514C125.921 97.8514 127.755 94.091 128.121 95.7134C128.488 97.3358 126.943 107.585 125.056 107.113C123.169 106.641 125.921 97.8514 125.921 97.8514Z" fill="#FEC9C9"/>
<path d="M121.887 120.263L107.967 128.3C107.967 128.3 100.488 134.577 93.7495 141.295C89.6594 145.372 86.9927 150.908 86.9927 155.343V165.573L114.928 149.445L142.862 133.317V123.086C142.862 118.65 140.195 116.194 136.106 116.839C129.367 117.904 121.887 120.263 121.887 120.263Z" fill="#3F9B5D"/>
<path d="M121.893 120.259C121.893 120.259 119.957 129.859 114.928 132.762C109.898 135.666 107.962 128.302 107.962 128.302L109.313 114.787L120.541 108.305L121.893 120.259Z" fill="#FCBEBE"/>
<path d="M126.475 98.1427C126.475 104.52 120.542 118.281 114.928 121.523C109.313 124.764 103.381 117.854 103.381 111.477C103.381 101.106 108.55 94.9249 114.928 91.2429C121.305 87.5609 126.475 87.7719 126.475 98.1427Z" fill="#FEC9C9"/>
<path d="M127.087 97.1557C127.129 96.942 127.188 96.577 127.239 96.1044C127.731 92.0776 128.165 79.8429 114.93 87.4844C102.112 94.8845 102.115 106.155 102.574 109.971C102.653 110.875 102.813 111.372 102.813 111.372L103.39 110.751C103.39 110.751 104.42 111.642 104.925 111.701C105.43 111.761 105.559 107.605 106.192 104.564C106.826 101.523 108.679 101.299 108.679 101.299C108.679 101.299 111.013 101.181 114.923 98.8468C118.843 96.6589 121.177 94.0823 121.177 94.0823C121.177 94.0823 123.03 92.1685 123.663 94.4772C124.297 96.7866 124.425 100.794 124.931 100.151C125.436 99.5089 126.475 98.1432 126.475 98.1432L127.042 97.384C127.047 97.3799 127.063 97.2987 127.087 97.1557Z" fill="#1E2139"/>
<path d="M104.418 119.757C102.503 121.18 100.693 120.93 100.376 119.198L99.6684 115.335C99.3513 113.603 100.646 111.045 102.561 109.623C103.109 109.215 103.627 109.287 103.717 109.782L105.246 118.123C105.336 118.618 104.967 119.35 104.418 119.757Z" fill="#F46E0D"/>
<path d="M125.442 107.431C127.357 106.642 129.167 104.302 129.484 102.204L130.192 97.524C130.509 95.4255 129.214 94.3631 127.299 95.1514C126.752 95.377 126.234 96.0459 126.143 96.6462L124.614 106.752C124.524 107.352 124.894 107.655 125.442 107.431Z" fill="#F46E0D"/>
<path d="M128.702 95.4541L127.247 96.1418C127.806 90.512 126.8 87.0555 124.253 85.8689C120.62 84.1743 114.973 87.7404 114.973 87.7404C114.973 87.7404 109.211 90.7743 105.593 96.6519C103.054 100.775 102.049 105.39 102.609 110.367L101.153 111.361C100.546 105.957 101.688 100.867 104.545 96.2341C108.644 89.5897 114.974 86.2797 114.974 86.2797C114.974 86.2797 121.212 82.3347 125.311 84.2458C128.169 85.5774 129.31 89.3489 128.702 95.4541Z" fill="#F46E0D"/>
<path d="M110.235 126.062C105.202 127.481 103.43 119.61 103.357 119.274L104.076 118.72C104.093 118.799 105.835 126.539 110.442 125.24L110.235 126.062Z" fill="#F46E0D"/>
<path d="M114.579 123.283C114.579 124.099 113.528 125.366 112.233 126.115C110.937 126.863 109.886 126.808 109.886 125.992C109.886 125.176 110.937 123.908 112.233 123.16C113.528 122.412 114.579 122.467 114.579 123.283Z" fill="#3B2B5A"/>
<path d="M140.274 74.2861V90.261C140.274 90.4352 140.246 90.6247 140.19 90.8217L136.854 102.648C136.662 103.331 137.316 103.433 137.803 102.798L146.855 90.9799C147.129 90.6219 147.459 90.3235 147.798 90.1278L168.478 78.4101C169.363 77.8994 170.08 76.7676 170.08 75.8821V57.2994C170.08 56.4146 169.363 56.1113 168.478 56.6221L141.878 71.7581C140.992 72.2688 140.274 73.4013 140.274 74.2861Z" fill="white"/>
<path d="M152.777 77.4903C152.777 78.5895 151.878 80.0308 150.73 80.6942C149.606 81.3423 148.733 80.9245 148.733 79.8254C148.733 78.7019 149.607 77.2974 150.73 76.6492C151.878 75.9865 152.777 76.3675 152.777 77.4903Z" fill="#3C7E9E"/>
<path d="M158.772 74.0293C158.772 75.1285 157.874 76.5698 156.725 77.2332C155.602 77.8813 154.728 77.4636 154.728 76.3644C154.728 75.2409 155.602 73.8364 156.725 73.1883C157.874 72.5256 158.772 72.9066 158.772 74.0293Z" fill="#3C7E9E"/>
<path d="M164.767 70.5679C164.767 71.6671 163.869 73.1084 162.72 73.7718C161.598 74.4199 160.723 74.0022 160.723 72.903C160.723 71.7795 161.598 70.375 162.72 69.7269C163.869 69.0642 164.767 69.4451 164.767 70.5679Z" fill="#3C7E9E"/>
<path opacity="0.75" d="M99.2297 226.999L130.751 245.228L152.576 232.627L121.055 214.398L99.2297 226.999Z" fill="#ADAD99"/>
<path d="M131.509 239.093L102.227 222.076L102.238 226.048L131.52 243.065L131.509 239.093Z" fill="#FFFDF1"/>
<path d="M102.739 226.334L122.263 215.063L122.63 214.851C122.7 214.81 122.764 214.806 122.81 214.833L152.092 231.85C152.046 231.824 151.982 231.828 151.911 231.868L151.544 232.08L132.021 243.352C131.883 243.431 131.757 243.438 131.667 243.386L102.384 226.368C102.475 226.422 102.601 226.414 102.739 226.334Z" fill="#3C7E9E"/>
<path d="M132.006 238.231L102.724 221.214C102.45 221.372 102.226 221.759 102.227 222.076L131.51 239.094C131.508 238.777 131.732 238.389 132.006 238.231Z" fill="#FFFDF1"/>
<path d="M131.004 239.385L131.016 243.357C131.016 243.995 131.469 244.252 132.022 243.931L151.913 232.448C152.053 232.367 152.164 232.175 152.164 232.013C152.164 231.852 152.051 231.788 151.91 231.869L151.543 232.08L132.02 243.353C131.745 243.512 131.522 243.383 131.519 243.065C131.519 243.04 131.507 239.096 131.507 239.096C131.507 238.778 131.731 238.391 132.006 238.232L151.028 227.249L151.897 226.748C152.037 226.668 152.148 226.473 152.148 226.311C152.148 226.152 152.035 226.088 151.894 226.169L151.026 226.67L132.004 237.652C131.465 237.963 131.024 238.711 131.007 239.338C131.004 239.354 131.004 239.368 131.004 239.385Z" fill="#4DA3CC"/>
<path d="M131.508 239.094L131.52 243.038L151.04 231.768L151.028 227.248L132.007 238.23C131.731 238.389 131.508 238.777 131.508 239.094Z" fill="#FFF4F0"/>
<path d="M102.722 220.634L122.612 209.15C122.683 209.109 122.747 209.105 122.793 209.132L152.076 226.15C152.03 226.123 151.966 226.127 151.895 226.168L132.005 237.652C131.452 237.971 131.003 238.748 131.005 239.386L131.016 243.357C131.016 243.675 131.129 243.898 131.309 244.002L102.026 226.985C101.846 226.88 101.734 226.658 101.733 226.34L101.722 222.368C101.721 221.731 102.169 220.953 102.722 220.634Z" fill="#29596D"/>
<path d="M132.005 237.651C133.643 236.662 135.287 235.68 136.937 234.712L141.898 231.82L146.882 228.97C148.547 228.025 150.218 227.092 151.894 226.168C150.256 227.158 148.612 228.139 146.961 229.108L142 232L137.016 234.85C135.353 235.793 133.681 236.727 132.005 237.651Z" fill="white"/>
<path d="M132.021 243.351C133.66 242.362 135.304 241.381 136.954 240.412L141.915 237.52L146.9 234.67C148.564 233.725 150.236 232.792 151.912 231.868C150.274 232.858 148.63 233.839 146.979 234.808L142.018 237.7L137.034 240.55C135.369 241.494 133.698 242.427 132.021 243.351Z" fill="white"/>
<path d="M129.774 237.506L100.088 218.868L120.028 207.355L150.836 225.258L129.774 237.506Z" fill="#FFC73B"/>
<path d="M150.184 225.203L140.422 230.839L130.357 236.65C130.184 236.749 130.013 236.827 129.849 236.879C129.684 236.93 129.526 236.956 129.38 236.956C129.049 236.956 128.784 236.82 128.602 236.568C128.419 236.315 128.318 235.95 128.318 235.492C128.316 234.729 128.584 233.881 129.02 233.128C129.454 232.374 130.055 231.716 130.721 231.334L140.598 225.631L150.173 220.102L149.897 221.154C149.544 222.498 149.645 223.921 150.184 225.203Z" fill="#FFF4F0"/>
<path d="M150.838 225.696L130.899 237.209C130.162 237.635 129.495 237.665 129.021 237.374C128.977 237.345 128.939 237.319 128.901 237.29C128.58 236.982 128.427 236.687 128.347 236.316C128.307 236.075 128.301 236.012 128.296 235.945C128.292 235.873 128.288 235.799 128.288 235.722C128.285 234.071 129.445 232.062 130.881 231.233L150.822 219.72L150.824 220.156L140.947 225.859L131.071 231.562C130.405 231.944 129.804 232.602 129.37 233.356C128.934 234.109 128.666 234.958 128.668 235.72C128.668 236.179 128.768 236.544 128.951 236.796C129.134 237.048 129.398 237.184 129.729 237.184C129.876 237.184 130.034 237.158 130.199 237.107C130.363 237.055 130.534 236.978 130.707 236.878L140.772 231.067L150.835 225.258L150.838 225.696Z" fill="#FFF0C9"/>
<path d="M120.014 201.817L100.074 213.33C98.6371 214.16 97.4761 216.169 97.481 217.82C97.4831 218.64 97.7731 219.217 98.2394 219.488L129.047 237.392C128.58 237.12 128.291 236.544 128.289 235.724C128.284 234.073 129.445 232.063 130.881 231.234L150.822 219.721L120.014 201.817Z" fill="#FFC73B"/>
<path d="M128.289 235.722C128.297 234.533 128.785 233.38 129.497 232.434C129.858 231.961 130.295 231.541 130.806 231.228L132.34 230.331L138.48 226.757C142.595 224.413 146.687 222.03 150.822 219.72C146.753 222.146 142.644 224.499 138.556 226.89L132.391 230.419L130.852 231.303C130.35 231.605 129.918 232.017 129.556 232.48C128.833 233.4 128.322 234.534 128.289 235.722Z" fill="white"/>
<path d="M128.669 235.722C128.67 236.248 128.828 236.884 129.355 237.097C129.607 237.198 129.891 237.171 130.147 237.094C130.395 236.984 130.646 236.888 130.878 236.738L133.72 235.082L139.404 231.771C143.215 229.601 147.005 227.394 150.836 225.259C147.07 227.509 143.265 229.687 139.48 231.902L133.771 235.17L130.916 236.802C130.683 236.945 130.416 237.042 130.163 237.148C129.898 237.221 129.602 237.242 129.341 237.131C129.079 237.024 128.894 236.786 128.796 236.53C128.697 236.273 128.667 235.995 128.669 235.722Z" fill="white"/>
<path d="M122.265 213.414C122.706 213.669 122.717 214.066 122.223 214.351C121.741 214.629 121.053 214.624 120.612 214.369C120.16 214.108 120.149 213.711 120.632 213.432C121.125 213.147 121.812 213.153 122.265 213.414ZM129.485 217.772L128.17 218.531L122.737 215.395L124.052 214.636L129.485 217.772Z" fill="#FFF4F0"/>
<path d="M131.261 219.564C127.66 221.644 121.799 221.644 118.197 219.563C114.595 217.483 114.595 214.1 118.197 212.021C121.799 209.941 127.66 209.941 131.261 212.02C134.864 214.1 134.864 217.483 131.261 219.564ZM119.053 212.515C115.923 214.322 115.923 217.262 119.053 219.068C122.183 220.875 127.276 220.875 130.406 219.069C133.536 217.262 133.536 214.322 130.406 212.514C127.276 210.708 122.183 210.708 119.053 212.515Z" fill="#FFF4F0"/>
<path opacity="0.1" d="M172.298 216.914C167.194 219.861 167.194 224.639 172.298 227.586C177.402 230.533 185.677 230.533 190.781 227.586C195.885 224.639 195.885 219.862 190.781 216.914C185.677 213.968 177.402 213.968 172.298 216.914Z" fill="#3F72DF"/>
<path d="M167.086 223.428C167.048 223.331 167.034 223.26 167.044 223.212C167.046 222.568 167.834 222.06 169.473 222.192C170.201 222.253 170.844 222.281 171.333 222.295C172.373 222.131 173.386 221.907 173.958 221.608C174.221 221.471 174.761 220.843 175.144 220.835C176.813 220.785 179.737 221.926 179.737 221.926C179.737 221.926 180.506 225.024 180.309 225.546C180.136 226 180.135 226.33 179.121 226.755C178.976 226.822 178.818 226.872 178.66 226.897C178.265 226.959 177.397 227 176.336 227.01L175.935 226.366C175.935 226.366 175.282 226.801 174.413 226.996C172.245 226.942 169.524 226.052 169.067 225.673C168.323 225.056 167.358 224.101 167.086 223.428Z" fill="#291E40"/>
<path d="M192.725 217.582L189.616 215.72C189.616 215.72 189.552 215.668 189.447 215.582C188.876 215.104 187.008 213.567 186.563 213.326C185.322 212.329 183.798 212.38 183.361 212.474C183.036 212.604 182.89 213.072 182.888 213.689C182.885 214.292 184.871 216.713 185.65 217.253C185.943 217.448 186.167 217.57 186.362 217.664C186.76 217.858 186.973 218.301 186.885 218.735C187.072 219.132 187.183 219.297 187.291 219.414C187.859 220.03 188.344 220.395 188.845 220.636C189.369 220.885 189.911 220.996 190.566 221.11C191.585 221.288 192.242 220.564 192.467 220.263C192.522 220.185 192.56 220.098 192.565 220.001L192.725 217.582Z" fill="#291E40"/>
<path d="M171.306 165.521L171.2 165.947L163.665 161.602L162.845 161.132L162.101 160.691V160.266L162.951 160.751L163.347 160.98L171.306 165.521Z" fill="#886CC3"/>
<path d="M175.771 162.882L171.2 165.528L162.094 160.271L166.707 157.629L175.771 162.882Z" fill="#291E40"/>
<path d="M172.568 159.662C172.568 159.662 169.975 158.362 169.387 159.192C168.798 160.022 169.387 161.176 169.387 161.176C169.387 161.176 170.143 161.475 170.283 160.991C170.424 160.507 170.424 160.507 170.424 160.507L172.533 162.582L175.715 158.86L172.568 159.662Z" fill="#FEC9C9"/>
<path d="M172.568 159.662C172.568 159.662 169.975 158.362 169.387 159.192C168.798 160.022 169.387 161.176 169.387 161.176C169.387 161.176 170.143 161.475 170.283 160.991C170.424 160.507 170.424 160.507 170.424 160.507L172.533 162.582L175.715 158.86L172.568 159.662Z" fill="#FEC9C9"/>
<path d="M167.493 163.422C167.461 164.316 166.896 165.35 166.854 165.904C166.801 166.458 166.45 167.598 166.45 167.598L166.194 167.651L164.948 167.928L164.693 167.726C164.693 167.726 163.872 167.14 163.521 166.384C163.169 165.617 162.349 163.731 162.381 163.252C162.397 162.93 162.632 161.896 162.849 161.123L165.245 162.507C165.3 162.581 165.81 162.144 165.715 161.644C165.609 161.133 165.171 160.142 165.257 159.886C165.267 159.844 165.289 159.801 165.331 159.769C165.48 159.588 165.874 159.556 166.29 160.323C166.801 161.239 167.514 162.539 167.493 163.422Z" fill="#FEC9C9"/>
<path d="M196.359 167.726C196.05 168.056 195.123 168.301 194.207 168.429C193.28 168.546 192.353 168.535 192.076 168.333C191.736 168.078 191.81 160.813 191.927 155.317C191.991 151.929 192.076 149.213 192.076 149.213C192.076 149.213 195.346 150.789 195.911 156.253C196.476 161.719 196.987 167.065 196.359 167.726Z" fill="#596C7B"/>
<path d="M193.708 181.603C193.708 181.603 193 191.464 193.053 195.047C193.101 198.636 193.314 200.798 193.42 201.586C193.527 202.379 193.079 216.883 193.079 216.883C193.079 217.357 192.765 217.831 192.137 218.199C191.178 218.747 189.768 218.88 188.596 218.593C188.229 218.502 187.882 218.375 187.579 218.199C186.95 217.831 186.637 217.357 186.637 216.883C186.615 216.883 186.775 202.746 186.615 200.479C186.503 198.881 185.534 193.307 184.975 190.171L180.306 202.38V223.278C180.306 223.758 179.992 224.232 179.363 224.593C178.458 225.121 177.142 225.264 176.008 225.035C175.566 224.945 175.156 224.801 174.805 224.593C174.177 224.231 173.863 223.758 173.863 223.278L173.177 202.14C173.177 202.14 173.32 186.789 175.998 177.823L179.352 177.333L192.541 175.395C192.541 175.395 194.054 179.425 193.708 181.603Z" fill="#1E2139"/>
<path d="M193.834 178.644C193.834 178.644 193.728 178.729 193.525 178.878C193.333 179.016 193.035 179.208 192.63 179.431C191.15 180.262 188.253 181.455 183.832 181.498C182.437 181.509 181.233 181.455 180.222 181.349C179.646 181.285 179.135 181.21 178.666 181.114C176.962 180.784 175.982 180.272 175.481 179.74C175.194 179.442 175.066 179.133 175.044 178.846C174.98 177.727 176.792 171.262 176.302 168.407C176.11 167.299 175.385 165.648 174.778 163.794C174.608 163.251 174.437 162.697 174.299 162.132C173.851 160.332 173.649 158.436 174.203 156.679C174.416 155.997 174.773 155.291 175.274 154.673C175.338 154.62 175.481 154.495 175.599 154.388C175.833 154.197 176.185 153.93 176.664 153.611C176.898 153.451 177.164 153.281 177.463 153.1C177.91 152.823 178.421 152.546 179.007 152.247C179.199 152.152 179.401 152.056 179.614 151.96C179.742 151.896 179.859 151.843 179.998 151.779C180.222 151.683 180.445 151.587 180.69 151.491C180.775 151.449 180.871 151.417 180.967 151.374C181.074 151.331 181.17 151.299 181.276 151.256C181.628 151.118 181.99 150.99 182.373 150.862C182.427 150.841 182.48 150.82 182.533 150.809C183.705 150.415 185.004 150.064 186.453 149.797C186.943 149.701 187.465 149.616 187.987 149.541C189.254 149.371 190.617 149.243 192.066 149.211C192.088 149.243 192.194 149.392 192.333 149.626C192.855 150.563 194.027 153.013 193.76 156.231C193.622 157.797 193.419 159.266 193.249 160.736C192.95 163.164 192.695 165.583 192.823 168.406C192.95 171.143 193.292 174.307 193.537 176.373C193.706 177.738 193.834 178.644 193.834 178.644Z" fill="#3F9B5D"/>
<path d="M188.01 148.613C187.994 149.038 187.99 149.539 187.984 150.002C187.978 150.583 187.968 150.454 187.968 150.327C187.957 150.534 187.872 151.003 187.276 151.333C186.083 151.993 184.55 152.137 183.288 152.11C183.022 152.105 182.771 152.073 182.537 152.019C181.642 151.822 181.03 151.386 180.966 151.375C180.987 151.252 181.041 150.491 181.109 148.985C181.12 148.798 181.003 148.622 180.828 148.569C180.279 148.399 179.22 147.994 178.576 146.657C178.118 145.709 177.851 140.886 177.846 140.827C177.841 140.753 177.931 140.768 178.107 140.853C178.336 140.965 178.699 141.199 179.156 141.519C179.23 141.572 179.311 141.63 179.396 141.689C182.239 143.719 188.01 148.452 188.01 148.613Z" fill="#FEC9C9"/>
<path d="M190.364 142.548C190.183 143.288 189.448 144.949 189.31 145.7C189.192 146.355 188.01 148.613 188.01 148.613C186.924 149.278 185.103 149.507 184.182 149.454C183.969 149.438 183.805 149.412 183.708 149.374C183.655 149.353 183.554 149.31 183.431 149.252C182.447 148.799 181.722 147.921 181.467 146.866L181.408 146.621C181.317 146.254 181.301 145.876 181.328 145.503C181.344 145.306 181.35 145.088 181.339 144.843C181.275 143.555 180.683 143.368 180.237 143.283C179.779 143.182 179.704 144.587 179.704 144.587L179.087 144.39L178.996 142.388C178.996 142.181 178.922 141.984 178.788 141.823C178.304 141.27 176.6 140.913 176.605 138.772C176.605 137.798 177.643 134.396 182.819 134.342C183.506 134.337 184.267 134.385 185.109 134.512C190.716 135.349 190.811 140.679 190.364 142.548Z" fill="#1E2139"/>
<path d="M178.134 160.675C178.134 164.999 176.015 167.257 176.015 167.257C176.015 167.257 172.989 179.965 170.284 179.826C170.028 179.794 169.858 179.73 169.677 179.623C167.131 178.11 164.67 168.791 164.724 168.216C164.724 168.098 164.692 168.045 164.692 167.971C164.692 167.395 165.065 166.704 165.586 166.266C165.693 166.16 165.81 166.085 165.927 166.011C166.151 165.883 166.353 165.83 166.534 165.83C166.779 165.83 166.971 165.937 167.078 166.139C167.078 166.139 169.464 171.145 169.815 171.891C169.826 170.634 171.69 157.127 175.279 154.678C175.279 154.678 175.802 155.018 176.43 155.732C177.25 156.701 178.134 158.278 178.134 160.675Z" fill="#596C7B"/>
<path d="M161.951 117.256V136.235C161.951 136.442 161.985 136.628 162.051 136.786L166.016 146.259C166.244 146.805 165.466 147.825 164.888 147.739L154.134 146.116C153.808 146.067 153.416 146.166 153.013 146.398L135.61 156.37C134.558 156.977 133.706 156.617 133.706 155.565V133.487C133.706 132.435 134.558 131.091 135.61 130.483L160.048 116.451C161.099 115.844 161.951 116.204 161.951 117.256Z" fill="white"/>
<path d="M152.916 128.632C152.916 132.652 148.396 134.862 148.396 137.883V138.731L145.425 140.447V139.473C145.425 135.204 149.57 133.159 149.57 130.813C149.57 129.714 148.771 129.526 147.472 130.276C146.35 130.924 145.25 132.083 144.302 133.754L142.229 133.328C143.628 130.872 145.425 128.911 147.748 127.57C151.168 125.597 152.916 126.51 152.916 128.632ZM148.996 142.83C148.996 143.928 148.097 145.37 146.948 146.033C145.824 146.682 144.951 146.264 144.951 145.165C144.951 144.041 145.824 142.637 146.948 141.989C148.097 141.326 148.996 141.707 148.996 142.83Z" fill="#596C7B"/>
</svg>
