<svg width="236" height="174" viewBox="0 0 236 174" fill="none" xmlns="http://www.w3.org/2000/svg">
<path d="M120.143 173.08C64.7483 173.08 19.8421 170.387 19.8421 167.064C19.8421 163.742 64.7483 161.049 120.143 161.049C175.538 161.049 220.444 163.742 220.444 167.064C220.444 170.387 175.538 173.08 120.143 173.08Z" fill="#D7D8D6"/>
<path d="M59.2449 165.764H142.909C147.505 165.764 151.231 162.038 151.231 157.442V24.2861C151.231 19.6896 147.505 15.9639 142.909 15.9639H59.2443C54.6478 15.9639 50.922 19.6896 50.922 24.2861V157.442C50.9226 162.038 54.6484 165.764 59.2449 165.764Z" fill="#4D5B65"/>
<path d="M136.495 165.762H142.908C147.503 165.762 151.233 162.038 151.233 157.444V24.285C151.233 19.6903 147.503 15.9663 142.908 15.9663H136.495C141.09 15.9663 144.814 19.6903 144.814 24.285V157.444C144.814 162.039 141.09 165.762 136.495 165.762Z" fill="#455259"/>
<g opacity="0.1">
<path d="M92.884 15.9668L151.233 99.8125V83.781L104.044 15.9668H92.884Z" fill="white"/>
</g>
<g opacity="0.1">
<path d="M50.9196 24.2855V30.6746L144.779 165.551C148.474 164.704 151.233 161.398 151.233 157.444V136.959L67.0276 15.9668H59.2442C54.6495 15.9668 50.9196 19.6908 50.9196 24.2855Z" fill="white"/>
</g>
<g opacity="0.1">
<path d="M50.9194 55.7075V84.7402L107.303 165.763H127.512L50.9194 55.7075Z" fill="white"/>
</g>
<path d="M61.015 30.9162V151.108C61.015 154.197 63.5154 156.703 66.6099 156.703H135.542C136.49 156.703 137.384 156.468 138.166 156.05C139.937 155.115 141.143 153.25 141.143 151.108V30.9162C141.143 27.8216 138.637 25.3154 135.542 25.3154H66.6099C63.5154 25.3154 61.015 27.821 61.015 30.9162Z" fill="#F5F7F4"/>
<path d="M132.042 156.049C131.26 156.467 130.365 156.702 129.418 156.702H135.542C136.49 156.702 137.384 156.467 138.166 156.049C139.937 155.114 141.143 153.249 141.143 151.107V30.9152C141.143 27.8207 138.637 25.3145 135.542 25.3145H129.418C132.513 25.3145 135.019 27.8207 135.019 30.9152V151.107C135.019 153.249 133.813 155.114 132.042 156.049Z" fill="#DCDDDB"/>
<g opacity="0.2">
<path d="M99.3907 25.3154L141.143 85.3168V69.2794L110.551 25.3154H99.3907Z" fill="white"/>
</g>
<g opacity="0.2">
<path d="M61.015 30.9162V45.1827L138.166 156.05C139.937 155.115 141.143 153.25 141.143 151.108V122.463L73.5343 25.3154H66.6099C63.5154 25.3154 61.015 27.821 61.015 30.9162Z" fill="white"/>
</g>
<g opacity="0.2">
<path d="M61.0149 70.2144V99.2482L100.997 156.703H121.205L61.0149 70.2144Z" fill="white"/>
</g>
<path d="M82.4434 15.9629H101.075C98.8986 15.9629 97.1395 14.1979 97.1395 12.0212C97.1395 9.85029 98.8986 8.08535 101.075 8.08535C103.252 8.08535 105.017 9.85029 105.017 12.0212C105.017 14.1979 103.252 15.9629 101.075 15.9629H119.707L117.077 8.7325C116.224 6.3969 114.006 4.84375 111.518 4.84375H90.6386C88.1501 4.84375 85.9263 6.3969 85.0791 8.7325L82.4434 15.9629Z" fill="#C4C6C3"/>
<path d="M73.6404 15.9673C73.6404 16.9674 73.9169 17.9087 74.4052 18.7088C74.6288 19.0853 74.8994 19.4324 75.2053 19.7384C76.1761 20.7091 77.5056 21.3033 78.9823 21.3033H123.17C125.112 21.3033 126.818 20.262 127.748 18.7088C128.236 17.9087 128.512 16.9674 128.512 15.9673H73.6404Z" fill="#C4C6C3"/>
<path d="M74.4054 18.7085C74.6289 19.085 74.8996 19.4321 75.2055 19.738C76.1762 20.7088 77.5058 21.303 78.9825 21.303H123.171C125.112 21.303 126.818 20.2616 127.748 18.7085H74.4054Z" fill="#ACADAC"/>
<path d="M107.545 4.84229C110.033 4.84229 112.251 6.39543 113.104 8.73103L115.734 15.9614H119.705L117.075 8.73103C116.222 6.39543 114.004 4.84229 111.516 4.84229H107.545Z" fill="#ACADAC"/>
<path d="M70.0734 48.3591H128.708C130.887 48.3591 132.654 46.5924 132.654 44.4133V37.5977C132.654 35.4186 130.887 33.6519 128.708 33.6519H70.0728C67.8937 33.6519 66.127 35.4186 66.127 37.5977V44.4133C66.127 46.5924 67.8937 48.3591 70.0734 48.3591Z" fill="#C4C6C3"/>
<path d="M70.0734 68.3615H128.708C130.887 68.3615 132.654 66.5948 132.654 64.4157V57.6001C132.654 55.421 130.887 53.6543 128.708 53.6543H70.0728C67.8937 53.6543 66.127 55.421 66.127 57.6001V64.4157C66.127 66.5948 67.8937 68.3615 70.0734 68.3615Z" fill="#C4C6C3"/>
<path d="M70.0734 88.3644H128.708C130.887 88.3644 132.654 86.5977 132.654 84.4186V77.603C132.654 75.4239 130.887 73.6572 128.708 73.6572H70.0728C67.8937 73.6572 66.127 75.4239 66.127 77.603V84.4186C66.127 86.5977 67.8937 88.3644 70.0734 88.3644Z" fill="#C4C6C3"/>
<path d="M70.0734 108.367H128.708C130.887 108.367 132.654 106.6 132.654 104.421V97.605C132.654 95.4259 130.887 93.6592 128.708 93.6592H70.0728C67.8937 93.6592 66.127 95.4259 66.127 97.605V104.421C66.127 106.6 67.8937 108.367 70.0734 108.367Z" fill="#C4C6C3"/>
<path d="M70.0734 128.369H128.708C130.887 128.369 132.654 126.603 132.654 124.424V117.607C132.654 115.428 130.887 113.662 128.708 113.662H70.0728C67.8937 113.662 66.127 115.428 66.127 117.607V124.424C66.127 126.603 67.8937 128.369 70.0734 128.369Z" fill="#C4C6C3"/>
<path d="M70.0734 148.372H128.708C130.887 148.372 132.654 146.606 132.654 144.427V137.61C132.654 135.431 130.887 133.665 128.708 133.665H70.0728C67.8937 133.665 66.127 135.431 66.127 137.61V144.427C66.127 146.606 67.8937 148.372 70.0734 148.372Z" fill="#C4C6C3"/>
<path d="M70.8145 46.6305H77.7272C78.9232 46.6305 79.8969 45.6574 79.8969 44.4608V37.5481C79.8969 36.3521 78.9238 35.3784 77.7272 35.3784H70.8145C69.6185 35.3784 68.6448 36.3515 68.6448 37.5481V44.4608C68.6448 45.6574 69.6185 46.6305 70.8145 46.6305ZM77.7272 36.5556C78.2749 36.5556 78.7202 37.001 78.7202 37.5487V44.4614C78.7202 45.0091 78.2749 45.4544 77.7272 45.4544H70.8145C70.2668 45.4544 69.8214 45.0091 69.8214 44.4614V37.5487C69.8214 37.001 70.2668 36.5556 70.8145 36.5556H77.7272Z" fill="#F5F7F4"/>
<path d="M83.3656 37.1444H129.548C129.872 37.1444 130.136 36.8808 130.136 36.5561C130.136 36.2313 129.872 35.9678 129.548 35.9678H83.3656C83.0403 35.9678 82.7773 36.2313 82.7773 36.5561C82.7773 36.8808 83.0403 37.1444 83.3656 37.1444Z" fill="#F5F7F4"/>
<path d="M83.3656 41.5936H129.548C129.872 41.5936 130.136 41.3301 130.136 41.0053C130.136 40.6806 129.872 40.417 129.548 40.417H83.3656C83.0403 40.417 82.7773 40.6806 82.7773 41.0053C82.7773 41.3301 83.0403 41.5936 83.3656 41.5936Z" fill="#F5F7F4"/>
<path d="M83.3655 46.0423H106.457C106.782 46.0423 107.045 45.7788 107.045 45.454C107.045 45.1293 106.782 44.8657 106.457 44.8657H83.3655C83.0401 44.8657 82.7772 45.1293 82.7772 45.454C82.7772 45.7788 83.0401 46.0423 83.3655 46.0423Z" fill="#F5F7F4"/>
<path d="M70.8145 66.6334H77.7272C78.9232 66.6334 79.8969 65.6603 79.8969 64.4637V57.551C79.8969 56.355 78.9238 55.3813 77.7272 55.3813H70.8145C69.6185 55.3813 68.6448 56.3544 68.6448 57.551V64.4637C68.6448 65.6603 69.6185 66.6334 70.8145 66.6334ZM77.7272 56.5586C78.2749 56.5586 78.7202 57.0039 78.7202 57.5516V64.4643C78.7202 65.012 78.2749 65.4574 77.7272 65.4574H70.8145C70.2668 65.4574 69.8214 65.012 69.8214 64.4643V57.5516C69.8214 57.0039 70.2668 56.5586 70.8145 56.5586H77.7272Z" fill="#F5F7F4"/>
<path d="M83.3656 57.1468H129.548C129.872 57.1468 130.136 56.8833 130.136 56.5585C130.136 56.2338 129.872 55.9702 129.548 55.9702H83.3656C83.0403 55.9702 82.7773 56.2338 82.7773 56.5585C82.7773 56.8833 83.0403 57.1468 83.3656 57.1468Z" fill="#F5F7F4"/>
<path d="M83.3656 61.5961H129.548C129.872 61.5961 130.136 61.3325 130.136 61.0077C130.136 60.683 129.872 60.4194 129.548 60.4194H83.3656C83.0403 60.4194 82.7773 60.683 82.7773 61.0077C82.7773 61.3325 83.0403 61.5961 83.3656 61.5961Z" fill="#F5F7F4"/>
<path d="M83.3655 66.0453H106.457C106.782 66.0453 107.045 65.7817 107.045 65.457C107.045 65.1322 106.782 64.8687 106.457 64.8687H83.3655C83.0401 64.8687 82.7772 65.1322 82.7772 65.457C82.7772 65.7817 83.0401 66.0453 83.3655 66.0453Z" fill="#F5F7F4"/>
<path d="M70.8145 86.6363H77.7272C78.9232 86.6363 79.8969 85.6633 79.8969 84.4666V77.554C79.8969 76.3579 78.9238 75.3843 77.7272 75.3843H70.8145C69.6185 75.3843 68.6448 76.3573 68.6448 77.554V84.4666C68.6448 85.6633 69.6185 86.6363 70.8145 86.6363ZM77.7272 76.5615C78.2749 76.5615 78.7202 77.0068 78.7202 77.5546V84.4672C78.7202 85.015 78.2749 85.4603 77.7272 85.4603H70.8145C70.2668 85.4603 69.8214 85.015 69.8214 84.4672V77.5546C69.8214 77.0068 70.2668 76.5615 70.8145 76.5615H77.7272Z" fill="#F5F7F4"/>
<path d="M83.3656 77.1493H129.548C129.872 77.1493 130.136 76.8863 130.136 76.561C130.136 76.2356 129.872 75.9727 129.548 75.9727H83.3656C83.0403 75.9727 82.7773 76.2356 82.7773 76.561C82.7773 76.8863 83.0403 77.1493 83.3656 77.1493Z" fill="#F5F7F4"/>
<path d="M83.3656 81.599H129.548C129.872 81.599 130.136 81.336 130.136 81.0107C130.136 80.6853 129.872 80.4224 129.548 80.4224H83.3656C83.0403 80.4224 82.7773 80.6853 82.7773 81.0107C82.7773 81.3354 83.0403 81.599 83.3656 81.599Z" fill="#F5F7F4"/>
<path d="M83.3655 86.0477H106.457C106.782 86.0477 107.045 85.7847 107.045 85.4594C107.045 85.1341 106.782 84.8711 106.457 84.8711H83.3655C83.0401 84.8711 82.7772 85.1341 82.7772 85.4594C82.7772 85.7847 83.0401 86.0477 83.3655 86.0477Z" fill="#F5F7F4"/>
<path d="M70.8145 106.638H77.7272C78.9232 106.638 79.8969 105.665 79.8969 104.469V97.5559C79.8969 96.3599 78.9238 95.3862 77.7272 95.3862H70.8145C69.6185 95.3862 68.6448 96.3593 68.6448 97.5559V104.469C68.6448 105.665 69.6185 106.638 70.8145 106.638ZM77.7272 96.5634C78.2749 96.5634 78.7202 97.0088 78.7202 97.5565V104.469C78.7202 105.017 78.2749 105.462 77.7272 105.462H70.8145C70.2668 105.462 69.8214 105.017 69.8214 104.469V97.5565C69.8214 97.0088 70.2668 96.5634 70.8145 96.5634H77.7272Z" fill="#F5F7F4"/>
<path d="M83.3656 97.1522H129.548C129.872 97.1522 130.136 96.8892 130.136 96.5639C130.136 96.2386 129.872 95.9756 129.548 95.9756H83.3656C83.0403 95.9756 82.7773 96.2386 82.7773 96.5639C82.7773 96.8892 83.0403 97.1522 83.3656 97.1522Z" fill="#F5F7F4"/>
<path d="M83.3656 101.601H129.548C129.872 101.601 130.136 101.338 130.136 101.013C130.136 100.688 129.872 100.425 129.548 100.425H83.3656C83.0403 100.425 82.7773 100.688 82.7773 101.013C82.7773 101.338 83.0403 101.601 83.3656 101.601Z" fill="#F5F7F4"/>
<path d="M83.3655 106.05H106.457C106.782 106.05 107.045 105.787 107.045 105.462C107.045 105.137 106.782 104.874 106.457 104.874H83.3655C83.0401 104.874 82.7772 105.137 82.7772 105.462C82.7772 105.787 83.0401 106.05 83.3655 106.05Z" fill="#F5F7F4"/>
<path d="M70.8145 126.641H77.7272C78.9232 126.641 79.8969 125.668 79.8969 124.472V117.559C79.8969 116.363 78.9238 115.389 77.7272 115.389H70.8145C69.6185 115.389 68.6448 116.362 68.6448 117.559V124.472C68.6448 125.668 69.6185 126.641 70.8145 126.641ZM77.7272 116.566C78.2749 116.566 78.7202 117.012 78.7202 117.559V124.472C78.7202 125.02 78.2749 125.465 77.7272 125.465H70.8145C70.2668 125.465 69.8214 125.02 69.8214 124.472V117.559C69.8214 117.012 70.2668 116.566 70.8145 116.566H77.7272Z" fill="#F5F7F4"/>
<path d="M83.3656 117.155H129.548C129.872 117.155 130.136 116.892 130.136 116.566C130.136 116.241 129.872 115.978 129.548 115.978H83.3656C83.0403 115.978 82.7773 116.241 82.7773 116.566C82.7773 116.892 83.0403 117.155 83.3656 117.155Z" fill="#F5F7F4"/>
<path d="M83.3656 121.604H129.548C129.872 121.604 130.136 121.341 130.136 121.016C130.136 120.69 129.872 120.427 129.548 120.427H83.3656C83.0403 120.427 82.7773 120.69 82.7773 121.016C82.7773 121.341 83.0403 121.604 83.3656 121.604Z" fill="#F5F7F4"/>
<path d="M83.3655 126.053H106.457C106.782 126.053 107.045 125.79 107.045 125.464C107.045 125.139 106.782 124.876 106.457 124.876H83.3655C83.0401 124.876 82.7772 125.139 82.7772 125.464C82.7772 125.79 83.0401 126.053 83.3655 126.053Z" fill="#F5F7F4"/>
<path d="M70.8145 146.644H77.7272C78.9232 146.644 79.8969 145.671 79.8969 144.474V137.561C79.8969 136.365 78.9238 135.392 77.7272 135.392H70.8145C69.6185 135.392 68.6448 136.365 68.6448 137.561V144.474C68.6448 145.671 69.6185 146.644 70.8145 146.644ZM77.7272 136.569C78.2749 136.569 78.7202 137.014 78.7202 137.562V144.475C78.7202 145.022 78.2749 145.468 77.7272 145.468H70.8145C70.2668 145.468 69.8214 145.022 69.8214 144.475V137.562C69.8214 137.014 70.2668 136.569 70.8145 136.569H77.7272Z" fill="#F5F7F4"/>
<path d="M83.3656 137.157H129.548C129.872 137.157 130.136 136.894 130.136 136.569C130.136 136.243 129.872 135.98 129.548 135.98H83.3656C83.0403 135.98 82.7773 136.243 82.7773 136.569C82.7773 136.894 83.0403 137.157 83.3656 137.157Z" fill="#F5F7F4"/>
<path d="M83.3656 141.607H129.548C129.872 141.607 130.136 141.344 130.136 141.018C130.136 140.693 129.872 140.43 129.548 140.43H83.3656C83.0403 140.43 82.7773 140.693 82.7773 141.018C82.7773 141.344 83.0403 141.607 83.3656 141.607Z" fill="#F5F7F4"/>
<path d="M83.3655 146.056H106.457C106.782 146.056 107.045 145.793 107.045 145.467C107.045 145.142 106.782 144.879 106.457 144.879H83.3655C83.0401 144.879 82.7772 145.142 82.7772 145.467C82.7772 145.793 83.0401 146.056 83.3655 146.056Z" fill="#F5F7F4"/>
<path d="M74.2709 43.0274C74.4809 43.0274 74.6921 42.9527 74.8592 42.8027L77.3577 40.5665C77.7207 40.2418 77.7519 39.684 77.4272 39.3205C77.1018 38.9575 76.5447 38.9263 76.1811 39.2516L74.2685 40.963L68.8984 36.1912C68.5342 35.8671 67.9759 35.9006 67.6529 36.2642C67.3288 36.6289 67.3623 37.1861 67.7265 37.5102L73.6849 42.805C73.852 42.9533 74.0608 43.0274 74.2709 43.0274Z" fill="#4D5B65"/>
<path d="M74.2709 63.0474C74.4809 63.0474 74.6921 62.9721 74.8592 62.8227L77.3577 60.5865C77.7207 60.2618 77.7519 59.7035 77.4272 59.3405C77.1018 58.9775 76.5447 58.9463 76.1811 59.2716L74.2685 60.9831L68.8984 56.2112C68.5342 55.8871 67.9759 55.9206 67.6529 56.2842C67.3288 56.649 67.3623 57.2061 67.7265 57.5302L73.6849 62.8251C73.852 62.9733 74.0608 63.0474 74.2709 63.0474Z" fill="#4D5B65"/>
<path d="M74.2709 102.858C74.4809 102.858 74.6921 102.783 74.8592 102.633L77.3577 100.397C77.7207 100.072 77.7519 99.5146 77.4272 99.151C77.1018 98.788 76.5447 98.7568 76.1811 99.0821L74.2685 100.794L68.8984 96.0217C68.5342 95.6976 67.9759 95.7311 67.6529 96.0953C67.3288 96.46 67.3623 97.0172 67.7265 97.3413L73.6849 102.636C73.852 102.784 74.0608 102.858 74.2709 102.858Z" fill="#4D5B65"/>
<path d="M45.3101 151.281C45.3101 151.281 43.1433 108.634 24.5997 105.563C20.5645 104.895 17.0334 108.493 18.2653 112.393C19.1902 115.32 22.1241 118.045 29.9816 117.715C29.9816 117.715 27.4589 125.743 36.2889 125.857C36.2889 125.857 30.6699 131.018 41.9079 134.228C41.9079 134.228 43.934 145.624 44.3158 151.281H45.3101Z" fill="#3F9B5D"/>
<path d="M18.2636 112.394C19.192 115.319 22.1229 118.043 29.9828 117.713C29.9828 117.713 27.4607 125.743 36.2913 125.86C36.2913 125.86 30.667 131.02 41.9096 134.226C41.9096 134.226 43.9311 145.622 44.3158 151.283H45.3113C45.3113 151.283 44.8471 142.135 42.5021 132.003C33.5556 128.791 38.5816 124.181 38.5816 124.181C29.751 124.065 32.2731 116.034 32.2731 116.034C24.4132 116.364 21.4823 113.64 20.5539 110.715C19.9856 108.913 20.4315 107.179 21.4823 105.896C18.9902 106.891 17.3717 109.56 18.2636 112.394Z" fill="#3F9B5D"/>
<path d="M44.3159 151.281C44.3159 151.281 41.5008 130.438 24.6157 134.052C21.8494 134.644 20.5422 137.911 22.5848 139.868C24.0133 141.236 26.686 141.902 31.6637 140.077C31.6637 140.077 33.3839 144.052 39.6524 141.071C39.6524 141.071 42.8175 145.615 43.5511 151.281H44.3159Z" fill="#3F9B5D"/>
<path d="M22.5873 139.869C24.0104 141.237 26.6849 141.903 31.6626 140.076C31.6626 140.076 33.3846 144.052 39.6507 141.072C39.6507 141.072 42.8206 145.615 43.553 151.283H44.316C44.316 151.283 44.2125 150.489 43.913 149.243H43.8583C43.8401 149.078 43.8154 148.913 43.7913 148.754C43.1624 146.293 41.874 142.458 39.4248 139.27C33.5929 141.792 31.9685 138.042 31.9685 138.042C26.9914 139.862 24.3164 139.202 22.8932 137.828C22.362 137.321 22.0502 136.723 21.9466 136.106C21.3536 137.316 21.4636 138.788 22.5873 139.869Z" fill="#3F9B5D"/>
<path d="M45.3102 151.281C45.3102 151.281 40.6584 112.728 58.6149 107.011C61.3146 106.151 64.1579 108.058 64.2821 110.889C64.4239 114.12 62.7883 118.235 54.7514 120.467C54.7514 120.467 60.2557 126.774 48.6736 127.462C48.6736 127.462 52.5582 132.094 45.8402 134.842C45.8402 134.842 45.3478 143.482 46.3797 151.28L45.3102 151.281Z" fill="#3F9B5D"/>
<path d="M45.3115 151.283H46.3799C45.348 143.484 45.8427 134.843 45.8427 134.843C52.5601 132.095 48.6761 127.46 48.6761 127.46C60.2546 126.776 54.7528 120.467 54.7528 120.467C62.7897 118.238 64.4264 114.122 64.2793 110.891C64.1875 108.803 62.6244 107.227 60.7312 106.879C61.5066 107.605 62.0196 108.613 62.0684 109.78C62.209 113.01 60.5723 117.127 52.5354 119.362C52.5354 119.362 58.0438 125.67 46.4587 126.354C46.4587 126.354 49.7321 130.263 45.0662 133.029C44.2731 142.697 45.3115 151.283 45.3115 151.283Z" fill="#3F9B5D"/>
<path d="M46.3803 151.281C46.3803 151.281 47.011 131.23 63.6543 127.648C67.0554 126.916 69.3168 131.195 66.6641 133.445C65.1957 134.69 62.4683 135.695 57.6182 135.949C57.6182 135.949 58.4595 140.966 49.8202 140.636C49.8202 140.636 47.4899 144.629 47.2975 151.281H46.3803Z" fill="#3F9B5D"/>
<path d="M46.3804 151.283H47.2964C47.4917 144.627 49.8185 140.639 49.8185 140.639C58.4597 140.969 57.6172 135.949 57.6172 135.949C62.4661 135.692 65.1958 134.691 66.6619 133.445C68.5733 131.827 67.938 129.164 66.1671 128.065C66.7413 129.299 66.6007 130.844 65.3306 131.918C63.8586 133.164 61.1347 134.166 56.2858 134.422C56.2858 134.422 57.0554 139.027 49.5255 139.125C46.5693 145.188 46.3804 151.283 46.3804 151.283Z" fill="#3F9B5D"/>
<path d="M44.5453 165.764H46.0743C49.9166 165.764 53.0311 162.65 53.0311 158.808V151.281H37.5879V158.808C37.5885 162.65 40.703 165.764 44.5453 165.764Z" fill="#F46E0D"/>
<path d="M37.5862 151.283V158.807C37.5862 162.648 40.7007 165.762 44.5483 165.762H46.0749C46.4903 165.762 46.8992 165.726 47.2963 165.652C44.0352 165.078 41.5555 162.232 41.5555 158.807V151.283H37.5862Z" fill="#F46E0D"/>
<path d="M6.29789 155.363H9.23945C9.64539 155.363 9.97484 155.034 9.97484 154.628C9.97484 154.222 9.64539 153.892 9.23945 153.892H6.29789C5.89195 153.892 5.5625 154.222 5.5625 154.628C5.5625 155.034 5.89195 155.363 6.29789 155.363ZM13.9459 155.363H16.8875C17.2934 155.363 17.6229 155.034 17.6229 154.628C17.6229 154.222 17.2934 153.892 16.8875 153.892H13.9459C13.54 153.892 13.2106 154.222 13.2106 154.628C13.2106 155.034 13.54 155.363 13.9459 155.363ZM21.594 155.363H24.5356C24.9415 155.363 25.271 155.034 25.271 154.628C25.271 154.222 24.9415 153.892 24.5356 153.892H21.594C21.1881 153.892 20.8586 154.222 20.8586 154.628C20.8586 155.034 21.1881 155.363 21.594 155.363ZM29.2421 155.363H32.1836C32.5896 155.363 32.919 155.034 32.919 154.628C32.919 154.222 32.5896 153.892 32.1836 153.892H29.2421C28.8361 153.892 28.5067 154.222 28.5067 154.628C28.5067 155.034 28.8361 155.363 29.2421 155.363ZM3.42103 153.534C3.82697 153.534 4.15642 153.205 4.15642 152.798V149.857C4.15642 149.451 3.82697 149.121 3.42103 149.121C3.01509 149.121 2.68564 149.451 2.68564 149.857V152.798C2.68564 153.205 3.01509 153.534 3.42103 153.534ZM3.42103 145.886C3.82697 145.886 4.15642 145.557 4.15642 145.15V142.209C4.15642 141.803 3.82697 141.473 3.42103 141.473C3.01509 141.473 2.68564 141.803 2.68564 142.209V145.15C2.68564 145.557 3.01509 145.886 3.42103 145.886ZM3.42103 138.237C3.82697 138.237 4.15642 137.909 4.15642 137.502V134.561C4.15642 134.155 3.82697 133.825 3.42103 133.825C3.01509 133.825 2.68564 134.155 2.68564 134.561V137.502C2.68564 137.909 3.01509 138.237 3.42103 138.237ZM3.42103 130.589C3.82697 130.589 4.15642 130.261 4.15642 129.854V126.912C4.15642 126.507 3.82697 126.177 3.42103 126.177C3.01509 126.177 2.68564 126.507 2.68564 126.912V129.854C2.68564 130.261 3.01509 130.589 3.42103 130.589ZM3.42103 122.941C3.82697 122.941 4.15642 122.612 4.15642 122.206V119.264C4.15642 118.858 3.82697 118.529 3.42103 118.529C3.01509 118.529 2.68564 118.858 2.68564 119.264V122.206C2.68564 122.612 3.01509 122.941 3.42103 122.941ZM3.42103 115.293C3.82697 115.293 4.15642 114.964 4.15642 114.558V111.616C4.15642 111.21 3.82697 110.881 3.42103 110.881C3.01509 110.881 2.68564 111.21 2.68564 111.616V114.558C2.68564 114.964 3.01509 115.293 3.42103 115.293ZM3.42103 107.645C3.82697 107.645 4.15642 107.316 4.15642 106.91V103.968C4.15642 103.562 3.82697 103.233 3.42103 103.233C3.01509 103.233 2.68564 103.562 2.68564 103.968V106.91C2.68564 107.316 3.01509 107.645 3.42103 107.645ZM3.42103 99.9971C3.82697 99.9971 4.15642 99.6683 4.15642 99.2618V96.3202C4.15642 95.9143 3.82697 95.5848 3.42103 95.5848C3.01509 95.5848 2.68564 95.9143 2.68564 96.3202V99.2618C2.68564 99.6683 3.01509 99.9971 3.42103 99.9971ZM3.42103 92.3491C3.82697 92.3491 4.15642 92.0202 4.15642 91.6137V88.6721C4.15642 88.2662 3.82697 87.9367 3.42103 87.9367C3.01509 87.9367 2.68564 88.2662 2.68564 88.6721V91.6137C2.68564 92.0202 3.01509 92.3491 3.42103 92.3491ZM3.42103 84.701C3.82697 84.701 4.15642 84.3722 4.15642 83.9656V81.0241C4.15642 80.6181 3.82697 80.2887 3.42103 80.2887C3.01509 80.2887 2.68564 80.6181 2.68564 81.0241V83.9656C2.68564 84.3716 3.01509 84.701 3.42103 84.701ZM3.42103 77.053C3.82697 77.053 4.15642 76.7241 4.15642 76.3176V73.376C4.15642 72.9701 3.82697 72.6406 3.42103 72.6406C3.01509 72.6406 2.68564 72.9701 2.68564 73.376V76.3176C2.68564 76.7235 3.01509 77.053 3.42103 77.053ZM3.42103 69.4049C3.82697 69.4049 4.15642 69.076 4.15642 68.6695V65.7279C4.15642 65.322 3.82697 64.9926 3.42103 64.9926C3.01509 64.9926 2.68564 65.322 2.68564 65.7279V68.6695C2.68564 69.0754 3.01509 69.4049 3.42103 69.4049ZM3.99582 62.3316H6.93739C7.34332 62.3316 7.67278 62.0022 7.67278 61.5962C7.67278 61.1903 7.34332 60.8608 6.93739 60.8608H3.99582C3.58989 60.8608 3.26043 61.1903 3.26043 61.5962C3.26043 62.0022 3.58989 62.3316 3.99582 62.3316ZM11.6439 62.3316H14.5854C14.9914 62.3316 15.3208 62.0022 15.3208 61.5962C15.3208 61.1903 14.9914 60.8608 14.5854 60.8608H11.6439C11.2379 60.8608 10.9085 61.1903 10.9085 61.5962C10.9085 62.0022 11.2379 62.3316 11.6439 62.3316ZM19.2919 62.3316H22.2335C22.6394 62.3316 22.9689 62.0022 22.9689 61.5962C22.9689 61.1903 22.6394 60.8608 22.2335 60.8608H19.2919C18.886 60.8608 18.5566 61.1903 18.5566 61.5962C18.5566 62.0022 18.886 62.3316 19.2919 62.3316ZM26.94 62.3316H29.8816C30.2875 62.3316 30.617 62.0022 30.617 61.5962C30.617 61.1903 30.2875 60.8608 29.8816 60.8608H26.94C26.5341 60.8608 26.2046 61.1903 26.2046 61.5962C26.2046 62.0022 26.5341 62.3316 26.94 62.3316ZM34.5881 62.3316H37.5296C37.9356 62.3316 38.265 62.0022 38.265 61.5962C38.265 61.1903 37.9356 60.8608 37.5296 60.8608H34.5881C34.1821 60.8608 33.8527 61.1903 33.8527 61.5962C33.8527 62.0022 34.1821 62.3316 34.5881 62.3316ZM42.2361 62.3316H45.1777C45.5836 62.3316 45.9131 62.0022 45.9131 61.5962C45.9131 61.1903 45.5836 60.8608 45.1777 60.8608H42.2361C41.8302 60.8608 41.5007 61.1903 41.5007 61.5962C41.5007 62.0022 41.8302 62.3316 42.2361 62.3316Z" fill="#F46E0D"/>
<path d="M3.42113 64.6358C1.74229 64.6358 0.381326 63.2748 0.381326 61.596C0.381326 59.9171 1.74229 58.5562 3.42113 58.5562C5.09997 58.5562 6.46094 59.9171 6.46094 61.596C6.46094 63.2748 5.09997 64.6358 3.42113 64.6358Z" fill="#F46E0D"/>
<path d="M3.42113 158.031C1.74229 158.031 0.381326 156.67 0.381326 154.991C0.381326 153.312 1.74229 151.951 3.42113 151.951C5.09997 151.951 6.46094 153.312 6.46094 154.991C6.46094 156.67 5.09997 158.031 3.42113 158.031Z" fill="#F46E0D"/>
<path d="M19.8422 101.748C20.2481 101.748 20.5776 101.419 20.5776 101.013V99.6575C20.5776 99.2516 20.2481 98.9221 19.8422 98.9221C19.4362 98.9221 19.1068 99.2516 19.1068 99.6575V101.013C19.1068 101.419 19.4357 101.748 19.8422 101.748ZM19.8422 95.6864C20.2481 95.6864 20.5776 95.3569 20.5776 94.951V92.0094C20.5776 91.6035 20.2481 91.274 19.8422 91.274C19.4362 91.274 19.1068 91.6035 19.1068 92.0094V94.951C19.1068 95.3569 19.4357 95.6864 19.8422 95.6864ZM19.8422 88.0383C20.2481 88.0383 20.5776 87.7089 20.5776 87.3029V84.3614C20.5776 83.9549 20.2481 83.626 19.8422 83.626C19.4362 83.626 19.1068 83.9549 19.1068 84.3614V87.3029C19.1068 87.7089 19.4357 88.0383 19.8422 88.0383ZM19.8422 80.3903C20.2481 80.3903 20.5776 80.0608 20.5776 79.6549V76.7133C20.5776 76.3068 20.2481 75.9779 19.8422 75.9779C19.4362 75.9779 19.1068 76.3068 19.1068 76.7133V79.6549C19.1068 80.0608 19.4357 80.3903 19.8422 80.3903ZM19.8422 72.7422C20.2481 72.7422 20.5776 72.4128 20.5776 72.0068V69.0653C20.5776 68.6587 20.2481 68.3299 19.8422 68.3299C19.4362 68.3299 19.1068 68.6587 19.1068 69.0653V72.0068C19.1068 72.4128 19.4357 72.7422 19.8422 72.7422ZM19.8422 65.0941C20.2481 65.0941 20.5776 64.7647 20.5776 64.3588V61.4172C20.5776 61.0107 20.2481 60.6818 19.8422 60.6818C19.4362 60.6818 19.1068 61.0107 19.1068 61.4172V64.3588C19.1068 64.7647 19.4357 65.0941 19.8422 65.0941ZM19.8422 57.4461C20.2481 57.4461 20.5776 57.1166 20.5776 56.7107V53.7691C20.5776 53.3626 20.2481 53.0337 19.8422 53.0337C19.4362 53.0337 19.1068 53.3626 19.1068 53.7691V56.7107C19.1068 57.1166 19.4357 57.4461 19.8422 57.4461ZM19.8422 49.798C20.2481 49.798 20.5776 49.4686 20.5776 49.0626V46.1211C20.5776 45.7145 20.2481 45.3857 19.8422 45.3857C19.4362 45.3857 19.1068 45.7145 19.1068 46.1211V49.0626C19.1068 49.4686 19.4357 49.798 19.8422 49.798ZM45.312 42.3288C45.7103 42.3288 46.0374 42.0105 46.0468 41.6105C46.0562 41.2045 45.7344 40.8674 45.3279 40.8586L42.3869 40.791C41.9739 40.768 41.6439 41.1033 41.635 41.5093C41.6256 41.9152 41.9474 42.2523 42.354 42.2611L45.2949 42.3288C45.3002 42.3288 45.3061 42.3288 45.312 42.3288ZM37.6657 42.1517C38.064 42.1517 38.3911 41.8334 38.4005 41.4334C38.4099 41.0275 38.0881 40.6904 37.6822 40.6815L34.7406 40.6139C34.3394 40.6062 33.9976 40.9263 33.9887 41.3322C33.9793 41.7381 34.3011 42.0752 34.7071 42.0841L37.6486 42.1517C37.6545 42.1517 37.6604 42.1517 37.6657 42.1517ZM19.8422 42.15C20.1252 42.15 20.3705 41.9899 20.4934 41.7558L22.356 41.7987C22.7484 41.8176 23.0997 41.4869 23.1085 41.0804C23.1179 40.6745 22.7961 40.3374 22.3902 40.3285L19.8586 40.2697C19.6586 40.2609 19.4692 40.3403 19.3274 40.4786C19.1862 40.6168 19.1062 40.8068 19.1062 41.0045V41.414C19.1068 41.8205 19.4357 42.15 19.8422 42.15ZM30.0194 41.9752C30.4177 41.9752 30.7448 41.657 30.7542 41.2569C30.7636 40.851 30.4418 40.5139 30.0353 40.505L27.0949 40.4374C27.0884 40.4368 27.0825 40.4368 27.0772 40.4368C26.6789 40.4368 26.3519 40.7551 26.3424 41.1551C26.333 41.5611 26.6548 41.8982 27.0614 41.907L30.0017 41.9746C30.0082 41.9752 30.0141 41.9752 30.0194 41.9752Z" fill="#3F9B5D"/>
<path d="M20.3845 44.044C22.063 44.044 23.4243 42.6832 23.4243 41.0042C23.4243 39.3251 22.0636 37.9644 20.3845 37.9644C18.7061 37.9644 17.3447 39.3251 17.3447 41.0042C17.3447 42.6832 18.7055 44.044 20.3845 44.044Z" fill="#3F9B5D"/>
<path d="M177.106 50.2115C177.512 50.2115 177.842 49.8821 177.842 49.4761V46.5346C177.842 46.1286 177.512 45.7992 177.106 45.7992C176.7 45.7992 176.371 46.1286 176.371 46.5346V49.4761C176.371 49.8821 176.7 50.2115 177.106 50.2115ZM177.106 42.5634C177.512 42.5634 177.842 42.234 177.842 41.8281V38.8865C177.842 38.4806 177.512 38.1511 177.106 38.1511C176.7 38.1511 176.371 38.4806 176.371 38.8865V41.8281C176.371 42.234 176.7 42.5634 177.106 42.5634ZM177.106 34.9154C177.512 34.9154 177.842 34.5859 177.842 34.18V31.2384C177.842 30.8325 177.512 30.503 177.106 30.503C176.7 30.503 176.371 30.8325 176.371 31.2384V34.18C176.371 34.5859 176.7 34.9154 177.106 34.9154ZM177.106 27.2673C177.512 27.2673 177.842 26.9379 177.842 26.5319V23.5904C177.842 23.1844 177.512 22.855 177.106 22.855C176.7 22.855 176.371 23.1844 176.371 23.5904V26.5319C176.371 26.9379 176.7 27.2673 177.106 27.2673ZM177.106 19.6193C177.512 19.6193 177.842 19.2898 177.842 18.8839V15.9423C177.842 15.5364 177.512 15.2069 177.106 15.2069C176.7 15.2069 176.371 15.5364 176.371 15.9423V18.8839C176.371 19.2898 176.7 19.6193 177.106 19.6193ZM177.106 11.9712C177.512 11.9712 177.842 11.6417 177.842 11.2358V8.29424C177.842 7.88831 177.512 7.55885 177.106 7.55885C176.7 7.55885 176.371 7.88831 176.371 8.29424V11.2358C176.371 11.6417 176.7 11.9712 177.106 11.9712ZM127.02 5.57918H129.962C130.368 5.57918 130.697 5.24972 130.697 4.84379C130.697 4.43727 130.368 4.1084 129.962 4.1084H127.02C126.614 4.1084 126.285 4.43727 126.285 4.84379C126.285 5.24972 126.614 5.57918 127.02 5.57918ZM134.668 5.57918H137.61C138.016 5.57918 138.345 5.24972 138.345 4.84379C138.345 4.43727 138.016 4.1084 137.61 4.1084H134.668C134.262 4.1084 133.933 4.43727 133.933 4.84379C133.933 5.24972 134.262 5.57918 134.668 5.57918ZM142.316 5.57918H145.258C145.664 5.57918 145.993 5.24972 145.993 4.84379C145.993 4.43727 145.664 4.1084 145.258 4.1084H142.316C141.91 4.1084 141.581 4.43727 141.581 4.84379C141.581 5.24972 141.91 5.57918 142.316 5.57918ZM149.964 5.57918H152.906C153.312 5.57918 153.641 5.24972 153.641 4.84379C153.641 4.43727 153.312 4.1084 152.906 4.1084H149.964C149.559 4.1084 149.229 4.43727 149.229 4.84379C149.229 5.24972 149.559 5.57918 149.964 5.57918ZM157.613 5.57918H160.554C160.96 5.57918 161.289 5.24972 161.289 4.84379C161.289 4.43727 160.96 4.1084 160.554 4.1084H157.613C157.207 4.1084 156.877 4.43727 156.877 4.84379C156.877 5.24972 157.207 5.57918 157.613 5.57918ZM165.261 5.57918H168.202C168.608 5.57918 168.938 5.24972 168.938 4.84379C168.938 4.43727 168.608 4.1084 168.202 4.1084H165.261C164.855 4.1084 164.525 4.43727 164.525 4.84379C164.525 5.24972 164.855 5.57918 165.261 5.57918ZM172.909 5.57918H175.85C176.256 5.57918 176.586 5.24972 176.586 4.84379C176.586 4.43727 176.256 4.1084 175.85 4.1084H172.909C172.503 4.1084 172.173 4.43727 172.173 4.84379C172.173 5.24972 172.503 5.57918 172.909 5.57918Z" fill="#F46E0D"/>
<path d="M177.106 7.88333C178.785 7.88333 180.146 6.52256 180.146 4.84352C180.146 3.16507 178.785 1.80371 177.106 1.80371C175.428 1.80371 174.066 3.16448 174.066 4.84352C174.067 6.52256 175.428 7.88333 177.106 7.88333Z" fill="#F46E0D"/>
<path d="M158.75 26.0509H160.221C160.627 26.0509 160.956 25.722 160.956 25.3155C160.956 24.9095 160.627 24.5801 160.221 24.5801H158.75C158.344 24.5801 158.015 24.9095 158.015 25.3155C158.015 25.7214 158.344 26.0509 158.75 26.0509Z" fill="#3F9B5D"/>
<path d="M164.615 26.0509H167.36C167.766 26.0509 168.096 25.722 168.096 25.3155C168.096 24.9095 167.766 24.5801 167.36 24.5801H164.615C164.208 24.5801 163.879 24.9095 163.879 25.3155C163.879 25.7214 164.208 26.0509 164.615 26.0509ZM171.753 26.0509H174.499C174.905 26.0509 175.235 25.722 175.235 25.3155C175.235 24.9095 174.905 24.5801 174.499 24.5801H171.753C171.347 24.5801 171.018 24.9095 171.018 25.3155C171.018 25.7214 171.347 26.0509 171.753 26.0509ZM178.892 26.0509H181.638C182.044 26.0509 182.373 25.722 182.373 25.3155C182.373 24.9095 182.044 24.5801 181.638 24.5801H178.892C178.486 24.5801 178.157 24.9095 178.157 25.3155C178.157 25.7214 178.486 26.0509 178.892 26.0509ZM186.032 26.0509H188.777C189.183 26.0509 189.513 25.722 189.513 25.3155C189.513 24.9095 189.183 24.5801 188.777 24.5801H186.032C185.625 24.5801 185.296 24.9095 185.296 25.3155C185.296 25.7214 185.626 26.0509 186.032 26.0509ZM193.171 26.0509H195.916C196.322 26.0509 196.652 25.722 196.652 25.3155C196.652 24.9095 196.322 24.5801 195.916 24.5801H193.171C192.765 24.5801 192.435 24.9095 192.435 25.3155C192.435 25.7214 192.765 26.0509 193.171 26.0509Z" fill="#3F9B5D"/>
<path d="M201.781 27.5216C202.187 27.5216 202.516 27.1928 202.516 26.7863V25.3155C202.516 24.9095 202.187 24.5801 201.781 24.5801H200.31C199.904 24.5801 199.574 24.9095 199.574 25.3155C199.574 25.722 199.904 26.0509 200.31 26.0509H201.045V26.7863C201.045 27.1922 201.375 27.5216 201.781 27.5216Z" fill="#3F9B5D"/>
<path d="M201.781 57.673C202.187 57.673 202.516 57.3435 202.516 56.9376V54.0384C202.516 53.6319 202.187 53.303 201.781 53.303C201.375 53.303 201.045 53.6319 201.045 54.0384V56.9376C201.045 57.3441 201.375 57.673 201.781 57.673ZM201.781 50.1355C202.187 50.1355 202.516 49.8061 202.516 49.4001V46.5009C202.516 46.095 202.187 45.7655 201.781 45.7655C201.375 45.7655 201.045 46.095 201.045 46.5009V49.4001C201.045 49.8061 201.375 50.1355 201.781 50.1355ZM201.781 42.5975C202.187 42.5975 202.516 42.268 202.516 41.8621V38.9629C202.516 38.557 202.187 38.2275 201.781 38.2275C201.375 38.2275 201.045 38.557 201.045 38.9629V41.8621C201.045 42.268 201.375 42.5975 201.781 42.5975ZM201.781 35.0594C202.187 35.0594 202.516 34.7306 202.516 34.324V31.4248C202.516 31.0189 202.187 30.6895 201.781 30.6895C201.375 30.6895 201.045 31.0189 201.045 31.4248V34.324C201.045 34.73 201.375 35.0594 201.781 35.0594Z" fill="#3F9B5D"/>
<path d="M201.781 63.7824C202.187 63.7824 202.516 63.4529 202.516 63.047V61.5762C202.516 61.1697 202.187 60.8408 201.781 60.8408C201.375 60.8408 201.045 61.1697 201.045 61.5762V63.047C201.045 63.4535 201.375 63.7824 201.781 63.7824Z" fill="#3F9B5D"/>
<path d="M201.781 29.1607C203.459 29.1607 204.82 27.7999 204.82 26.1209C204.82 24.4418 203.46 23.0811 201.781 23.0811C200.102 23.0811 198.741 24.4418 198.741 26.1209C198.741 27.7999 200.102 29.1607 201.781 29.1607Z" fill="#3F9B5D"/>
<path d="M160.223 35.6633H161.544V34.3432C161.544 33.9566 161.857 33.6431 162.244 33.6431C162.63 33.6431 162.944 33.9566 162.944 34.3432V35.6633H164.264C164.65 35.6633 164.964 35.9769 164.964 36.3634C164.964 36.7499 164.65 37.0635 164.264 37.0635H162.944V38.3837C162.944 38.7702 162.63 39.0838 162.244 39.0838C161.857 39.0838 161.544 38.7702 161.544 38.3837V37.0635H160.223C159.837 37.0635 159.523 36.7499 159.523 36.3634C159.523 35.9769 159.837 35.6633 160.223 35.6633Z" fill="#C2C4C1"/>
<path d="M199.76 4.14341H201.08V2.82265C201.08 2.43613 201.394 2.12256 201.78 2.12256C202.167 2.12256 202.48 2.43613 202.48 2.82265V4.14282H203.801C204.187 4.14282 204.501 4.45639 204.501 4.84292C204.501 5.22944 204.187 5.543 203.801 5.543H202.48V6.86318C202.48 7.2497 202.167 7.56327 201.78 7.56327C201.394 7.56327 201.08 7.2497 201.08 6.86318V5.543H199.76C199.373 5.543 199.06 5.22944 199.06 4.84292C199.06 4.45698 199.373 4.14341 199.76 4.14341Z" fill="#C2C4C1"/>
<path d="M35.9735 84.0589H37.2943V82.7382C37.2943 82.3516 37.6079 82.0381 37.9944 82.0381C38.3809 82.0381 38.6945 82.3516 38.6945 82.7382V84.0589H40.0152C40.4018 84.0589 40.7153 84.3725 40.7153 84.759C40.7153 85.1456 40.4018 85.4591 40.0152 85.4591H38.6945V86.7799C38.6945 87.1664 38.3809 87.48 37.9944 87.48C37.6079 87.48 37.2943 87.1664 37.2943 86.7799V85.4591H35.9735C35.587 85.4591 35.2734 85.1456 35.2734 84.759C35.2734 84.3725 35.587 84.0589 35.9735 84.0589Z" fill="#C2C4C1"/>
<path d="M0.700097 42.6439H2.02086V41.3231C2.02086 40.9366 2.33443 40.623 2.72095 40.623C3.10747 40.623 3.42104 40.9366 3.42104 41.3231V42.6439H4.7418C5.12832 42.6439 5.44189 42.9575 5.44189 43.344C5.44189 43.7305 5.12832 44.0441 4.7418 44.0441H3.42104V45.3648C3.42104 45.7514 3.10747 46.0649 2.72095 46.0649C2.33443 46.0649 2.02086 45.7514 2.02086 45.3648V44.0441H0.700097C0.313576 44.0441 3.8147e-06 43.7305 3.8147e-06 43.344C3.8147e-06 42.9575 0.313576 42.6439 0.700097 42.6439Z" fill="#C2C4C1"/>
<path d="M69.3481 2.69035H71.106V0.932475C71.106 0.417701 71.5237 0 72.0384 0C72.5532 0 72.9709 0.417701 72.9709 0.932475V2.69035H74.7288C75.2436 2.69035 75.6613 3.10747 75.6613 3.62283C75.6613 4.1376 75.2436 4.5553 74.7288 4.5553H72.9709V6.31318C72.9709 6.82796 72.5532 7.24566 72.0384 7.24566C71.5237 7.24566 71.106 6.82855 71.106 6.31318V4.5553H69.3481C68.8333 4.5553 68.4156 4.13819 68.4156 3.62283C68.4156 3.10805 68.8333 2.69035 69.3481 2.69035Z" fill="#C2C4C1"/>
<path d="M10.555 142.338H12.3129V140.58C12.3129 140.066 12.7306 139.648 13.2453 139.648C13.7601 139.648 14.1778 140.065 14.1778 140.58V142.338H15.9357C16.4505 142.338 16.8682 142.755 16.8682 143.271C16.8682 143.786 16.4505 144.203 15.9357 144.203H14.1778V145.961C14.1778 146.476 13.7601 146.894 13.2453 146.894C12.7306 146.894 12.3129 146.476 12.3129 145.961V144.203H10.555C10.0402 144.203 9.62252 143.786 9.62252 143.271C9.62252 142.755 10.0402 142.338 10.555 142.338Z" fill="#C2C4C1"/>
<path d="M229.252 69.2826H231.01V67.5248C231.01 67.01 231.427 66.5923 231.942 66.5923C232.457 66.5923 232.875 67.01 232.875 67.5248V69.2826H234.633C235.147 69.2826 235.565 69.7003 235.565 70.2151C235.565 70.7299 235.148 71.1476 234.633 71.1476H232.875V72.9055C232.875 73.4202 232.458 73.8379 231.942 73.8379C231.427 73.8379 231.01 73.4202 231.01 72.9055V71.1476H229.252C228.737 71.1476 228.319 70.7299 228.319 70.2151C228.319 69.7003 228.737 69.2826 229.252 69.2826Z" fill="#C2C4C1"/>
<path d="M218.768 151.044H220.088V149.723C220.088 149.337 220.402 149.023 220.789 149.023C221.175 149.023 221.489 149.337 221.489 149.723V151.044H222.809C223.195 151.044 223.509 151.357 223.509 151.744C223.509 152.13 223.195 152.444 222.809 152.444H221.489V153.765C221.489 154.151 221.175 154.465 220.789 154.465C220.402 154.465 220.088 154.151 220.088 153.765V152.444H218.768C218.382 152.444 218.068 152.13 218.068 151.744C218.068 151.357 218.382 151.044 218.768 151.044Z" fill="#C2C4C1"/>
<path d="M157.608 110.638L146.655 98.3902C145.852 97.4925 145.859 96.1317 146.673 95.2428C147.559 94.2744 149.068 94.222 150.02 95.1269L158.751 103.43L157.608 110.638Z" fill="#F46E0D"/>
<path d="M146.656 98.3871L157.61 110.636L157.957 108.435L147.485 96.7222C147.056 96.2398 146.862 95.6279 146.897 95.0278C146.821 95.0925 146.744 95.1631 146.674 95.2396C145.862 96.1339 145.85 97.4929 146.656 98.3871Z" fill="#F46E0D"/>
<path d="M167.434 89.4351L156.751 106.653C156.013 107.842 156.216 109.386 157.236 110.345C158.509 111.542 160.538 111.371 161.593 109.978L169.58 99.434L167.434 89.4351Z" fill="#C4C6C3"/>
<path d="M156.316 108.101C156.281 108.924 156.598 109.748 157.234 110.348C157.804 110.883 158.528 111.142 159.246 111.142C160.134 111.142 161.011 110.748 161.593 109.977L169.582 99.4349L169.023 96.8228L168.7 97.2287L160.711 107.771C160.128 108.542 159.252 108.936 158.363 108.936C157.646 108.936 156.922 108.677 156.351 108.142C156.339 108.13 156.322 108.118 156.316 108.101Z" fill="#ACADAC"/>
<path d="M149.635 94.8304C149.635 94.8304 149.359 88.4861 146.876 86.1917C146.255 85.6186 145.35 85.4416 144.568 85.7616C144.556 85.7663 144.545 85.771 144.534 85.7757C143.768 86.0999 143.271 86.8517 143.221 87.6818C143.101 89.6821 143.037 95.9312 146.655 98.3903L149.635 94.8304Z" fill="#F46E0D"/>
<path d="M146.655 98.387L147.738 97.0927C144.608 94.4277 144.673 88.6563 144.79 86.7502C144.814 86.3384 144.949 85.9442 145.173 85.6147C144.967 85.6324 144.761 85.6795 144.567 85.7618C144.555 85.7677 144.543 85.7677 144.532 85.7736C143.767 86.0972 143.273 86.8502 143.22 87.6797C143.102 89.68 143.037 95.9279 146.655 98.387Z" fill="#F46E0D"/>
<path d="M189.78 111.034L206.1 112.952C207.297 113.092 208.405 112.303 208.664 111.127C208.947 109.844 208.122 108.58 206.835 108.322L192.556 105.753L189.78 111.034Z" fill="#F46E0D"/>
<path d="M189.779 111.036L206.099 112.954C207.299 113.095 208.405 112.301 208.664 111.124C208.699 110.954 208.717 110.783 208.717 110.618C208.717 110.318 208.658 110.03 208.552 109.759C208.17 110.736 207.169 111.348 206.099 111.224L190.638 109.406L189.779 111.036Z" fill="#F46E0D"/>
<path d="M182.43 89.4351L193.113 106.653C193.851 107.842 193.648 109.386 192.628 110.345C191.355 111.542 189.326 111.371 188.271 109.978L180.284 99.434L182.43 89.4351Z" fill="#C4C6C3"/>
<path d="M180.284 99.4345L188.273 109.977C188.855 110.748 189.732 111.142 190.62 111.142C191.338 111.142 192.056 110.883 192.626 110.348C193.121 109.889 193.421 109.289 193.515 108.653C192.997 108.965 192.415 109.118 191.832 109.118C190.838 109.118 189.85 108.671 189.191 107.806L180.848 96.793L180.284 99.4345Z" fill="#ACADAC"/>
<path d="M205.536 110.745C205.536 112.629 206.85 114.156 208.472 114.156C210.093 114.156 211.408 112.629 211.408 110.745C211.408 108.86 210.094 107.333 208.472 107.333C206.851 107.333 205.536 108.86 205.536 110.745Z" fill="#F46E0D"/>
<path d="M207.675 114.025C207.928 114.107 208.193 114.154 208.469 114.154C210.093 114.154 211.405 112.63 211.405 110.742C211.405 108.859 210.093 107.33 208.469 107.33C208.193 107.33 207.928 107.377 207.675 107.459C208.911 107.859 209.817 109.183 209.817 110.742C209.817 112.307 208.911 113.625 207.675 114.025Z" fill="#F46E0D"/>
<path d="M165.114 119.019H184.633L183.882 94.0326C183.748 89.5679 180.09 86.0181 175.623 86.0181H174.125C169.658 86.0181 166 89.5679 165.865 94.0326L165.114 119.019Z" fill="#C4C6C3"/>
<path d="M172.7 86.1445C176.495 86.8035 179.413 90.0568 179.531 94.0338L180.284 119.019H184.631L183.884 94.0338C183.749 89.5685 180.089 86.021 175.624 86.021H174.124C173.636 86.021 173.159 86.0622 172.7 86.1445Z" fill="#ACADAC"/>
<path d="M172.642 81.0088V86.0506C172.642 87.2861 173.642 88.2862 174.871 88.2862C176.107 88.2862 177.107 87.2861 177.107 86.0506V81.0088H172.642Z" fill="#F46E0D"/>
<path d="M172.642 81.0088V83.1973C173.4 83.4444 174.206 83.5797 175.048 83.5797C175.76 83.5797 176.454 83.4856 177.107 83.3032V81.0088H172.642Z" fill="#F46E0D"/>
<path d="M164.662 64.8247H167.301V70.8431H164.662V64.8247Z" fill="#1E2139"/>
<path d="M169.077 58.0661C170.705 58.0661 172.123 58.9497 172.889 60.2611L173.1 60.0081C175.068 57.6519 177.979 56.2905 181.048 56.2905C184.122 56.2905 186.614 58.782 186.614 61.856C186.614 63.4956 185.284 64.8252 183.645 64.8252H173.492H169.076H164.661V62.4819C164.662 60.0428 166.638 58.0661 169.077 58.0661Z" fill="#1E2139"/>
<path d="M164.664 62.8764V64.8237H183.643C184.461 64.8237 185.208 64.4943 185.743 63.953C186.284 63.4176 186.614 62.6705 186.614 61.8527C186.614 61.4644 186.573 61.082 186.496 60.7173C186.361 61.2115 186.102 61.6527 185.743 62.0057C185.208 62.5411 184.461 62.8764 183.643 62.8764H164.664Z" fill="#1E2139"/>
<path d="M175.046 82.2882C179.323 82.2882 182.791 78.8207 182.791 74.543V64.8247H167.301V74.543C167.301 78.8207 170.768 82.2882 175.046 82.2882Z" fill="#F46E0D"/>
<path d="M173.92 82.2079C174.285 82.2608 174.661 82.2902 175.044 82.2902C179.321 82.2902 182.792 78.8192 182.792 74.5422V64.8232H180.538V74.5422C180.538 78.4368 177.662 81.6601 173.92 82.2079Z" fill="#F46E0D"/>
<path d="M165.426 75.4309H167.301V70.8433H165.426C164.159 70.8433 163.132 71.8705 163.132 73.1371C163.132 74.4043 164.159 75.4309 165.426 75.4309Z" fill="#F46E0D"/>
<path d="M163.13 73.1363C163.13 73.7716 163.389 74.3423 163.801 74.76C164.219 75.1777 164.789 75.4307 165.425 75.4307H167.301V74.4364H165.425C164.789 74.4364 164.219 74.1776 163.801 73.7658C163.501 73.4657 163.283 73.0774 163.189 72.6421C163.148 72.8003 163.13 72.9651 163.13 73.1363Z" fill="#F46E0D"/>
<path d="M165.113 119.019L163.707 161.133H171.151L175.452 119.019H165.113Z" fill="#3F9B5D"/>
<path d="M167.035 161.132H171.153L175.454 119.019H171.336L167.035 161.132Z" fill="#3F9B5D"/>
<path d="M171.151 161.133V164.207C171.151 165.067 170.454 165.765 169.593 165.765H158.105C157.362 165.765 156.759 165.163 156.759 164.419C156.759 163.84 157.13 163.325 157.679 163.142L163.706 161.133H171.151Z" fill="#1E2139"/>
<path d="M165.476 165.763H169.594C170.453 165.763 171.153 165.069 171.153 164.21V161.133H167.035V164.21C167.035 165.069 166.335 165.763 165.476 165.763Z" fill="#1E2139"/>
<path d="M174.725 128.63H175.022C180.33 128.63 184.632 124.327 184.632 119.02H165.113C165.113 124.327 169.416 128.63 174.725 128.63Z" fill="#3F9B5D"/>
<path d="M185.559 135.882L187.549 159.766L181.325 161.133L178.168 137.131L185.559 135.882Z" fill="#3F9B5D"/>
<path d="M184.633 119.019L185.633 137.212C185.737 139.115 184.347 140.772 182.456 141C180.704 141.211 179.056 140.128 178.555 138.437L172.806 119.019H184.633Z" fill="#3F9B5D"/>
<path d="M184.631 119.019L185.561 135.88L187.549 159.767L183.649 160.62L182.113 141.022L181.743 137.516L181.707 137.521L181.631 136.545L180.284 119.019H184.631Z" fill="#3F9B5D"/>
<path d="M181.324 161.134V164.132C181.324 165.034 182.055 165.766 182.958 165.766H192.97C194.167 165.766 195.004 164.58 194.602 163.452C194.442 163.002 194.102 162.638 193.665 162.446L187.549 159.767L181.324 161.134Z" fill="#1E2139"/>
<path d="M187.096 165.763H192.968C194.168 165.763 195.003 164.58 194.603 163.451C194.444 163.004 194.103 162.639 193.668 162.445L187.549 159.768L183.637 160.627L187.791 162.445C188.232 162.639 188.567 163.004 188.732 163.451C189.132 164.58 188.297 165.763 187.096 165.763Z" fill="#1E2139"/>
<path d="M199.077 83.8961L213.075 86.4062L200.439 156.879L186.44 154.368L199.077 83.8961Z" fill="#1E2139"/>
<path d="M196.421 156.163L200.445 156.881L213.082 86.4072L209.052 85.6836L196.421 156.163Z" fill="#1E2139"/>
<path d="M209.069 73.6332L207.281 73.3126L207.845 70.1669C207.934 69.6733 208.406 69.345 208.899 69.4333C209.393 69.5215 209.721 69.9934 209.633 70.4869L209.069 73.6332Z" fill="#505D66"/>
<path d="M204.807 151.99L208.925 129.019C209.146 127.785 210.326 126.964 211.559 127.185C212.793 127.407 213.614 128.586 213.393 129.82L209.027 154.168C208.623 156.426 206.464 157.929 204.205 157.524L203.827 157.456L200.451 156.851L201.184 152.762L203.182 153.121C203.943 153.256 204.67 152.751 204.807 151.99Z" fill="#1E2139"/>
<path d="M203.94 157.475L204.204 157.522C204.451 157.569 204.699 157.587 204.946 157.587C206.916 157.587 208.67 156.181 209.029 154.169L213.394 129.819C213.417 129.683 213.429 129.548 213.429 129.419C213.429 128.472 212.841 127.624 211.958 127.295C211.976 127.407 211.982 127.518 211.982 127.63C211.982 127.771 211.964 127.913 211.941 128.06L207.299 153.951C206.975 155.752 205.616 157.099 203.94 157.475Z" fill="#1E2139"/>
<path d="M191.671 165.53C195.537 166.223 199.232 163.651 199.925 159.786L200.815 154.822L186.817 152.312L185.927 157.276C185.234 161.142 187.805 164.837 191.671 165.53Z" fill="#505D66"/>
<path d="M189.656 164.841C190.273 165.165 190.95 165.4 191.673 165.529C195.539 166.224 199.233 163.653 199.927 159.788L200.816 154.822L196.874 154.116L196.056 158.664C195.468 161.97 192.815 164.394 189.656 164.841Z" fill="#455259"/>
<path d="M186.794 154.434L200.098 156.819C201.235 157.024 202.323 156.266 202.527 155.129C202.732 153.991 201.974 152.903 200.837 152.7L187.533 150.314C186.395 150.11 185.308 150.868 185.104 152.005C184.9 153.143 185.656 154.23 186.794 154.434Z" fill="#C4C6C3"/>
<path d="M196.468 156.169L200.098 156.822C201.233 157.022 202.322 156.269 202.528 155.128C202.551 155.004 202.563 154.875 202.563 154.757C202.563 153.763 201.851 152.88 200.839 152.698L197.203 152.045C197.868 152.445 198.292 153.174 198.292 153.969C198.292 154.098 198.28 154.228 198.256 154.363C198.086 155.304 197.356 156.004 196.468 156.169Z" fill="#ACADAC"/>
<path d="M199.081 83.8993L207.282 73.312L209.068 73.6326L213.08 86.4084L199.081 83.8993Z" fill="#C4C6C3"/>
<path d="M206.387 74.47L209.052 85.6832L213.082 86.4069L209.07 73.6346L207.281 73.311L206.387 74.47Z" fill="#ACADAC"/>
<path d="M205.536 110.745C205.536 112.629 206.85 114.156 208.472 114.156C210.093 114.156 211.408 112.629 211.408 110.745C211.408 108.86 210.094 107.333 208.472 107.333C206.851 107.333 205.536 108.86 205.536 110.745Z" fill="#F46E0D"/>
<path d="M207.675 114.025C207.928 114.107 208.193 114.154 208.469 114.154C210.093 114.154 211.405 112.63 211.405 110.742C211.405 108.859 210.093 107.33 208.469 107.33C208.193 107.33 207.928 107.377 207.675 107.459C208.911 107.859 209.817 109.183 209.817 110.742C209.817 112.307 208.911 113.625 207.675 114.025Z" fill="#F46E0D"/>
</svg>
