<svg width="69" height="53" viewBox="0 0 69 53" fill="none" xmlns="http://www.w3.org/2000/svg">
<mask id="mask0_180_687" style="mask-type:luminance" maskUnits="userSpaceOnUse" x="0" y="0" width="69" height="53">
<path d="M68.0283 0.105469V51.9414H0.105469V0.105469H68.0283Z" fill="white" stroke="white" stroke-width="0.210394"/>
</mask>
<g mask="url(#mask0_180_687)">
<path d="M37.0282 4.8333V10.8155H51.3046L63.2863 26.2096V40.5616H56.7995C56.7995 44.2303 53.8252 47.203 50.1581 47.203C46.491 47.203 43.5167 44.2287 43.5167 40.5616H26.9877C26.9877 44.2303 24.0134 47.203 20.3463 47.203C16.6792 47.203 13.7049 44.2287 13.7049 40.5616H4.84868V4.8333H37.0299M41.744 0.118347H0.13208V45.2766H10.0132C11.8073 49.1927 15.762 51.9179 20.3447 51.9179C24.9273 51.9179 28.882 49.191 30.6761 45.2766H39.8266C41.6207 49.1927 45.5755 51.9179 50.1581 51.9179C54.7407 51.9179 58.6955 49.191 60.4896 45.2766H68.0029V24.5914L67.0093 23.3134L55.0267 7.91935L53.6115 6.10059H41.744V0.118347Z" fill="white"/>
<path d="M37.0282 4.8333V10.8155H51.3046L63.2863 26.2096V40.5616H56.7995C56.7995 44.2303 53.8252 47.203 50.1581 47.203C46.491 47.203 43.5167 44.2287 43.5167 40.5616H26.9877C26.9877 44.2303 24.0134 47.203 20.3463 47.203C16.6792 47.203 13.7049 44.2287 13.7049 40.5616H4.84868V4.8333H37.0299M41.744 0.118347H0.13208V45.2766H10.0132C11.8073 49.1927 15.762 51.9179 20.3447 51.9179C24.9273 51.9179 28.882 49.191 30.6761 45.2766H39.8266C41.6207 49.1927 45.5755 51.9179 50.1581 51.9179C54.7407 51.9179 58.6955 49.191 60.4896 45.2766H68.0029V24.5914L67.0093 23.3134L55.0267 7.91935L53.6115 6.10059H41.744V0.118347Z" stroke="#1E2139" stroke-width="0.235737" stroke-miterlimit="10"/>
</g>
<path d="M4.84717 4.83325H37.0284V40.5616H4.84717V4.83325Z" fill="white" stroke="#1E2139" stroke-width="1.93829" stroke-linecap="round" stroke-linejoin="round"/>
<path d="M63.2867 40.5615H37.0286V10.8163H51.3049L63.2867 26.2095V40.5615Z" fill="white" stroke="#1E2139" stroke-width="1.93829" stroke-linecap="round" stroke-linejoin="round"/>
<path d="M20.3452 34.0257C20.5595 34.0257 20.7732 34.0359 20.9858 34.0569C21.0922 34.0675 21.1984 34.0803 21.3042 34.096L21.6196 34.1507C21.83 34.1928 22.0372 34.2447 22.2427 34.3069C22.4473 34.3692 22.6489 34.4411 22.8462 34.5228C23.0444 34.6053 23.2378 34.6969 23.4263 34.7972C23.6153 34.8982 23.7982 35.0083 23.9771 35.1273C24.1547 35.246 24.3257 35.374 24.4907 35.5091C24.6564 35.6448 24.8151 35.7886 24.9663 35.9398C25.1176 36.0911 25.2621 36.2496 25.3979 36.4153C25.5336 36.5801 25.6608 36.7528 25.7798 36.931C25.8392 37.0199 25.8967 37.1099 25.9517 37.2015L26.1099 37.4808C26.2109 37.6691 26.3016 37.8628 26.3833 38.0609C26.465 38.2582 26.5378 38.4596 26.6001 38.6644C26.6312 38.767 26.6591 38.8703 26.6851 38.9739L26.7554 39.2874C26.7966 39.4969 26.8291 39.7087 26.8501 39.9212C26.8711 40.1338 26.8813 40.3484 26.8813 40.5618C26.8813 40.7761 26.8711 40.9898 26.8501 41.2025C26.8396 41.3091 26.8257 41.4151 26.8101 41.5208L26.7554 41.8372C26.7133 42.0468 26.6623 42.2549 26.6001 42.4593C26.5378 42.664 26.465 42.8656 26.3833 43.0638C26.3017 43.2608 26.2108 43.4539 26.1099 43.6429C26.0087 43.8314 25.8987 44.0157 25.7798 44.1937C25.661 44.3715 25.5337 44.5426 25.3979 44.7083C25.262 44.8733 25.1176 45.0316 24.9663 45.1829C24.815 45.3342 24.6565 45.4787 24.4907 45.6146C24.3259 45.7503 24.1549 45.8775 23.9771 45.9964C23.7981 46.1154 23.6153 46.2255 23.4263 46.3265H23.4253C23.2371 46.4274 23.044 46.5183 22.8462 46.5999C22.6489 46.6816 22.4474 46.7544 22.2427 46.8167C22.0373 46.879 21.83 46.9299 21.6196 46.972C21.4106 47.014 21.1987 47.0457 20.9858 47.0667C20.7732 47.0877 20.5595 47.098 20.3452 47.098C20.1309 47.098 19.9172 47.0877 19.7046 47.0667C19.4909 47.0457 19.2798 47.014 19.0698 46.972C18.8602 46.9299 18.6521 46.8789 18.4478 46.8167C18.243 46.7544 18.0415 46.6816 17.8433 46.5999C17.7447 46.5591 17.6467 46.5167 17.5503 46.471L17.2642 46.3265C17.0749 46.2254 16.8913 46.1152 16.7134 45.9964C16.5354 45.8775 16.3636 45.7505 16.1978 45.6146C16.0328 45.4787 15.8744 45.3341 15.7231 45.1829C15.572 45.0317 15.4283 44.8732 15.2925 44.7083C15.1567 44.5426 15.0295 44.3715 14.9106 44.1937C14.7918 44.0157 14.6817 43.8314 14.5806 43.6429C14.4796 43.4538 14.3878 43.2609 14.3062 43.0638C14.2245 42.8656 14.1526 42.6639 14.0903 42.4593C14.0592 42.357 14.0304 42.2536 14.0044 42.1497L13.9341 41.8372C13.8928 41.6268 13.8613 41.4158 13.8403 41.2025C13.8193 40.9898 13.8091 40.7761 13.8091 40.5618C13.8091 40.3484 13.8193 40.1338 13.8403 39.9212C13.8613 39.7087 13.8929 39.4968 13.9341 39.2874C13.9761 39.0771 14.0281 38.8697 14.0903 38.6644C14.1526 38.4597 14.2245 38.2581 14.3062 38.0609C14.347 37.9618 14.3903 37.8636 14.436 37.7669L14.5806 37.4808C14.6816 37.2916 14.7917 37.109 14.9106 36.931C15.0297 36.7528 15.1568 36.5801 15.2925 36.4153C15.4283 36.2497 15.5719 36.091 15.7231 35.9398C15.8743 35.7886 16.0329 35.6449 16.1978 35.5091C16.3639 35.3738 16.5356 35.2461 16.7134 35.1273C16.8913 35.0084 17.0749 34.8983 17.2642 34.7972C17.3583 34.7471 17.4538 34.6993 17.5503 34.6536L17.8433 34.5228C18.0415 34.4411 18.2431 34.3692 18.4478 34.3069C18.6522 34.2447 18.8602 34.1928 19.0698 34.1507L19.0688 34.1497C19.2794 34.1084 19.4911 34.078 19.7046 34.0569C19.9172 34.0359 20.1309 34.0257 20.3452 34.0257Z" fill="#3F9B5D" stroke="#1E2139" stroke-width="0.210394"/>
<mask id="mask1_180_687" style="mask-type:luminance" maskUnits="userSpaceOnUse" x="0" y="6" width="55" height="47">
<path d="M54.3535 6.55792V51.9417H0.105469V6.55792H54.3535Z" fill="white" stroke="white" stroke-width="0.210394"/>
</mask>
<g mask="url(#mask1_180_687)">
<path d="M26.9864 40.5616C26.9864 40.7794 26.9757 40.9964 26.9543 41.2125C26.9329 41.4295 26.9009 41.644 26.859 41.8577C26.8162 42.0705 26.7636 42.2817 26.7004 42.4897C26.6371 42.6976 26.5639 42.9022 26.4809 43.1036C26.3979 43.3041 26.305 43.5005 26.2023 43.6928C26.0996 43.8843 25.9878 44.0709 25.867 44.2517C25.7462 44.4325 25.6172 44.6067 25.4791 44.7752C25.341 44.9429 25.1947 45.104 25.041 45.2577C24.8874 45.4113 24.7263 45.5576 24.5578 45.6957C24.3901 45.8338 24.2159 45.9628 24.0351 46.0836C23.8535 46.2044 23.6677 46.3162 23.4754 46.4189C23.2839 46.5217 23.0875 46.6145 22.8861 46.6975C22.6856 46.7805 22.481 46.8537 22.273 46.917C22.0643 46.9802 21.8539 47.0328 21.6402 47.0756C21.4274 47.1183 21.212 47.1496 20.9959 47.1709C20.7797 47.1923 20.5628 47.203 20.345 47.203C20.1272 47.203 19.9102 47.1923 19.6941 47.1709C19.4771 47.1496 19.2626 47.1183 19.0489 47.0756C18.8361 47.0328 18.6249 46.9802 18.4169 46.917C18.209 46.8537 18.0044 46.7805 17.803 46.6975C17.6025 46.6145 17.406 46.5217 17.2146 46.4189C17.0222 46.3162 16.8357 46.2044 16.6549 46.0836C16.4741 45.9628 16.2998 45.8338 16.1314 45.6957C15.9637 45.5576 15.8026 45.4113 15.6489 45.2577C15.4952 45.104 15.349 44.9429 15.2109 44.7752C15.0728 44.6067 14.9438 44.4325 14.823 44.2517C14.7022 44.0709 14.5904 43.8843 14.4877 43.6928C14.3849 43.5005 14.2921 43.3041 14.2091 43.1036C14.126 42.9022 14.0529 42.6976 13.9896 42.4897C13.9263 42.2817 13.8737 42.0705 13.831 41.8577C13.7891 41.644 13.757 41.4295 13.7357 41.2125C13.7143 40.9964 13.7036 40.7794 13.7036 40.5616C13.7036 40.3446 13.7143 40.1268 13.7357 39.9107C13.757 39.6945 13.7891 39.4792 13.831 39.2664C13.8737 39.0527 13.9263 38.8423 13.9896 38.6335C14.0529 38.4256 14.126 38.221 14.2091 38.0204C14.2921 37.8191 14.3849 37.6227 14.4877 37.4312C14.5904 37.2389 14.7022 37.0531 14.823 36.8723C14.9438 36.6915 15.0728 36.5165 15.2109 36.3488C15.349 36.1803 15.4952 36.0192 15.6489 35.8655C15.8026 35.7119 15.9637 35.5656 16.1314 35.4275C16.2998 35.2902 16.4741 35.1604 16.6549 35.0396C16.8357 34.9188 17.0222 34.807 17.2146 34.7043C17.406 34.6024 17.6025 34.5095 17.803 34.4257C18.0044 34.3427 18.209 34.2695 18.4169 34.2062C18.6249 34.1429 18.8361 34.0903 19.0489 34.0476C19.2626 34.0057 19.4771 33.9736 19.6941 33.9523C19.9102 33.9309 20.1272 33.9202 20.345 33.9202C20.5628 33.9202 20.7797 33.9309 20.9959 33.9523C21.212 33.9736 21.4274 34.0057 21.6402 34.0476C21.8539 34.0903 22.0643 34.1429 22.273 34.2062C22.481 34.2695 22.6856 34.3427 22.8861 34.4257C23.0875 34.5095 23.2839 34.6024 23.4754 34.7043C23.6677 34.807 23.8535 34.9188 24.0351 35.0396C24.2159 35.1604 24.3901 35.2902 24.5578 35.4275C24.7263 35.5656 24.8874 35.7119 25.041 35.8655C25.1947 36.0192 25.341 36.1803 25.4791 36.3488C25.6172 36.5165 25.7462 36.6915 25.867 36.8723C25.9878 37.0531 26.0996 37.2389 26.2023 37.4312C26.305 37.6227 26.3979 37.8191 26.4809 38.0204C26.5639 38.221 26.6371 38.4256 26.7004 38.6335C26.7636 38.8423 26.8162 39.0527 26.859 39.2664C26.9009 39.4792 26.9329 39.6945 26.9543 39.9107C26.9757 40.1268 26.9864 40.3446 26.9864 40.5616Z" stroke="#1E2139" stroke-width="1.93829" stroke-miterlimit="10" stroke-linecap="round"/>
</g>
<path d="M50.1584 34.0257C50.3727 34.0257 50.5864 34.0359 50.7991 34.0569C50.9054 34.0675 51.0116 34.0803 51.1174 34.096L51.4338 34.1507C51.6435 34.1928 51.8515 34.2447 52.0559 34.3069C52.2605 34.3692 52.4622 34.4411 52.6594 34.5228C52.8576 34.6053 53.0511 34.6969 53.2395 34.7972C53.4286 34.8982 53.6125 35.0084 53.7903 35.1273C53.9679 35.2459 54.139 35.3739 54.3049 35.5091C54.4698 35.6449 54.6284 35.7886 54.7795 35.9398C54.9308 36.0911 55.0754 36.2496 55.2112 36.4153C55.3469 36.5801 55.474 36.7528 55.593 36.931C55.6525 37.0199 55.7099 37.1099 55.7649 37.2015L55.9231 37.4808C56.0241 37.6691 56.1149 37.8628 56.1965 38.0609C56.2782 38.2582 56.351 38.4596 56.4133 38.6644C56.4444 38.767 56.4723 38.8703 56.4983 38.9739L56.5686 39.2874C56.6098 39.4969 56.6423 39.7087 56.6633 39.9212C56.6843 40.1338 56.6946 40.3484 56.6946 40.5618C56.6946 40.7761 56.6843 40.9898 56.6633 41.2025C56.6528 41.3091 56.639 41.4151 56.6233 41.5208L56.5686 41.8372C56.5265 42.0468 56.4755 42.2549 56.4133 42.4593C56.351 42.664 56.2782 42.8656 56.1965 43.0638C56.115 43.2608 56.024 43.4539 55.9231 43.6429C55.8219 43.8314 55.7119 44.0157 55.593 44.1937C55.4742 44.3715 55.347 44.5426 55.2112 44.7083C55.0753 44.8733 54.9308 45.0316 54.7795 45.1829C54.6282 45.3342 54.47 45.4787 54.3049 45.6146C54.1392 45.7503 53.9681 45.8776 53.7903 45.9964C53.6124 46.1152 53.4287 46.2254 53.2395 46.3265H53.2385C53.0504 46.4274 52.8573 46.5183 52.6594 46.5999C52.4621 46.6816 52.2606 46.7544 52.0559 46.8167C51.8515 46.8789 51.6434 46.9299 51.4338 46.972C51.2239 47.014 51.012 47.0457 50.7991 47.0667C50.5864 47.0877 50.3727 47.098 50.1584 47.098C49.9442 47.098 49.7305 47.0877 49.5178 47.0667C49.3049 47.0457 49.093 47.014 48.8831 46.972C48.6735 46.9299 48.4654 46.8789 48.261 46.8167C48.1586 46.7855 48.057 46.7512 47.9563 46.7151L47.6575 46.5999L47.3635 46.471L47.0774 46.3265C46.8884 46.2255 46.7055 46.1154 46.5266 45.9964C46.3486 45.8775 46.1768 45.7505 46.011 45.6146C45.846 45.4787 45.6876 45.3341 45.5364 45.1829C45.3852 45.0317 45.2415 44.8732 45.1057 44.7083C44.9699 44.5426 44.8427 44.3715 44.7239 44.1937C44.605 44.0157 44.495 43.8314 44.3938 43.6429C44.2928 43.4538 44.201 43.2609 44.1194 43.0638C44.0377 42.8656 43.9659 42.6639 43.9036 42.4593C43.8724 42.357 43.8436 42.2536 43.8176 42.1497L43.7473 41.8372C43.706 41.6268 43.6746 41.4158 43.6536 41.2025C43.6325 40.9898 43.6223 40.7761 43.6223 40.5618C43.6223 40.3484 43.6325 40.1338 43.6536 39.9212C43.6746 39.7087 43.7061 39.4968 43.7473 39.2874C43.7894 39.0771 43.8413 38.8697 43.9036 38.6644C43.9659 38.4597 44.0377 38.2581 44.1194 38.0609C44.1602 37.9618 44.2036 37.8636 44.2493 37.7669L44.3938 37.4808C44.4948 37.2916 44.6049 37.109 44.7239 36.931C44.8429 36.7528 44.97 36.5801 45.1057 36.4153C45.2415 36.2497 45.3851 36.091 45.5364 35.9398C45.6875 35.7886 45.8461 35.6449 46.011 35.5091C46.1771 35.3738 46.3488 35.2461 46.5266 35.1273C46.7056 35.0082 46.8883 34.8982 47.0774 34.7972C47.1715 34.7471 47.2669 34.6993 47.3635 34.6536L47.6575 34.5228C47.8548 34.4411 48.0563 34.3692 48.261 34.3069C48.4654 34.2447 48.6734 34.1928 48.8831 34.1507L48.8821 34.1497C49.0926 34.1084 49.3051 34.078 49.5178 34.0569C49.7305 34.0359 49.9442 34.0257 50.1584 34.0257Z" fill="#3F9B5D" stroke="#1E2139" stroke-width="0.210394"/>
<mask id="mask2_180_687" style="mask-type:luminance" maskUnits="userSpaceOnUse" x="15" y="6" width="54" height="47">
<path d="M68.0286 6.55792V51.9417H16.0618V6.55792H68.0286Z" fill="white" stroke="white" stroke-width="0.210394"/>
</mask>
<g mask="url(#mask2_180_687)">
<path d="M56.7993 40.5616C56.7993 40.7794 56.7887 40.9964 56.7673 41.2125C56.7459 41.4295 56.7139 41.644 56.672 41.8577C56.6292 42.0705 56.5766 42.2817 56.5133 42.4897C56.4501 42.6976 56.3769 42.9022 56.2939 43.1036C56.2109 43.3041 56.118 43.5005 56.0153 43.6928C55.9126 43.8843 55.8008 44.0709 55.68 44.2517C55.5592 44.4325 55.4301 44.6067 55.2921 44.7752C55.154 44.9429 55.0077 45.104 54.854 45.2577C54.7003 45.4113 54.5393 45.5576 54.3716 45.6957C54.2031 45.8338 54.0289 45.9628 53.8481 46.0836C53.6673 46.2044 53.4807 46.3162 53.2884 46.4189C53.0969 46.5217 52.9005 46.6145 52.6991 46.6975C52.4986 46.7805 52.294 46.8537 52.086 46.917C51.8781 46.9802 51.6669 47.0328 51.454 47.0756C51.2404 47.1183 51.025 47.1496 50.8089 47.1709C50.5927 47.1923 50.3758 47.203 50.158 47.203C49.9402 47.203 49.7232 47.1923 49.5071 47.1709C49.2909 47.1496 49.0756 47.1183 48.8619 47.0756C48.6491 47.0328 48.4378 46.9802 48.2299 46.917C48.022 46.8537 47.8173 46.7805 47.6168 46.6975C47.4155 46.6145 47.219 46.5217 47.0275 46.4189C46.8352 46.3162 46.6495 46.2044 46.4679 46.0836C46.2871 45.9628 46.1128 45.8338 45.9443 45.6957C45.7767 45.5576 45.6156 45.4113 45.4619 45.2577C45.3082 45.104 45.1619 44.9429 45.0239 44.7752C44.8858 44.6067 44.7568 44.4325 44.636 44.2517C44.5151 44.0709 44.4034 43.8843 44.3006 43.6928C44.1979 43.5005 44.105 43.3041 44.022 43.1036C43.939 42.9022 43.8659 42.6976 43.8026 42.4897C43.7393 42.2817 43.6867 42.0705 43.644 41.8577C43.6021 41.644 43.57 41.4295 43.5487 41.2125C43.5273 40.9964 43.5166 40.7794 43.5166 40.5616C43.5166 40.3446 43.5273 40.1268 43.5487 39.9107C43.57 39.6945 43.6021 39.4792 43.644 39.2664C43.6867 39.0527 43.7393 38.8423 43.8026 38.6335C43.8659 38.4256 43.939 38.221 44.022 38.0204C44.105 37.8191 44.1979 37.6227 44.3006 37.4312C44.4034 37.2389 44.5151 37.0531 44.636 36.8723C44.7568 36.6915 44.8858 36.5165 45.0239 36.3488C45.1619 36.1803 45.3082 36.0192 45.4619 35.8655C45.6156 35.7119 45.7767 35.5656 45.9443 35.4275C46.1128 35.2902 46.2871 35.1604 46.4679 35.0396C46.6495 34.9188 46.8352 34.807 47.0275 34.7043C47.219 34.6024 47.4155 34.5095 47.6168 34.4257C47.8173 34.3427 48.022 34.2695 48.2299 34.2062C48.4378 34.1429 48.6491 34.0903 48.8619 34.0476C49.0756 34.0057 49.2909 33.9736 49.5071 33.9523C49.7232 33.9309 49.9402 33.9202 50.158 33.9202C50.3758 33.9202 50.5927 33.9309 50.8089 33.9523C51.025 33.9736 51.2404 34.0057 51.454 34.0476C51.6669 34.0903 51.8781 34.1429 52.086 34.2062C52.294 34.2695 52.4986 34.3427 52.6991 34.4257C52.9005 34.5095 53.0969 34.6024 53.2884 34.7043C53.4807 34.807 53.6673 34.9188 53.8481 35.0396C54.0289 35.1604 54.2031 35.2902 54.3716 35.4275C54.5393 35.5656 54.7003 35.7119 54.854 35.8655C55.0077 36.0192 55.154 36.1803 55.2921 36.3488C55.4301 36.5165 55.5592 36.6915 55.68 36.8723C55.8008 37.0531 55.9126 37.2389 56.0153 37.4312C56.118 37.6227 56.2109 37.8191 56.2939 38.0204C56.3769 38.221 56.4501 38.4256 56.5133 38.6335C56.5766 38.8423 56.6292 39.0527 56.672 39.2664C56.7139 39.4792 56.7459 39.6945 56.7673 39.9107C56.7887 40.1268 56.7993 40.3446 56.7993 40.5616Z" stroke="#1E2139" stroke-width="1.93829" stroke-miterlimit="10" stroke-linecap="round"/>
</g>
<path d="M49.1807 14.7961L56.1807 25.093H40.6182V14.7961H49.1807Z" fill="#3F9B5D" stroke="#1E2139" stroke-width="0.210394"/>
</svg>
