<svg width="15" height="11" viewBox="0 0 15 11" fill="none" xmlns="http://www.w3.org/2000/svg">
<path d="M4.95142 8.21575L12.8863 0.280881C13.0735 0.093627 13.292 0 13.5417 0C13.7914 0 14.0098 0.093627 14.1971 0.280881C14.3843 0.468134 14.478 0.690654 14.478 0.94844C14.478 1.20623 14.3843 1.42843 14.1971 1.61506L5.60681 10.2287C5.41955 10.416 5.20109 10.5096 4.95142 10.5096C4.70175 10.5096 4.48329 10.416 4.29603 10.2287L0.270078 6.20278C0.0828239 6.01552 -0.00705802 5.79332 0.000432123 5.53615C0.00792227 5.27899 0.105606 5.05647 0.293484 4.8686C0.481362 4.68072 0.703882 4.58709 0.961044 4.58771C1.21821 4.58834 1.44041 4.68197 1.62767 4.8686L4.95142 8.21575Z" fill="white"/>
</svg>
