<svg width="96" height="96" viewBox="0 0 96 96" fill="none" xmlns="http://www.w3.org/2000/svg">
<circle cx="47.9595" cy="47.9595" r="44.6056" stroke="url(#paint0_linear_184_1869)" stroke-width="6.70762"/>
<path d="M58.9187 58.322C59.5581 57.3193 59.9215 56.113 59.9215 54.8341C59.9215 51.2008 57.0148 48.2942 53.3815 48.2942C49.7483 48.2942 46.8416 51.2008 46.8416 54.8341C46.8416 58.4674 49.7483 61.374 53.3815 61.374C54.6459 61.374 55.8377 61.0107 56.8404 60.3857L61.3748 64.8474L63.3949 62.8273L58.9187 58.322ZM53.3815 58.4674C52.4179 58.4674 51.4938 58.0846 50.8124 57.4032C50.131 56.7218 49.7483 55.7977 49.7483 54.8341C49.7483 53.8705 50.131 52.9463 50.8124 52.265C51.4938 51.5836 52.4179 51.2008 53.3815 51.2008C54.3452 51.2008 55.2693 51.5836 55.9507 52.265C56.632 52.9463 57.0148 53.8705 57.0148 54.8341C57.0148 55.7977 56.632 56.7218 55.9507 57.4032C55.2693 58.0846 54.3452 58.4674 53.3815 58.4674ZM44.7924 58.758L35.2151 51.3025L37.5695 49.4713L43.935 54.4272V54.8341C43.935 56.2293 44.2547 57.5663 44.7924 58.758ZM37.584 45.7799L35.2151 43.9342L48.2949 33.761L61.3748 43.9342L58.9914 45.7799L57.9595 46.5792C56.6079 45.8235 55.0383 45.3875 53.3815 45.3875C49.4431 45.3875 46.0568 47.8291 44.6616 51.2735L37.584 45.7799Z" fill="white"/>
<defs>
<linearGradient id="paint0_linear_184_1869" x1="47.9594" y1="0" x2="47.9594" y2="76.4354" gradientUnits="userSpaceOnUse">
<stop stop-color="#F46E0D"/>
<stop offset="1" stop-color="#F46E0D" stop-opacity="0"/>
</linearGradient>
</defs>
</svg>
