<svg width="96" height="96" viewBox="0 0 96 96" fill="none" xmlns="http://www.w3.org/2000/svg">
<circle cx="47.9595" cy="47.9595" r="44.6056" stroke="url(#paint0_linear_184_1863)" stroke-width="6.70762"/>
<path d="M45.3882 38.1217L48.2948 35.2151M42.4816 54.1082L54.1081 42.4817M48.2948 61.3748L51.2015 58.4682M54.8347 58.4682C55.7984 58.4682 56.7225 58.0854 57.4039 57.404C58.0852 56.7226 58.468 55.7985 58.468 54.8349C58.468 53.8713 58.0852 52.9471 57.4039 52.2657C56.7225 51.5844 55.7984 51.2016 54.8347 51.2016C53.8711 51.2016 52.947 51.5844 52.2656 52.2657C51.5842 52.9471 51.2015 53.8713 51.2015 54.8349C51.2015 55.7985 51.5842 56.7226 52.2656 57.404C52.947 58.0854 53.8711 58.4682 54.8347 58.4682ZM41.7549 45.3883C42.7185 45.3883 43.6426 45.0055 44.324 44.3241C45.0054 43.6428 45.3882 42.7186 45.3882 41.755C45.3882 40.7914 45.0054 39.8673 44.324 39.1859C43.6426 38.5045 42.7185 38.1217 41.7549 38.1217C40.7913 38.1217 39.8671 38.5045 39.1858 39.1859C38.5044 39.8673 38.1216 40.7914 38.1216 41.755C38.1216 42.7186 38.5044 43.6428 39.1858 44.3241C39.8671 45.0055 40.7913 45.3883 41.7549 45.3883ZM38.8483 61.3748C39.8119 61.3748 40.736 60.992 41.4174 60.3106C42.0988 59.6293 42.4816 58.7051 42.4816 57.7415C42.4816 56.7779 42.0988 55.8537 41.4174 55.1724C40.736 54.491 39.8119 54.1082 38.8483 54.1082C37.8846 54.1082 36.9605 54.491 36.2791 55.1724C35.5978 55.8537 35.215 56.7779 35.215 57.7415C35.215 58.7051 35.5978 59.6293 36.2791 60.3106C36.9605 60.992 37.8846 61.3748 38.8483 61.3748ZM57.7414 42.4817C58.705 42.4817 59.6291 42.0989 60.3105 41.4175C60.9919 40.7361 61.3747 39.812 61.3747 38.8484C61.3747 37.8848 60.9919 36.9606 60.3105 36.2793C59.6291 35.5979 58.705 35.2151 57.7414 35.2151C56.7778 35.2151 55.8536 35.5979 55.1723 36.2793C54.4909 36.9606 54.1081 37.8848 54.1081 38.8484C54.1081 39.812 54.4909 40.7361 55.1723 41.4175C55.8536 42.0989 56.7778 42.4817 57.7414 42.4817Z" stroke="white" stroke-width="2.90663" stroke-linecap="round" stroke-linejoin="round"/>
<defs>
<linearGradient id="paint0_linear_184_1863" x1="47.9594" y1="0" x2="47.9594" y2="76.4354" gradientUnits="userSpaceOnUse">
<stop stop-color="#F46E0D"/>
<stop offset="1" stop-color="#F46E0D" stop-opacity="0"/>
</linearGradient>
</defs>
</svg>
