<svg width="106" height="18" viewBox="0 0 106 18" fill="none" xmlns="http://www.w3.org/2000/svg">
<path d="M96.2787 0L93.5032 6.15279L86.753 6.87276L91.7879 11.3953L90.3914 17.9931L96.2787 14.6355L102.166 17.9931L100.769 11.3953L105.804 6.87276L99.0541 6.15279L96.2787 0Z" fill="#FFC117"/>
<path d="M74.5904 0L71.815 6.15279L65.0647 6.87276L70.0996 11.3953L68.7032 17.9931L74.5904 14.6355L80.4776 17.9931L79.0812 11.3953L84.1161 6.87276L77.3659 6.15279L74.5904 0Z" fill="#FFC117"/>
<path d="M52.9022 0L50.1267 6.15279L43.3765 6.87276L48.4114 11.3953L47.015 17.9931L52.9022 14.6355L58.7894 17.9931L57.3929 11.3953L62.4279 6.87276L55.6776 6.15279L52.9022 0Z" fill="#FFC117"/>
<path d="M31.2139 0L28.4385 6.15279L21.6882 6.87276L26.7232 11.3953L25.3267 17.9931L31.2139 14.6355L37.1011 17.9931L35.7047 11.3953L40.7396 6.87276L33.9894 6.15279L31.2139 0Z" fill="#FFC117"/>
<path d="M9.52564 0L6.75024 6.15279L9.53674e-06 6.87276L5.03488 11.3953L3.63845 17.9931L9.52564 14.6355L15.4129 17.9931L14.0165 11.3953L19.0514 6.87276L12.3011 6.15279L9.52564 0Z" fill="#FFC117"/>
</svg>
