<svg width="19" height="19" viewBox="0 0 19 19" fill="none" xmlns="http://www.w3.org/2000/svg">
<rect width="18.0281" height="18.0281" rx="9.01404" fill="#F46E0D"/>
<path d="M13.1293 8.1519C13.264 8.28672 13.3396 8.46947 13.3396 8.66002C13.3396 8.85056 13.264 9.03332 13.1293 9.16814L10.4181 11.8808C10.2832 12.0157 10.1002 12.0915 9.90947 12.0915C9.71871 12.0915 9.53576 12.0157 9.40087 11.8808C9.26598 11.7459 9.1902 11.563 9.1902 11.3722C9.1902 11.1815 9.26598 10.9985 9.40087 10.8636L10.885 9.37905H5.35557C5.16487 9.37905 4.98198 9.3033 4.84713 9.16845C4.71229 9.03361 4.63653 8.85072 4.63653 8.66002C4.63653 8.46932 4.71229 8.28643 4.84713 8.15158C4.98198 8.01674 5.16487 7.94098 5.35557 7.94098L10.885 7.94098L9.40087 6.45689C9.33408 6.3901 9.2811 6.31081 9.24495 6.22354C9.20881 6.13628 9.1902 6.04274 9.1902 5.94829C9.1902 5.85383 9.20881 5.7603 9.24495 5.67304C9.2811 5.58577 9.33408 5.50648 9.40087 5.43969C9.46766 5.3729 9.54695 5.31992 9.63422 5.28377C9.72148 5.24763 9.81501 5.22902 9.90947 5.22902C10.0039 5.22902 10.0975 5.24763 10.1847 5.28377C10.272 5.31992 10.3513 5.3729 10.4181 5.43969L13.1293 8.1519Z" fill="white"/>
</svg>
