<svg width="31" height="31" viewBox="0 0 31 31" fill="none" xmlns="http://www.w3.org/2000/svg">
<rect width="31" height="31" rx="15.5" fill="#1E2139"/>
<path d="M22.5765 14.0176C22.808 14.2494 22.9381 14.5637 22.9381 14.8913C22.9381 15.219 22.808 15.5332 22.5765 15.765L17.9144 20.4296C17.6824 20.6616 17.3679 20.7919 17.0398 20.7919C16.7118 20.7919 16.3972 20.6616 16.1653 20.4296C15.9333 20.1977 15.803 19.8831 15.803 19.5551C15.803 19.227 15.9333 18.9124 16.1653 18.6805L18.7172 16.1277H9.20921C8.8813 16.1277 8.56681 15.9975 8.33494 15.7656C8.10306 15.5337 7.9728 15.2192 7.9728 14.8913C7.9728 14.5634 8.10306 14.2489 8.33494 14.017C8.56681 13.7852 8.8813 13.6549 9.20921 13.6549H18.7172L16.1653 11.1029C16.0504 10.9881 15.9593 10.8517 15.8972 10.7017C15.835 10.5516 15.803 10.3908 15.803 10.2284C15.803 10.066 15.835 9.90513 15.8972 9.75507C15.9593 9.60502 16.0504 9.46867 16.1653 9.35382C16.2801 9.23897 16.4165 9.14787 16.5665 9.08572C16.7166 9.02356 16.8774 8.99157 17.0398 8.99157C17.2022 8.99157 17.3631 9.02356 17.5131 9.08572C17.6632 9.14787 17.7995 9.23897 17.9144 9.35382L22.5765 14.0176Z" fill="white"/>
</svg>
