<svg width="61" height="47" viewBox="0 0 61 47" fill="none" xmlns="http://www.w3.org/2000/svg">
<path d="M30.4114 8.26099C30.5854 8.5679 30.5715 8.92344 30.4094 9.21704C30.3214 9.0589 30.2762 8.8834 30.2834 8.7063L30.2942 8.60278L30.304 8.56177L30.3049 8.55786C30.3266 8.45317 30.3606 8.354 30.4114 8.26099Z" stroke="#1E2139" stroke-width="0.284421"/>
<mask id="path-2-inside-1_180_737" fill="white">
<path d="M6.12622 24.5869L6.15355 24.5681L6.12622 24.5852V24.5869Z"/>
</mask>
<path d="M6.12622 24.5869H5.8418V25.1275L6.28732 24.8213L6.12622 24.5869ZM6.15355 24.5681L6.31465 24.8025L6.00274 24.327L6.15355 24.5681ZM6.12622 24.5852L5.97541 24.3441L5.8418 24.4276V24.5852H6.12622ZM6.12622 24.5869L6.28732 24.8213L6.31465 24.8025L6.15355 24.5681L5.99245 24.3337L5.96512 24.3525L6.12622 24.5869ZM6.15355 24.5681L6.00274 24.327L5.97541 24.3441L6.12622 24.5852L6.27704 24.8264L6.30437 24.8093L6.15355 24.5681ZM6.12622 24.5852H5.8418V24.5869H6.12622H6.41064V24.5852H6.12622Z" fill="#1E2139" mask="url(#path-2-inside-1_180_737)"/>
<path d="M29.0457 36.5735L27.9978 35.9251L29.0457 35.2767V36.5735Z" stroke="#1E2139" stroke-width="0.284421"/>
<mask id="path-5-inside-2_180_737" fill="white">
<path d="M6.12631 24.5848L6.15302 24.5681L6.12411 24.5834C5.99082 24.6534 5.86525 24.7303 5.74463 24.8208L6.12631 24.5864V24.5848Z"/>
</mask>
<path d="M6.12631 24.5848L6.15302 24.5681L6.12411 24.5834C5.99082 24.6534 5.86525 24.7303 5.74463 24.8208L6.12631 24.5864V24.5848Z" fill="white"/>
<path d="M6.12631 24.5848L5.97549 24.3437L5.84189 24.4272V24.5848H6.12631ZM6.15302 24.5681L6.30384 24.8093L6.02041 24.3165L6.15302 24.5681ZM6.12411 24.5834L6.25641 24.8351L6.25672 24.835L6.12411 24.5834ZM5.74463 24.8208L5.57392 24.5933L5.89349 25.0632L5.74463 24.8208ZM6.12631 24.5864L6.27517 24.8287L6.41073 24.7455V24.5864H6.12631ZM6.12631 24.5848L6.27712 24.826L6.30384 24.8093L6.15302 24.5681L6.00221 24.327L5.97549 24.3437L6.12631 24.5848ZM6.15302 24.5681L6.02041 24.3165L5.9915 24.3317L6.12411 24.5834L6.25672 24.835L6.28563 24.8197L6.15302 24.5681ZM6.12411 24.5834L5.9918 24.3316C5.84755 24.4074 5.70871 24.4922 5.57392 24.5933L5.74463 24.8208L5.91534 25.0483C6.02179 24.9684 6.1341 24.8994 6.25641 24.8351L6.12411 24.5834ZM5.74463 24.8208L5.89349 25.0632L6.27517 24.8287L6.12631 24.5864L5.97745 24.344L5.59577 24.5785L5.74463 24.8208ZM6.12631 24.5864H6.41073V24.5848H6.12631H5.84189V24.5864H6.12631Z" fill="#1E2139" mask="url(#path-5-inside-2_180_737)"/>
<path d="M22.8787 29.7483C23.4657 30.4097 24.096 31.0173 24.7615 31.5715L19.1853 35.0247C18.9859 35.1149 18.8052 35.2316 18.6414 35.3616L17.9861 35.7678L15.571 34.2727L22.8787 29.7483Z" fill="white" stroke="#1E2139" stroke-width="0.284421"/>
<path d="M19.0693 22.7619C19.2989 23.5879 19.5958 24.4033 19.9531 25.2043L11.6387 30.3527L10.8877 30.8166H10.8867L10.5674 31.0139C9.89688 30.4408 9.29252 29.8157 8.75293 29.1476L8.9248 29.0432H8.92578L19.0693 22.7619Z" fill="white" stroke="#1E2139" stroke-width="0.284421"/>
<path d="M13.4648 1.82544C14.6543 2.55994 16.0188 2.76118 17.2881 2.50317L17.3057 2.50024L17.3213 2.49243C17.9063 2.21154 18.5024 1.96181 19.1113 1.74927C19.7887 1.51252 20.4795 1.32079 21.1836 1.17114V1.17017C24.184 0.52281 27.3575 0.685481 30.3662 1.70825C31.5825 2.12123 32.7751 2.66053 33.9131 3.36548H33.9141L33.9443 3.38599L34.041 3.45142L34.0498 3.44165L46.292 11.0872H46.293L46.3623 11.1301L46.3643 11.1311C46.8903 11.4473 47.2936 11.9648 47.4434 12.6116C47.7356 13.8741 46.9484 15.1369 45.6826 15.4309C45.0095 15.5867 44.339 15.4337 43.8115 15.0657L43.8047 15.0618L41.8281 13.8264L31.9805 7.677L31.9795 7.67603L31.9443 7.65454L31.9414 7.65259C31.387 7.32501 30.7028 7.47284 30.3057 7.95044L30.2041 8.05786L30.1934 8.06958L30.1855 8.08228C30.1052 8.21621 30.0565 8.35651 30.0273 8.49634L30.0156 8.5481L30.1543 8.58032L30.0146 8.5481L30.0137 8.55884C29.9634 8.88013 30.0469 9.19805 30.2256 9.46021L30.1143 9.57739L30 9.64868L26.6865 11.6975L26.6836 11.6917L26.5498 11.7747L18.5459 16.7288L6.20605 24.3674L6.0625 23.8997C5.96438 23.5403 5.87184 23.1853 5.80469 22.8254V22.8245L5.75977 22.5852L5.75879 22.5803L5.71094 22.386C5.45454 21.4207 4.92226 20.5272 4.14941 19.8303L4.13965 19.8225L4.12891 19.8157L2.57422 18.8528L0.195312 17.3811L10.834 0.195557L13.4648 1.82544Z" fill="white" stroke="#1E2139" stroke-width="0.284421"/>
<mask id="path-10-inside-3_180_737" fill="white">
<path d="M50.0347 0L47.2831 1.70416C46.1253 2.41887 44.7987 2.61494 43.5632 2.36379C42.976 2.08079 42.3731 1.82964 41.7588 1.61521C41.0754 1.37636 40.3776 1.18222 39.671 1.03131C36.6433 0.378561 33.4445 0.542504 30.4113 1.57354C31.6384 1.99019 32.8434 2.53435 33.9934 3.24731L34.0234 3.2676L34.0301 3.26099L46.3671 10.9661L46.4371 11.0094C46.9943 11.3444 47.4232 11.893 47.5821 12.5794C47.8921 13.9186 47.0566 15.2578 45.7144 15.5694C44.9999 15.7346 44.2882 15.5724 43.7294 15.1825L41.7522 13.9472L31.9046 7.79737L31.8691 7.77543C31.3769 7.48435 30.7663 7.61461 30.4113 8.04512L30.5169 8.15574C30.7797 8.58405 30.7142 9.10452 30.4113 9.47124L30.2041 9.6887L30.0757 9.7693L26.628 11.9018L26.6247 11.8951L18.6205 16.85L6.15297 24.5682L6.12626 24.5865L5.74458 24.821C5.12516 25.2929 4.71851 26.0293 4.71851 26.8698C4.71851 28.2959 5.87291 29.4509 7.29958 29.4509C7.71623 29.4509 8.10516 29.342 8.45288 29.1681L8.53953 29.1128L8.85062 28.922L19.1559 22.5413C19.4004 23.4618 19.7281 24.3706 20.1326 25.2612L11.7128 30.4735L10.9616 30.9374C10.4239 31.4107 10.075 32.0957 10.075 32.869C10.075 34.2951 11.2317 35.4501 12.6577 35.4501C13.3371 35.4501 13.9527 35.1824 14.4137 34.7504L14.4504 34.8007L15.3015 34.2731L22.9058 29.5646C23.5547 30.306 24.258 30.9806 25.0047 31.5885L19.2581 35.1473C19.0625 35.234 18.8847 35.3498 18.7214 35.4803C18.1248 35.9489 17.7358 36.6669 17.7358 37.4822C17.7358 38.8983 18.8836 40.0432 20.3009 40.0432C21.0436 40.0432 21.7081 39.7238 22.1758 39.218L22.2531 39.3169L22.8637 38.9386L27.728 35.9256L29.188 35.0217V34.9295V33.7228L29.1758 33.4764L29.188 33.2306C29.313 31.9282 30.4102 30.9088 31.7458 30.9088C33.153 30.9107 34.2963 32.0454 34.3101 33.4515V33.4782V33.5032L34.3079 36.6773L34.3068 41.1984L37.1322 39.4492V39.1078L37.1289 39.0825L37.1322 39.0575V36.324L37.1355 32.4036V30.385L37.1366 29.6986L37.1288 29.5764L37.1366 29.4525C37.1655 28.8163 37.4283 28.2408 37.84 27.8103C38.3072 27.3216 38.9611 27.0169 39.691 27.0152C40.4199 27.0169 41.0754 27.3216 41.5415 27.8103C41.9809 28.2708 42.251 28.8917 42.251 29.578L42.2459 29.702L42.2576 29.7002V32.2513L42.2565 36.2956L45.0808 34.5462V31.6185L45.083 27.9794V27.9711L45.0797 27.8788L45.0963 27.6397V27.325H45.1463C45.3208 26.5467 45.8475 25.9006 46.5541 25.5675C46.8858 25.41 47.2541 25.3147 47.6441 25.3147C48.8708 25.3164 49.8907 26.1767 50.143 27.3249H50.1919V27.7235L50.203 27.8272L50.2097 27.8824L50.203 27.9996V31.247C52.123 29.6449 53.5513 27.6229 54.4218 25.3983C54.7452 24.573 54.9906 23.7192 55.1601 22.8509L55.2029 22.6114C55.4323 21.6 55.9667 20.6595 56.7701 19.9362L58.3239 18.9738L60.8221 17.4274L50.0347 0Z"/>
</mask>
<path d="M50.0347 0L47.2831 1.70416C46.1253 2.41887 44.7987 2.61494 43.5632 2.36379C42.976 2.08079 42.3731 1.82964 41.7588 1.61521C41.0754 1.37636 40.3776 1.18222 39.671 1.03131C36.6433 0.378561 33.4445 0.542504 30.4113 1.57354C31.6384 1.99019 32.8434 2.53435 33.9934 3.24731L34.0234 3.2676L34.0301 3.26099L46.3671 10.9661L46.4371 11.0094C46.9943 11.3444 47.4232 11.893 47.5821 12.5794C47.8921 13.9186 47.0566 15.2578 45.7144 15.5694C44.9999 15.7346 44.2882 15.5724 43.7294 15.1825L41.7522 13.9472L31.9046 7.79737L31.8691 7.77543C31.3769 7.48435 30.7663 7.61461 30.4113 8.04512L30.5169 8.15574C30.7797 8.58405 30.7142 9.10452 30.4113 9.47124L30.2041 9.6887L30.0757 9.7693L26.628 11.9018L26.6247 11.8951L18.6205 16.85L6.15297 24.5682L6.12626 24.5865L5.74458 24.821C5.12516 25.2929 4.71851 26.0293 4.71851 26.8698C4.71851 28.2959 5.87291 29.4509 7.29958 29.4509C7.71623 29.4509 8.10516 29.342 8.45288 29.1681L8.53953 29.1128L8.85062 28.922L19.1559 22.5413C19.4004 23.4618 19.7281 24.3706 20.1326 25.2612L11.7128 30.4735L10.9616 30.9374C10.4239 31.4107 10.075 32.0957 10.075 32.869C10.075 34.2951 11.2317 35.4501 12.6577 35.4501C13.3371 35.4501 13.9527 35.1824 14.4137 34.7504L14.4504 34.8007L15.3015 34.2731L22.9058 29.5646C23.5547 30.306 24.258 30.9806 25.0047 31.5885L19.2581 35.1473C19.0625 35.234 18.8847 35.3498 18.7214 35.4803C18.1248 35.9489 17.7358 36.6669 17.7358 37.4822C17.7358 38.8983 18.8836 40.0432 20.3009 40.0432C21.0436 40.0432 21.7081 39.7238 22.1758 39.218L22.2531 39.3169L22.8637 38.9386L27.728 35.9256L29.188 35.0217V34.9295V33.7228L29.1758 33.4764L29.188 33.2306C29.313 31.9282 30.4102 30.9088 31.7458 30.9088C33.153 30.9107 34.2963 32.0454 34.3101 33.4515V33.4782V33.5032L34.3079 36.6773L34.3068 41.1984L37.1322 39.4492V39.1078L37.1289 39.0825L37.1322 39.0575V36.324L37.1355 32.4036V30.385L37.1366 29.6986L37.1288 29.5764L37.1366 29.4525C37.1655 28.8163 37.4283 28.2408 37.84 27.8103C38.3072 27.3216 38.9611 27.0169 39.691 27.0152C40.4199 27.0169 41.0754 27.3216 41.5415 27.8103C41.9809 28.2708 42.251 28.8917 42.251 29.578L42.2459 29.702L42.2576 29.7002V32.2513L42.2565 36.2956L45.0808 34.5462V31.6185L45.083 27.9794V27.9711L45.0797 27.8788L45.0963 27.6397V27.325H45.1463C45.3208 26.5467 45.8475 25.9006 46.5541 25.5675C46.8858 25.41 47.2541 25.3147 47.6441 25.3147C48.8708 25.3164 49.8907 26.1767 50.143 27.3249H50.1919V27.7235L50.203 27.8272L50.2097 27.8824L50.203 27.9996V31.247C52.123 29.6449 53.5513 27.6229 54.4218 25.3983C54.7452 24.573 54.9906 23.7192 55.1601 22.8509L55.2029 22.6114C55.4323 21.6 55.9667 20.6595 56.7701 19.9362L58.3239 18.9738L60.8221 17.4274L50.0347 0Z" fill="#3F9B5D" stroke="#1E2139" stroke-width="0.568842" mask="url(#path-10-inside-3_180_737)"/>
<path d="M37.2786 29.6891L37.2708 29.5759L37.2786 29.4616V29.4587C37.3058 28.8585 37.5541 28.3154 37.9426 27.9089C38.3841 27.4472 39.0016 27.1597 39.6907 27.1579C40.3791 27.1595 40.9982 27.4471 41.4387 27.9089C41.854 28.3442 42.1086 28.9299 42.1086 29.5778H42.1096L42.1038 29.696L42.0969 29.8679L42.1155 29.8649V32.2516L42.1145 36.2106L42.094 36.2224V38.985L42.1038 39.0817L42.094 39.1794V39.2604H42.0891L42.0735 39.3845C41.9238 40.5759 40.9169 41.4997 39.6877 41.4997C38.4657 41.4995 37.4684 40.5904 37.3049 39.4099L37.2747 39.194V39.0983L37.2737 39.0895L37.2717 39.0827L37.2737 39.0759L37.2747 39.0671V36.3239L37.2776 32.404V30.3854L37.2795 29.6989L37.2786 29.6891Z" fill="white" stroke="#1E2139" stroke-width="0.284421"/>
<path d="M29.3306 33.7154L29.3179 33.4761L29.3296 33.2369C29.451 32.0102 30.4867 31.0515 31.7456 31.0513C32.9915 31.053 34.0183 31.9946 34.1528 33.2066L34.1685 33.4527V33.5035L34.1655 36.6773L34.1646 41.1275L34.1519 41.1373V43.4205L34.1616 43.5181L34.1519 43.6158V43.6959H34.147L34.1313 43.8199C33.9807 45.0113 32.9742 45.9341 31.7456 45.9341C30.6672 45.934 29.7624 45.2235 29.4536 44.2457L29.3989 44.0709L29.3267 44.1158L29.3276 41.3521V38.0904L29.1108 38.2252L26.2632 39.9888L26.2085 40.022L26.2075 40.023L25.5464 40.4312L23.1333 38.938L27.7271 36.0923L29.1128 36.9507L29.3306 37.0845V33.7154Z" fill="white" stroke="#1E2139" stroke-width="0.284421"/>
<path d="M45.2253 27.9662L45.2224 27.8734L45.238 27.6498H45.239V27.4672H45.2605L45.2849 27.3558C45.4498 26.6209 45.9478 26.0111 46.615 25.6967V25.6957C46.8905 25.5648 47.1912 25.4805 47.5076 25.4613L47.6443 25.4574C48.8026 25.459 49.7665 26.2712 50.0046 27.3558L50.0291 27.4672H50.0496V27.7308L50.0505 27.7386L50.0613 27.8422L50.0623 27.8441L50.0671 27.8842L50.0613 27.9916H50.0603V31.1761L50.0496 31.1849V34.9535L50.0505 34.9603L50.0593 35.056L50.0505 35.1547L50.1921 35.1683L50.0496 35.1547V35.2347H50.0437L50.0281 35.3588C49.8801 36.5498 48.8729 37.474 47.6443 37.474C46.4146 37.474 45.4092 36.5502 45.2595 35.3588L45.2439 35.2347H45.239V35.1586L45.238 35.1517L45.2283 35.0521L45.238 34.9642L45.239 34.9574V34.2758L45.2234 34.2855V31.6185L45.2253 27.9799V27.9662Z" fill="white" stroke="#1E2139" stroke-width="0.284421"/>
<path d="M29.0439 41.3522L29.043 44.2848C28.6629 44.5296 28.2144 44.6754 27.7295 44.6754C26.3925 44.6754 25.3096 43.5918 25.3096 42.2545C25.3097 41.428 25.726 40.6981 26.3623 40.2614L26.3613 40.2604L26.4111 40.2321L26.4121 40.2311L29.0439 38.6012V41.3522Z" fill="#3F9B5D" stroke="#1E2139" stroke-width="0.284421"/>
</svg>
