<svg width="49" height="49" viewBox="0 0 49 49" fill="none" xmlns="http://www.w3.org/2000/svg">
<path d="M0.767895 48.1524C1.27962 48.6645 1.95024 48.9204 2.62087 48.9204C3.29184 48.9204 3.96244 48.6645 4.47419 48.1524L17.0867 35.5403V34.5053L14.4278 31.8337H13.3804L0.767895 44.4462C-0.255884 45.4696 -0.255884 47.129 0.767895 48.1524Z" fill="#1E2139"/>
<path d="M13.3806 31.8337L17.0869 35.5403L22.0663 30.5609L18.476 26.7383L13.3806 31.8337Z" fill="#C3E2F4"/>
<path d="M30.3275 36.2478C20.577 36.2478 12.6725 28.3434 12.6725 18.5928C12.6725 8.84222 20.577 0.937805 30.3275 0.937805C40.0781 0.937805 47.9825 8.84222 47.9825 18.5928C47.9825 28.3434 40.0781 36.2478 30.3275 36.2478Z" fill="white"/>
<path d="M23.9396 26.7272C23.9616 28.3184 25.2642 29.6154 26.8554 29.6302C27.6777 29.6377 28.4227 29.3081 28.9613 28.7715C29.0366 28.6965 29.1248 28.6385 29.2211 28.5989C29.3168 28.5589 29.4206 28.5379 29.5264 28.5379C29.969 28.5379 30.3275 28.8967 30.3275 29.3393V36.2477C40.0779 36.2477 47.9825 28.3433 47.9825 18.5929H41.0741C40.6312 18.5929 40.2728 18.9513 40.2728 19.3939C40.2728 19.4997 40.2938 19.6036 40.3337 19.6993C40.3734 19.7956 40.4314 19.8837 40.5061 19.9591C41.043 20.4977 41.3726 21.2427 41.3651 22.065C41.3503 23.6562 40.0533 24.9588 38.4621 24.9807C36.8174 25.0033 35.4769 23.6765 35.4769 22.0371C35.4769 21.2253 35.8051 20.4905 36.3365 19.9578C36.4856 19.8084 36.5688 19.6052 36.5688 19.3939C36.5688 19.1725 36.479 18.9723 36.3345 18.8275C36.1891 18.6823 35.9892 18.5929 35.7678 18.5929H30.3274V24.0329C30.3274 24.2544 30.238 24.4546 30.0928 24.5997C29.948 24.7445 29.7479 24.8343 29.5264 24.8343C29.3151 24.8343 29.112 24.7508 28.9626 24.6017C28.4299 24.0706 27.695 23.742 26.8832 23.742C25.2439 23.742 23.917 25.0826 23.9396 26.7272Z" fill="#3F9B5D"/>
<path d="M12.6726 18.5929H19.581C20.0236 18.5929 20.3823 18.2342 20.3823 17.7916C20.3823 17.6858 20.3614 17.5822 20.3214 17.4863C20.2818 17.3899 20.2238 17.3018 20.1488 17.2264C19.6121 16.6878 19.2826 15.9429 19.2901 15.1205C19.3049 13.5293 20.6019 12.2267 22.1931 12.2048C23.8377 12.1822 25.1783 13.509 25.1783 15.1484C25.1783 15.9602 24.8497 16.6951 24.3187 17.2278C24.1696 17.3775 24.0861 17.5806 24.0861 17.7916C24.0861 18.0131 24.1758 18.2132 24.3207 18.358C24.4658 18.5032 24.666 18.5929 24.8874 18.5929H30.3274V13.1526C30.3274 12.9311 30.4172 12.7313 30.5623 12.5858C30.7071 12.4413 30.9073 12.3515 31.1287 12.3515C31.3397 12.3515 31.5428 12.4347 31.6926 12.5838C32.2253 13.1152 32.9601 13.4435 33.7719 13.4435C35.4113 13.4435 36.7381 12.1029 36.7155 10.4582C36.6936 8.86704 35.391 7.56999 33.7998 7.55524C32.9775 7.54771 32.2325 7.8773 31.6939 8.41425C31.6185 8.48894 31.5304 8.54691 31.4341 8.58658C31.3381 8.62655 31.2345 8.64751 31.1287 8.64751C30.6861 8.64751 30.3274 8.2891 30.3274 7.84617V0.937805C20.577 0.937805 12.6726 8.84249 12.6726 18.5929Z" fill="#3F9B5D"/>
<path d="M43.3033 14.4898C42.0678 11.402 39.6173 8.86446 36.4279 6.98146C36.1633 6.82523 36.0536 6.49834 36.1701 6.21399L36.4471 5.53743C36.5931 5.18108 37.0027 5.07963 37.3514 5.24299C38.8742 5.95633 42.9249 8.52449 44.7312 13.9663C44.8529 14.3327 44.6829 14.7324 44.3335 14.8967C43.937 15.0832 43.4661 14.8966 43.3033 14.4898Z" fill="#3F9B5D"/>
<path d="M33.3786 5.7105L34.5606 6.15911C34.8038 6.25141 35.0758 6.12909 35.1681 5.88591L35.4922 5.03201C35.5845 4.78882 35.4622 4.51684 35.219 4.42458L34.037 3.97597C33.7938 3.88367 33.5218 4.00598 33.4295 4.24917L33.1054 5.10307C33.0131 5.34626 33.1354 5.6182 33.3786 5.7105Z" fill="#3F9B5D"/>
<path d="M12.6727 18.5928C12.6727 28.3433 20.5771 36.2476 30.3275 36.2476V33.5232C22.3793 32.8798 16.0406 26.5407 15.3969 18.5929L12.6727 18.5928Z" fill="#1E2139"/>
<path d="M30.3275 33.5231V36.2475C40.0779 36.2475 47.9825 28.3432 47.9825 18.5928C47.9825 18.3648 47.9783 18.1374 47.9694 17.9113C47.9606 18.1397 47.9468 18.367 47.9281 18.5928C47.2493 26.9813 40.2263 33.5772 31.6628 33.5772C31.2133 33.5772 30.7678 33.5588 30.3275 33.5231Z" fill="#1E2139"/>
<path d="M15.3967 18.593C15.361 18.1526 15.3429 17.7071 15.3429 17.2576C15.3429 8.69412 21.9388 1.67105 30.3273 0.992219C30.5531 0.973538 30.7804 0.959773 31.0088 0.950925C30.7827 0.942076 30.5554 0.937805 30.3273 0.937805C20.5769 0.937805 12.6726 8.84246 12.6726 18.5929H15.3967V18.593Z" fill="#1E2139"/>
<path d="M30.3277 37.1854C32.8372 37.1854 35.2723 36.6937 37.5651 35.7239C39.7792 34.7875 41.7675 33.447 43.4747 31.7397C45.1819 30.0325 46.5224 28.0443 47.4589 25.8301C48.4287 23.5373 48.9204 21.1023 48.9204 18.5927C48.9204 16.0831 48.4287 13.6481 47.4589 11.3553C46.5224 9.14114 45.1819 7.15288 43.4747 5.44562C41.7675 3.73847 39.7792 2.39797 37.5651 1.46148C35.2723 0.491719 32.8372 0 30.3276 0C27.818 0 25.383 0.491719 23.0902 1.46148C20.8761 2.39797 18.8878 3.73847 17.1806 5.44566C15.4733 7.15288 14.1329 9.14117 13.1964 11.3553C12.2266 13.6481 11.7349 16.0831 11.7349 18.5927C11.7349 21.1023 12.2266 23.5373 13.1964 25.8301C14.1329 28.0443 15.4733 30.0326 17.1806 31.7398C18.8878 33.447 20.8761 34.7875 23.0902 35.724C25.383 36.6937 27.8181 37.1854 30.3277 37.1854ZM30.3277 1.87565C32.5849 1.87565 34.7741 2.31754 36.8344 3.18898C38.825 4.0309 40.6128 5.23639 42.1484 6.77198C43.684 8.30754 44.8895 10.0954 45.7314 12.086C46.6029 14.1464 47.0447 16.3355 47.0447 18.5927C47.0447 20.85 46.6029 23.0391 45.7314 25.0995C44.8895 27.09 43.684 28.8779 42.1484 30.4135C40.6128 31.9491 38.8249 33.1546 36.8344 33.9965C34.7741 34.868 32.5849 35.3098 30.3277 35.3098C28.0704 35.3098 25.8813 34.868 23.8209 33.9965C21.8304 33.1546 20.0425 31.9491 18.5069 30.4135C16.9713 28.8779 15.7658 27.09 14.9239 25.0995C14.0524 23.0391 13.6106 20.8499 13.6106 18.5927C13.6106 16.3356 14.0524 14.1464 14.9239 12.086C15.7658 10.0954 16.9713 8.30754 18.5069 6.77198C20.0425 5.23642 21.8304 4.0309 23.8209 3.18898C25.8813 2.31754 28.0705 1.87565 30.3277 1.87565Z" fill="#DEE8F0"/>
</svg>
