<svg width="15" height="15" viewBox="0 0 15 15" fill="none" xmlns="http://www.w3.org/2000/svg">
<path fill-rule="evenodd" clip-rule="evenodd" d="M5.20107 0.650134C5.20107 0.82256 5.13258 0.987925 5.01065 1.10985C4.88873 1.23177 4.72337 1.30027 4.55094 1.30027C4.37851 1.30027 4.21315 1.23177 4.09122 1.10985C3.9693 0.987925 3.9008 0.82256 3.9008 0.650134C3.9008 0.477708 3.9693 0.312344 4.09122 0.19042C4.21315 0.068496 4.37851 0 4.55094 0C4.72337 0 4.88873 0.068496 5.01065 0.19042C5.13258 0.312344 5.20107 0.477708 5.20107 0.650134ZM7.80161 0.650134C7.80161 0.82256 7.73311 0.987925 7.61119 1.10985C7.48927 1.23177 7.3239 1.30027 7.15148 1.30027C6.97905 1.30027 6.81369 1.23177 6.69176 1.10985C6.56984 0.987925 6.50134 0.82256 6.50134 0.650134C6.50134 0.477708 6.56984 0.312344 6.69176 0.19042C6.81369 0.068496 6.97905 0 7.15148 0C7.3239 0 7.48927 0.068496 7.61119 0.19042C7.73311 0.312344 7.80161 0.477708 7.80161 0.650134ZM9.75201 1.30027C9.92444 1.30027 10.0898 1.23177 10.2117 1.10985C10.3337 0.987925 10.4021 0.82256 10.4021 0.650134C10.4021 0.477708 10.3337 0.312344 10.2117 0.19042C10.0898 0.068496 9.92444 0 9.75201 0C9.57959 0 9.41422 0.068496 9.2923 0.19042C9.17037 0.312344 9.10188 0.477708 9.10188 0.650134C9.10188 0.82256 9.17037 0.987925 9.2923 1.10985C9.41422 1.23177 9.57959 1.30027 9.75201 1.30027ZM5.20107 13.6528C5.20107 13.8252 5.13258 13.9906 5.01065 14.1125C4.88873 14.2345 4.72337 14.303 4.55094 14.303C4.37851 14.303 4.21315 14.2345 4.09122 14.1125C3.9693 13.9906 3.9008 13.8252 3.9008 13.6528C3.9008 13.4804 3.9693 13.315 4.09122 13.1931C4.21315 13.0712 4.37851 13.0027 4.55094 13.0027C4.72337 13.0027 4.88873 13.0712 5.01065 13.1931C5.13258 13.315 5.20107 13.4804 5.20107 13.6528ZM7.80161 13.6528C7.80161 13.8252 7.73311 13.9906 7.61119 14.1125C7.48927 14.2345 7.3239 14.303 7.15148 14.303C6.97905 14.303 6.81369 14.2345 6.69176 14.1125C6.56984 13.9906 6.50134 13.8252 6.50134 13.6528C6.50134 13.4804 6.56984 13.315 6.69176 13.1931C6.81369 13.0712 6.97905 13.0027 7.15148 13.0027C7.3239 13.0027 7.48927 13.0712 7.61119 13.1931C7.73311 13.315 7.80161 13.4804 7.80161 13.6528ZM9.75201 14.303C9.92444 14.303 10.0898 14.2345 10.2117 14.1125C10.3337 13.9906 10.4021 13.8252 10.4021 13.6528C10.4021 13.4804 10.3337 13.315 10.2117 13.1931C10.0898 13.0712 9.92444 13.0027 9.75201 13.0027C9.57959 13.0027 9.41422 13.0712 9.2923 13.1931C9.17037 13.315 9.10188 13.4804 9.10188 13.6528C9.10188 13.8252 9.17037 13.9906 9.2923 14.1125C9.41422 14.2345 9.57959 14.303 9.75201 14.303ZM14.303 9.75201C14.303 9.57959 14.2345 9.41422 14.1125 9.2923C13.9906 9.17037 13.8252 9.10188 13.6528 9.10188C13.4804 9.10188 13.315 9.17037 13.1931 9.2923C13.0712 9.41422 13.0027 9.57959 13.0027 9.75201C13.0027 9.92444 13.0712 10.0898 13.1931 10.2117C13.315 10.3337 13.4804 10.4021 13.6528 10.4021C13.8252 10.4021 13.9906 10.3337 14.1125 10.2117C14.2345 10.0898 14.303 9.92444 14.303 9.75201ZM14.303 7.15148C14.303 6.97905 14.2345 6.81369 14.1125 6.69176C13.9906 6.56984 13.8252 6.50134 13.6528 6.50134C13.4804 6.50134 13.315 6.56984 13.1931 6.69176C13.0712 6.81369 13.0027 6.97905 13.0027 7.15148C13.0027 7.3239 13.0712 7.48927 13.1931 7.61119C13.315 7.73311 13.4804 7.80161 13.6528 7.80161C13.8252 7.80161 13.9906 7.73311 14.1125 7.61119C14.2345 7.48927 14.303 7.3239 14.303 7.15148ZM13.6528 3.9008C13.8252 3.9008 13.9906 3.9693 14.1125 4.09122C14.2345 4.21315 14.303 4.37851 14.303 4.55094C14.303 4.72337 14.2345 4.88873 14.1125 5.01065C13.9906 5.13258 13.8252 5.20107 13.6528 5.20107C13.4804 5.20107 13.315 5.13258 13.1931 5.01065C13.0712 4.88873 13.0027 4.72337 13.0027 4.55094C13.0027 4.37851 13.0712 4.21315 13.1931 4.09122C13.315 3.9693 13.4804 3.9008 13.6528 3.9008ZM0.650134 9.10188C0.82256 9.10188 0.987925 9.17037 1.10985 9.2923C1.23177 9.41422 1.30027 9.57959 1.30027 9.75201C1.30027 9.92444 1.23177 10.0898 1.10985 10.2117C0.987925 10.3337 0.82256 10.4021 0.650134 10.4021C0.477708 10.4021 0.312344 10.3337 0.19042 10.2117C0.068496 10.0898 0 9.92444 0 9.75201C0 9.57959 0.068496 9.41422 0.19042 9.2923C0.312344 9.17037 0.477708 9.10188 0.650134 9.10188ZM0.650134 6.50134C0.82256 6.50134 0.987925 6.56984 1.10985 6.69176C1.23177 6.81369 1.30027 6.97905 1.30027 7.15148C1.30027 7.3239 1.23177 7.48927 1.10985 7.61119C0.987925 7.73311 0.82256 7.80161 0.650134 7.80161C0.477708 7.80161 0.312344 7.73311 0.19042 7.61119C0.068496 7.48927 0 7.3239 0 7.15148C0 6.97905 0.068496 6.81369 0.19042 6.69176C0.312344 6.56984 0.477708 6.50134 0.650134 6.50134ZM1.30027 4.55094C1.30027 4.37851 1.23177 4.21315 1.10985 4.09122C0.987925 3.9693 0.82256 3.9008 0.650134 3.9008C0.477708 3.9008 0.312344 3.9693 0.19042 4.09122C0.068496 4.21315 0 4.37851 0 4.55094C0 4.72337 0.068496 4.88873 0.19042 5.01065C0.312344 5.13258 0.477708 5.20107 0.650134 5.20107C0.82256 5.20107 0.987925 5.13258 1.10985 5.01065C1.23177 4.88873 1.30027 4.72337 1.30027 4.55094ZM10.4021 3.25067H3.9008C3.72838 3.25067 3.56301 3.31917 3.44109 3.44109C3.31917 3.56301 3.25067 3.72838 3.25067 3.9008V10.4021C3.25067 10.5746 3.31917 10.7399 3.44109 10.8619C3.56301 10.9838 3.72838 11.0523 3.9008 11.0523H10.4021C10.5746 11.0523 10.7399 10.9838 10.8619 10.8619C10.9838 10.7399 11.0523 10.5746 11.0523 10.4021V3.9008C11.0523 3.72838 10.9838 3.56301 10.8619 3.44109C10.7399 3.31917 10.5746 3.25067 10.4021 3.25067ZM3.9008 1.9504C3.38353 1.9504 2.88743 2.15589 2.52166 2.52166C2.15589 2.88743 1.9504 3.38353 1.9504 3.9008V10.4021C1.9504 10.9194 2.15589 11.4155 2.52166 11.7813C2.88743 12.1471 3.38353 12.3525 3.9008 12.3525H10.4021C10.9194 12.3525 11.4155 12.1471 11.7813 11.7813C12.1471 11.4155 12.3525 10.9194 12.3525 10.4021V3.9008C12.3525 3.38353 12.1471 2.88743 11.7813 2.52166C11.4155 2.15589 10.9194 1.9504 10.4021 1.9504H3.9008ZM8.45174 5.85121H5.85121V8.45174H8.45174V5.85121ZM4.55094 4.55094V9.75201H9.75201V4.55094H4.55094Z" fill="#F46E0D"/>
</svg>
