<svg width="96" height="96" viewBox="0 0 96 96" fill="none" xmlns="http://www.w3.org/2000/svg">
<circle cx="47.9595" cy="47.9595" r="44.6056" stroke="url(#paint0_linear_184_1849)" stroke-width="6.70762"/>
<g clip-path="url(#clip0_184_1849)">
<path d="M55.9249 35.2151C56.214 35.2151 56.4913 35.3299 56.6957 35.5343C56.9001 35.7388 57.0149 36.016 57.0149 36.3051V51.5649C57.0149 51.854 56.9001 52.1312 56.6957 52.3356C56.4913 52.5401 56.214 52.6549 55.9249 52.6549C55.6358 52.6549 55.3586 52.5401 55.1542 52.3356C54.9498 52.1312 54.8349 51.854 54.8349 51.5649V36.3051C54.8349 36.016 54.9498 35.7388 55.1542 35.5343C55.3586 35.3299 55.6358 35.2151 55.9249 35.2151ZM60.2849 35.2151C60.574 35.2151 60.8512 35.3299 61.0556 35.5343C61.26 35.7388 61.3749 36.016 61.3749 36.3051V51.5649C61.3749 51.854 61.26 52.1312 61.0556 52.3356C60.8512 52.5401 60.574 52.6549 60.2849 52.6549C59.9958 52.6549 59.7186 52.5401 59.5141 52.3356C59.3097 52.1312 59.1949 51.854 59.1949 51.5649V36.3051C59.1949 36.016 59.3097 35.7388 59.5141 35.5343C59.7186 35.3299 59.9958 35.2151 60.2849 35.2151ZM38.4851 52.6549C38.196 52.6549 37.9188 52.7697 37.7144 52.9741C37.51 53.1786 37.3951 53.4558 37.3951 53.7449C37.3951 54.034 37.51 54.3112 37.7144 54.5156C37.9188 54.72 38.196 54.8349 38.4851 54.8349H51.565C51.8541 54.8349 52.1313 54.72 52.3357 54.5156C52.5401 54.3112 52.655 54.034 52.655 53.7449C52.655 53.4558 52.5401 53.1786 52.3357 52.9741C52.1313 52.7697 51.8541 52.6549 51.565 52.6549H38.4851ZM38.4851 57.0148C38.196 57.0148 37.9188 57.1297 37.7144 57.3341C37.51 57.5385 37.3951 57.8157 37.3951 58.1048C37.3951 58.3939 37.51 58.6712 37.7144 58.8756C37.9188 59.08 38.196 59.1948 38.4851 59.1948H51.565C51.8541 59.1948 52.1313 59.08 52.3357 58.8756C52.5401 58.6712 52.655 58.3939 52.655 58.1048C52.655 57.8157 52.5401 57.5385 52.3357 57.3341C52.1313 57.1297 51.8541 57.0148 51.565 57.0148H38.4851ZM41.7551 37.3951C41.1769 37.3951 40.6224 37.6247 40.2136 38.0336C39.8048 38.4424 39.5751 38.9969 39.5751 39.575H38.4851C38.196 39.575 37.9188 39.6899 37.7144 39.8943C37.51 40.0987 37.3951 40.3759 37.3951 40.665C37.3951 40.9541 37.51 41.2314 37.7144 41.4358C37.9188 41.6402 38.196 41.755 38.4851 41.755H39.5751V43.935H38.4851C38.196 43.935 37.9188 44.0498 37.7144 44.2542C37.51 44.4587 37.3951 44.7359 37.3951 45.025C37.3951 45.3141 37.51 45.5913 37.7144 45.7957C37.9188 46.0001 38.196 46.115 38.4851 46.115H39.5751C39.5751 46.6931 39.8048 47.2476 40.2136 47.6564C40.6224 48.0653 41.1769 48.2949 41.7551 48.2949V49.3849C41.7551 49.674 41.8699 49.9513 42.0743 50.1557C42.2788 50.3601 42.556 50.4749 42.8451 50.4749C43.1342 50.4749 43.4114 50.3601 43.6158 50.1557C43.8202 49.9513 43.9351 49.674 43.9351 49.3849V48.2949H46.115V49.3849C46.115 49.674 46.2299 49.9513 46.4343 50.1557C46.6387 50.3601 46.9159 50.4749 47.205 50.4749C47.4941 50.4749 47.7714 50.3601 47.9758 50.1557C48.1802 49.9513 48.295 49.674 48.295 49.3849V48.2949C48.8732 48.2949 49.4277 48.0653 49.8365 47.6564C50.2453 47.2476 50.475 46.6931 50.475 46.115H51.565C51.8541 46.115 52.1313 46.0001 52.3357 45.7957C52.5401 45.5913 52.655 45.3141 52.655 45.025C52.655 44.7359 52.5401 44.4587 52.3357 44.2542C52.1313 44.0498 51.8541 43.935 51.565 43.935H50.475V41.755H51.565C51.8541 41.755 52.1313 41.6402 52.3357 41.4358C52.5401 41.2314 52.655 40.9541 52.655 40.665C52.655 40.3759 52.5401 40.0987 52.3357 39.8943C52.1313 39.6899 51.8541 39.575 51.565 39.575H50.475C50.475 38.9969 50.2453 38.4424 49.8365 38.0336C49.4277 37.6247 48.8732 37.3951 48.295 37.3951V36.3051C48.295 36.016 48.1802 35.7388 47.9758 35.5343C47.7714 35.3299 47.4941 35.2151 47.205 35.2151C46.9159 35.2151 46.6387 35.3299 46.4343 35.5343C46.2299 35.7388 46.115 36.016 46.115 36.3051V37.3951H43.9351V36.3051C43.9351 36.016 43.8202 35.7388 43.6158 35.5343C43.4114 35.3299 43.1342 35.2151 42.8451 35.2151C42.556 35.2151 42.2788 35.3299 42.0743 35.5343C41.8699 35.7388 41.7551 36.016 41.7551 36.3051V37.3951ZM41.7551 39.575H48.295V46.115H41.7551V39.575ZM55.9249 54.8349C55.6358 54.8349 55.3586 54.9497 55.1542 55.1541C54.9498 55.3585 54.8349 55.6358 54.8349 55.9249V58.1048C54.8349 58.3939 54.9498 58.6712 55.1542 58.8756C55.3586 59.08 55.6358 59.1948 55.9249 59.1948H60.2849C60.574 59.1948 60.8512 59.08 61.0556 58.8756C61.26 58.6712 61.3749 58.3939 61.3749 58.1048V55.9249C61.3749 55.6358 61.26 55.3585 61.0556 55.1541C60.8512 54.9497 60.574 54.8349 60.2849 54.8349H55.9249Z" fill="white"/>
<path d="M33.0351 35.2149C33.0351 34.0586 33.4944 32.9496 34.3121 32.132C35.1297 31.3143 36.2387 30.855 37.395 30.855H61.3748C62.5311 30.855 63.6401 31.3143 64.4577 32.132C65.2754 32.9496 65.7347 34.0586 65.7347 35.2149V59.1947C65.7347 60.351 65.2754 61.46 64.4577 62.2776C63.6401 63.0953 62.5311 63.5546 61.3748 63.5546H37.395C36.2387 63.5546 35.1297 63.0953 34.3121 62.2776C33.4944 61.46 33.0351 60.351 33.0351 59.1947V54.8347H31.9451C31.656 54.8347 31.3788 54.7199 31.1744 54.5155C30.9699 54.311 30.8551 54.0338 30.8551 53.7447V51.5647C30.8551 51.2757 30.9699 50.9984 31.1744 50.794C31.3788 50.5896 31.656 50.4748 31.9451 50.4748H33.0351V48.2948H31.9451C31.656 48.2948 31.3788 48.1799 31.1744 47.9755C30.9699 47.7711 30.8551 47.4939 30.8551 47.2048V45.0248C30.8551 44.7357 30.9699 44.4585 31.1744 44.2541C31.3788 44.0497 31.656 43.9348 31.9451 43.9348H33.0351V41.7549H31.9451C31.656 41.7549 31.3788 41.64 31.1744 41.4356C30.9699 41.2312 30.8551 40.954 30.8551 40.6649V36.3049C30.8551 36.0158 30.9699 35.7386 31.1744 35.5342C31.3788 35.3298 31.656 35.2149 31.9451 35.2149H33.0351ZM35.2151 59.1947C35.2151 59.7728 35.4447 60.3273 35.8536 60.7361C36.2624 61.145 36.8169 61.3746 37.395 61.3746H61.3748C61.9529 61.3746 62.5074 61.145 62.9162 60.7361C63.3251 60.3273 63.5547 59.7728 63.5547 59.1947V35.2149C63.5547 34.6368 63.3251 34.0823 62.9162 33.6735C62.5074 33.2646 61.9529 33.035 61.3748 33.035H37.395C36.8169 33.035 36.2624 33.2646 35.8536 33.6735C35.4447 34.0823 35.2151 34.6368 35.2151 35.2149V59.1947Z" fill="white"/>
</g>
<defs>
<linearGradient id="paint0_linear_184_1849" x1="47.9594" y1="0" x2="47.9594" y2="76.4354" gradientUnits="userSpaceOnUse">
<stop stop-color="#F46E0D"/>
<stop offset="1" stop-color="#F46E0D" stop-opacity="0"/>
</linearGradient>
<clipPath id="clip0_184_1849">
<rect width="34.8796" height="34.8796" fill="white" transform="translate(30.8551 30.855)"/>
</clipPath>
</defs>
</svg>
