<svg width="24" height="24" viewBox="0 0 24 24" fill="none" xmlns="http://www.w3.org/2000/svg">
<path d="M11.6667 2.33333C9.19131 2.33333 6.81734 3.31666 5.067 5.067C3.31666 6.81734 2.33333 9.19131 2.33333 11.6667C2.33333 14.142 3.31666 16.516 5.067 18.2663C6.81734 20.0167 9.19131 21 11.6667 21C14.142 21 16.516 20.0167 18.2663 18.2663C20.0167 16.516 21 14.142 21 11.6667C21 9.19131 20.0167 6.81734 18.2663 5.067C16.516 3.31666 14.142 2.33333 11.6667 2.33333ZM0 11.6667C0 5.22317 5.22317 0 11.6667 0C18.1102 0 23.3333 5.22317 23.3333 11.6667C23.3333 18.1102 18.1102 23.3333 11.6667 23.3333C5.22317 23.3333 0 18.1102 0 11.6667ZM11.6667 4.66667C11.9761 4.66667 12.2728 4.78958 12.4916 5.00838C12.7104 5.22717 12.8333 5.52391 12.8333 5.83333V11.1837L15.9915 14.3418C16.204 14.5619 16.3216 14.8566 16.319 15.1625C16.3163 15.4684 16.1936 15.761 15.9773 15.9773C15.761 16.1936 15.4684 16.3163 15.1625 16.319C14.8566 16.3216 14.5619 16.204 14.3418 15.9915L10.8418 12.4915C10.623 12.2728 10.5001 11.9761 10.5 11.6667V5.83333C10.5 5.52391 10.6229 5.22717 10.8417 5.00838C11.0605 4.78958 11.3572 4.66667 11.6667 4.66667Z" fill="white"/>
</svg>
